<?xml version="1.0" encoding="UTF-8"?>
<svg id="Layer_2" data-name="Layer 2" xmlns="http://www.w3.org/2000/svg" viewBox="0 0 1296 1296">
  <defs>
    <style>
      .cls-1 {
        fill: #0d0c0c;
      }
    </style>
  </defs>
  <g id="Icon">
    <g id="Alder">
      <g id="Person">
        <path class="cls-1" d="M720,755.5v540.5H0v-540.5c0-154.93,119.89-281.24,270-287.28,3.74-.14,7.49-.22,11.25-.22h157.5c3.76,0,7.51.08,11.25.22,150.11,6.04,270,132.35,270,287.28Z"/>
        <path class="cls-1" d="M576,216c0,87.22-51.68,162.35-126.11,196.46-14.05,6.44-28.93,11.42-44.41,14.74-14.66,3.14-29.88,4.8-45.48,4.8s-30.82-1.66-45.48-4.8c-14.1-3.02-27.7-7.42-40.63-13.06-76.44-33.26-129.89-109.46-129.89-198.14,0-1.64.02-3.28.06-4.92C146.66,94.07,242.35,0,360,0s214.51,95.22,215.99,213.24c.01.92.01,1.84.01,2.76Z"/>
      </g>
      <g id="Person-2" data-name="Person">
        <path class="cls-1" d="M1296,890.62v405.38h-540v-405.38c0-116.2,89.92-210.93,202.5-215.46,2.8-.11,5.62-.16,8.44-.16h118.12c2.82,0,5.63.06,8.44.16,112.58,4.53,202.5,99.26,202.5,215.46Z"/>
        <path class="cls-1" d="M1188,486c0,65.41-38.76,121.76-94.58,147.35-10.54,4.83-21.7,8.57-33.31,11.05-11,2.36-22.41,3.6-34.11,3.6s-23.11-1.24-34.11-3.6c-10.57-2.27-20.77-5.56-30.47-9.79-57.33-24.95-97.42-82.1-97.42-148.61,0-1.23.02-2.46.05-3.69,1.95-87.76,73.72-158.31,161.95-158.31s160.88,71.41,161.99,159.93c0,.69,0,1.38,0,2.07Z"/>
      </g>
    </g>
  </g>
</svg>