<?xml version="1.0" encoding="UTF-8"?>
<svg id="Layer_2" data-name="Layer 2" xmlns="http://www.w3.org/2000/svg" viewBox="0 0 1295.73 1295.68">
  <defs>
    <style>
      .cls-1 {
        fill: #f2ebeb;
      }

      .cls-2 {
        stroke-linecap: round;
        stroke-width: 30px;
      }

      .cls-2, .cls-3, .cls-4 {
        fill: none;
        stroke: #f2ebeb;
      }

      .cls-2, .cls-4 {
        stroke-miterlimit: 10;
      }

      .cls-3 {
        stroke-linecap: square;
        stroke-linejoin: round;
        stroke-width: 20px;
      }

      .cls-4 {
        stroke-width: 40px;
      }
    </style>
  </defs>
  <g id="Icon">
    <g id="BarWhite">
      <path class="cls-1" d="M990.95,1294.26h220.19l24.08-262.73c-21.65,21.48-43.44,32.43-65.37,32.84-55.84,1.05-81.83-66.73-137.62-65.68-21.93.41-43.72,11.36-65.37,32.84,8.03,87.58,16.06,175.15,24.08,262.73Z"/>
      <path class="cls-1" d="M1243.75,781.48l-24.13,209.57c-17.2,15.68-33.92,23.63-49.77,23.63-20.79,0-37.07-13.65-55.92-29.46-21.71-18.2-46.31-38.84-81.7-38.84-17.92,0-35.67,5.39-53.06,16.07l-20.84-180.97h285.41M1266.18,761.48h-330.28l27.52,239.05c22.94-22.77,45.87-34.15,68.81-34.15,56.21,0,81.46,68.3,137.62,68.3,22.94,0,45.87-11.38,68.81-34.15l27.52-239.05h0Z"/>
      <polyline class="cls-3" points="1282.22 661.66 1156.09 728.18 1073.52 1260.96"/>
      <g id="Beholder">
        <path class="cls-1" d="M838.06,401.48c18.69,0,35.87,7.24,45.96,19.38,8.49,10.2,11.67,23.63,9.46,39.9l-153.44,797.07H195.65L42.2,460.76c-2.21-16.28.97-29.7,9.46-39.9,10.09-12.13,27.27-19.38,45.96-19.37.19,0,.38,0,.58,0,.77,0,1.93,0,3.34.08,13.01,2.78,29.64,8.46,44.94,21.09,48.71,40.18,46.79,120.08,54.4,119.39,7.78-.71-8.77-82.52,32.71-120.93,20.9-19.36,47.84-19.63,49.57-19.63,27.02.12,45.81,16.78,51.16,21.57,30.76,27.55,30.88,116.69,42.96,116.69s8.76-89.2,39.39-116.69c4.59-4.12,23.74-21.58,51.16-21.57,27.7.01,47.01,17.76,51.16,21.57,49.06,45.08,33.18,144.26,37.69,144.38,4.58.11-4.3-102.76,44.67-144.38,4.81-4.09,24.17-20.54,51.16-21.57,6-.23,18.81-.56,32.78,6.76,5.03,3.04,11.68,7.69,18.28,14.61,42.34,44.38,27.37,123.5,33.72,124.09,6.57.61,3.5-85.61,52.6-125.38,17.51-14.18,36.74-18.48,47.58-20.08.19,0,.38,0,.58,0M838.13,365.22c-37.53,1.68-74.96,22.79-92.93,57.64-5.65-8.79-9.7-18.11-16.75-26.11-6.46-7.33-14.01-13.6-22.28-18.59-16.13-9.74-34.79-14.58-53.41-14.8-34.16-.4-72.1,15.32-87.34,49-1.97,4.35-3.5,8.92-4.57,13.59-.29.13-1.04.13-1.33,0-20.13-85.26-164.46-80.95-184.01.01-23.69-76.66-141.59-85.09-185.23-5.54C146.94,333.64.69,347.47,5.26,459.14c-.24,9.96,159.35,826.82,160.39,836.54h604.39c53.16-276.16,106.33-552.32,159.49-828.48,10.71-55.64-37.58-103.41-89.42-102.04-.66.02-1.32.04-1.98.07Z"/>
        <line class="cls-4" x1="280.71" y1="1274.51" x2="190.83" y2="450.06"/>
        <line class="cls-4" x1="391.99" y1="1281.62" x2="375.5" y2="450.06"/>
        <line class="cls-4" x1="535.75" y1="1271.55" x2="560.18" y2="450.06"/>
        <line class="cls-4" x1="679.55" y1="1273.68" x2="744.85" y2="450.06"/>
      </g>
      <g id="Popcorn">
        <path class="cls-2" d="M39.96,389.05c-4.02-3.89-27.73-27.51-24.69-58.19,3.18-31.99,24.22-58.79,48.07-67.97,17.76-6.84,32.65-1.26,34.21-6.84,1.51-5.37-1.97-1.99-16.46-16.62-17.49-17.66-14.75-59.73,0-83.12,11.75-18.64,33.41-25.44,34.62-25.8,16.88-5,36.41-2.68,55.89,9.17,8.23-33.25,30.01-45.27,57.6-58.19,44.94-21.04,115.2-8.31,139.89,49.87l32.91,8.31c1.17-7.49,6.63-36.91,32.91-58.19,35.24-28.53,77.6-17.89,82.29-16.62,12.6-33.07,49.88-49.87,82.29-49.87,41.14,0,82.29,24.94,82.29,66.5,27.21-1.35,54.44,10.24,65.83,33.25,8.23,16.62,8.23,41.56,8.23,49.87,31.22-3.3,60.24,9.6,74.06,33.25,9.67,16.56,9.08,33.58,8.23,41.56,32.09,2.22,60.54,21.26,74.06,49.87,15.42,32.63,8.95,72.45-16.46,99.75"/>
        <path class="cls-2" d="M188.07,181.24c-3.15-2.32-13.39-10.49-16.46-24.94-1.46-6.88-.79-12.8,0-16.62"/>
        <path class="cls-2" d="M293.52,158.42c7.75-11.46,20.14-19.22,33.36-22.99,13.22-3.77,27.26-3.79,40.88-1.97,16.22,2.16,32.31,6.98,46.01,16.01,16.28,10.73,28.69,27.37,34.17,46.21,6.01,20.66,3.36,43.31-6.77,62.2"/>
        <path class="cls-2" d="M591.27,106.43c-7.67-7.51-18.53-16.68-32.91-24.94-15.69-9.01-30.24-13.88-41.14-16.62"/>
        <path class="cls-2" d="M673.19,131.06c8.59-16.32,8.59-41.25,8.59-49.57,0-41.56-41.14-66.5-82.29-66.5"/>
        <path class="cls-2" d="M739.38,206.18c8.23-8.31,16.46-33.25,16.46-41.56s0-33.25-8.23-49.87"/>
        <path class="cls-2" d="M813.44,305.93c6.5-7.97,24.69-49.87,24.69-66.5,0-8.31,0-24.94-8.23-41.56"/>
        <path class="cls-2" d="M138.7,297.61c15.17-42.4,55.96-69.48,98.74-66.5,46.9,3.27,77.8,41.95,82.29,91.43"/>
        <path class="cls-2" d="M574.81,289.3c.83-3.49,11.06-43.6,49.37-58.19,30.98-11.8,67.34-1.97,90.51,24.94"/>
        <path class="cls-2" d="M492.53,172.93c3.47-3.26,37.38-34.12,82.29-24.94,38.07,7.78,57.6,33.25,65.83,66.5"/>
      </g>
    </g>
  </g>
</svg>