<?xml version="1.0" encoding="UTF-8"?>
<svg id="Layer_2" data-name="Layer 2" xmlns="http://www.w3.org/2000/svg" viewBox="0 0 1295.74 1295.67">
  <defs>
    <style>
      .cls-1 {
        fill: #f2ebeb;
      }

      .cls-2 {
        stroke-linecap: round;
        stroke-miterlimit: 10;
        stroke-width: 30px;
      }

      .cls-2, .cls-3 {
        fill: none;
        stroke: #f2ebeb;
      }

      .cls-3 {
        stroke-linecap: square;
        stroke-linejoin: round;
        stroke-width: 20px;
      }
    </style>
  </defs>
  <g id="Icon">
    <g id="Bar2White">
      <path class="cls-1" d="M893.47,460.76l-160.72,834.91h-34.88l66.84-843.09c6.37-11.61,14.55-22.41,25.19-31.02,17.51-14.18,36.73-18.48,47.57-20.07.2-.01.39-.01.58-.01,18.69,0,35.87,7.25,45.96,19.38,8.49,10.21,11.67,23.63,9.46,39.9Z"/>
      <path class="cls-1" d="M724.27,456.62l-66.53,839.05h-102.69l25.13-845.01h-.11c5.49-10.56,12.44-20.08,21.29-27.6,4.81-4.09,24.17-20.54,51.16-21.57,6-.23,18.81-.56,32.78,6.75,5.03,3.04,11.68,7.7,18.28,14.62,9.48,9.93,16.08,21.61,20.7,33.76Z"/>
      <path class="cls-1" d="M540.09,452.66l-25.07,843.01h-102.77l-16.47-831.12c4.48-16.91,10.87-32.5,20.89-41.49,4.59-4.12,23.73-21.59,51.16-21.57,27.69.01,47.01,17.76,51.16,21.57,9.07,8.34,15.92,18.53,21.09,29.6Z"/>
      <path class="cls-1" d="M372.26,1295.67h-69.13l-91.41-838.47c4.39-13.48,11.21-26.22,21.87-36.09,20.9-19.36,47.84-19.63,49.57-19.62,27.02.12,45.82,16.78,51.16,21.57,9.8,8.77,16.48,23.79,21.44,40.18l16.5,832.43Z"/>
      <path class="cls-1" d="M262.9,1295.67h-59.97L42.2,460.76c-2.21-16.28.97-29.7,9.46-39.9,10.09-12.14,27.27-19.38,45.96-19.38.19,0,.38,0,.58.01.77-.01,1.93,0,3.34.08,13.01,2.79,29.63,8.46,44.94,21.09,10.26,8.46,18.27,18.69,24.6,29.56h-.14s91.96,843.45,91.96,843.45Z"/>
      <g id="Popcorn">
        <path class="cls-2" d="M39.96,389.05c-4.02-3.89-27.73-27.51-24.69-58.19,3.18-31.99,24.22-58.79,48.07-67.97,17.76-6.84,32.65-1.26,34.21-6.84,1.51-5.37-1.97-1.99-16.46-16.62-17.49-17.66-14.75-59.73,0-83.12,11.75-18.64,33.41-25.44,34.62-25.8,16.88-5,36.41-2.68,55.89,9.17,8.23-33.25,30.01-45.27,57.6-58.19,44.94-21.04,115.2-8.31,139.89,49.87l32.91,8.31c1.17-7.49,6.63-36.91,32.91-58.19,35.24-28.53,77.6-17.89,82.29-16.62,12.6-33.07,49.88-49.87,82.29-49.87,41.14,0,82.29,24.94,82.29,66.5,27.21-1.35,54.44,10.24,65.83,33.25,8.23,16.62,8.23,41.56,8.23,49.87,31.22-3.3,60.24,9.6,74.06,33.25,9.67,16.56,9.08,33.58,8.23,41.56,32.09,2.22,60.54,21.26,74.06,49.87,15.42,32.63,8.95,72.45-16.46,99.75"/>
        <path class="cls-2" d="M188.07,181.24c-3.15-2.32-13.39-10.49-16.46-24.94-1.46-6.88-.79-12.8,0-16.62"/>
        <path class="cls-2" d="M293.52,158.42c7.75-11.46,20.14-19.22,33.36-22.99,13.22-3.77,27.26-3.79,40.88-1.97,16.22,2.16,32.31,6.98,46.01,16.01,16.28,10.73,28.69,27.37,34.17,46.21,6.01,20.66,3.36,43.31-6.77,62.2"/>
        <path class="cls-2" d="M591.27,106.43c-7.67-7.51-18.53-16.68-32.91-24.94-15.69-9.01-30.24-13.88-41.14-16.62"/>
        <path class="cls-2" d="M673.19,131.06c8.59-16.32,8.59-41.25,8.59-49.57,0-41.56-41.14-66.5-82.29-66.5"/>
        <path class="cls-2" d="M739.38,206.18c8.23-8.31,16.46-33.25,16.46-41.56s0-33.25-8.23-49.87"/>
        <path class="cls-2" d="M813.44,305.93c6.5-7.97,24.69-49.87,24.69-66.5,0-8.31,0-24.94-8.23-41.56"/>
        <path class="cls-2" d="M138.7,297.61c15.17-42.4,55.96-69.48,98.74-66.5,46.9,3.27,77.8,41.95,82.29,91.43"/>
        <path class="cls-2" d="M574.81,289.3c.83-3.49,11.06-43.6,49.37-58.19,30.98-11.8,67.34-1.97,90.51,24.94"/>
        <path class="cls-2" d="M492.53,172.93c3.47-3.26,37.38-34.12,82.29-24.94,38.07,7.78,57.6,33.25,65.83,66.5"/>
      </g>
      <path class="cls-1" d="M990.95,1295.67h220.19l24.08-262.73c-21.65,21.48-43.44,32.43-65.37,32.84-55.84,1.05-81.83-66.73-137.62-65.68-21.93.41-43.72,11.36-65.37,32.84,8.03,87.58,16.06,175.15,24.08,262.73Z"/>
      <path class="cls-1" d="M1243.75,782.89l-24.13,209.57c-17.2,15.68-33.92,23.63-49.77,23.63-20.79,0-37.07-13.65-55.92-29.46-21.71-18.2-46.31-38.84-81.7-38.84-17.92,0-35.67,5.39-53.06,16.07l-20.84-180.97h285.41M1266.19,762.89h-330.28l27.52,239.05c22.94-22.77,45.87-34.15,68.81-34.15,56.21,0,81.46,68.3,137.62,68.3,22.94,0,45.87-11.38,68.81-34.15l27.52-239.05h0Z"/>
      <polyline class="cls-3" points="1282.23 663.07 1156.09 729.59 1073.52 1262.37"/>
    </g>
  </g>
</svg>