<svg width="16" height="17" viewBox="0 0 16 17" fill="none" xmlns="http://www.w3.org/2000/svg">
<path d="M2.38562 0.469725L8 6.08387L13.5853 0.498814C13.7087 0.367504 13.8573 0.26246 14.0222 0.189981C14.1872 0.117503 14.3651 0.0790834 14.5453 0.0770264C14.931 0.0770264 15.301 0.230262 15.5738 0.503022C15.8465 0.775783 15.9998 1.14573 15.9998 1.53147C16.0032 1.70978 15.9701 1.88691 15.9025 2.05198C15.835 2.21706 15.7345 2.36659 15.607 2.4914L9.94903 8.07645L15.607 13.7342C15.8468 13.9687 15.9873 14.2863 15.9998 14.6214C15.9998 15.0072 15.8465 15.3771 15.5738 15.6499C15.301 15.9226 14.931 16.0759 14.5453 16.0759C14.3599 16.0836 14.1749 16.0526 14.0022 15.985C13.8294 15.9174 13.6726 15.8146 13.5417 15.6832L8 10.069L2.40017 15.6686C2.27727 15.7956 2.13045 15.8969 1.96818 15.9668C1.80591 16.0367 1.63141 16.0738 1.45474 16.0759C1.06898 16.0759 0.699023 15.9226 0.426251 15.6499C0.153478 15.3771 0.000236657 15.0072 0.000236657 14.6214C-0.00315451 14.4431 0.0299309 14.266 0.0974628 14.1009C0.164995 13.9358 0.265548 13.7863 0.392952 13.6615L6.05097 8.07645L0.392952 2.41868C0.153228 2.18416 0.0126576 1.86659 0.000236657 1.53147C0.000236657 1.14573 0.153478 0.775783 0.426251 0.503022C0.699023 0.230262 1.06898 0.0770264 1.45474 0.0770264C1.80382 0.0813897 2.13836 0.22247 2.38562 0.469725Z" fill="#0D0C0C"/>
</svg>
