<?xml version="1.0" encoding="UTF-8"?>
<svg id="Layer_2" data-name="Layer 2" xmlns="http://www.w3.org/2000/svg" viewBox="0 0 1295.73 1295.73">
  <defs>
    <style>
      .cls-1 {
        fill: #f2ebeb;
      }
    </style>
  </defs>
  <g id="Icon">
    <g id="Oversigt2White">
      <path id="_4_er" data-name="4&amp;apos;er" class="cls-1" d="M681.71,700.09l-497.1-122.64c-26.7-6.59-53.93,9.87-60.52,36.57L1.45,1111.12c-6.59,26.7,9.87,53.93,36.57,60.52l497.09,122.64c26.7,6.59,53.93-9.87,60.52-36.57l122.64-497.1c6.59-26.7-9.87-53.93-36.57-60.52ZM261.27,1051.62c-9,36.46-45.85,58.73-82.31,49.73s-58.73-45.85-49.73-82.31,45.85-58.73,82.31-49.73c36.46,9,58.73,45.85,49.73,82.31ZM326.42,787.53c-9,36.46-45.85,58.73-82.31,49.73-36.46-9-58.73-45.85-49.73-82.31,9-36.46,45.85-58.73,82.31-49.73s58.73,45.85,49.73,82.31ZM525.35,1116.77c-9,36.46-45.85,58.73-82.31,49.73-36.46-9-58.73-45.85-49.73-82.31,9-36.46,45.85-58.73,82.31-49.73,36.46,9,58.73,45.85,49.73,82.31ZM590.5,852.69c-9,36.46-45.85,58.73-82.31,49.73-36.46-9-58.73-45.85-49.73-82.31s45.85-58.73,82.31-49.73c36.46,9,58.73,45.85,49.73,82.31Z"/>
      <path id="_3_er" data-name="3&amp;apos;er" class="cls-1" d="M1245.73,0h-512c-27.5,0-50,22.5-50,50v512c0,27.5,22.5,50,50,50h512c27.5,0,50-22.5,50-50V50c0-27.5-22.5-50-50-50ZM836.73,221c-37.56,0-68-30.44-68-68s30.44-68,68-68,68,30.44,68,68-30.44,68-68,68ZM989.73,374c-37.56,0-68-30.44-68-68s30.44-68,68-68,68,30.44,68,68-30.44,68-68,68ZM1142.73,527c-37.56,0-68-30.44-68-68s30.44-68,68-68,68,30.44,68,68-30.44,68-68,68Z"/>
    </g>
  </g>
</svg>