<?xml version="1.0" encoding="UTF-8"?>
<svg id="Layer_2" data-name="Layer 2" xmlns="http://www.w3.org/2000/svg" viewBox="0 0 1296 1296">
  <defs>
    <style>
      .cls-1 {
        fill: #f2ebeb;
      }
    </style>
  </defs>
  <g id="Icon">
    <g id="OversigtWhite">
      <g id="_4_er" data-name="4&amp;apos;er">
        <path class="cls-1" d="M684.28,701.2l-496.34-125.67c-26.66-6.75-53.99,9.54-60.74,36.2L1.53,1108.06c-6.75,26.66,9.54,53.99,36.2,60.74l496.34,125.67c26.66,6.75,53.99-9.54,60.74-36.2l125.67-496.34c6.75-26.66-9.54-53.99-36.2-60.74ZM693.81,757.25l-124.69,492.46c-3.37,13.33-17.04,21.47-30.37,18.1l-492.46-124.69c-13.33-3.37-21.47-17.04-18.1-30.37l124.69-492.46c3.37-13.33,17.04-21.47,30.37-18.1l492.46,124.69c13.33,3.37,21.47,17.04,18.1,30.37Z"/>
        <path class="cls-1" d="M261.54,1051.62c-9,36.46-45.85,58.72-82.31,49.73-36.46-9-58.73-45.85-49.73-82.31,8.99-36.46,45.85-58.73,82.31-49.73,36.46,8.99,58.73,45.84,49.73,82.31Z"/>
        <path class="cls-1" d="M525.62,1116.77c-8.99,36.46-45.84,58.73-82.31,49.73-36.46-8.99-58.73-45.85-49.73-82.31s45.85-58.73,82.31-49.73,58.73,45.85,49.73,82.31Z"/>
        <path class="cls-1" d="M590.77,852.69c-8.99,36.46-45.84,58.72-82.3,49.73-36.47-9-58.73-45.85-49.74-82.31,9-36.46,45.85-58.73,82.31-49.73,36.46,8.99,58.73,45.84,49.73,82.31Z"/>
        <path class="cls-1" d="M326.69,787.53c-8.99,36.47-45.84,58.73-82.31,49.74-36.46-9-58.72-45.85-49.73-82.31,9-36.46,45.85-58.73,82.31-49.73,36.46,8.99,58.73,45.84,49.73,82.3Z"/>
      </g>
      <g id="_3_er" data-name="3&amp;apos;er">
        <path class="cls-1" d="M1246,0h-512c-27.5,0-50,22.5-50,50v512c0,27.5,22.5,50,50,50h512c27.5,0,50-22.5,50-50V50c0-27.5-22.5-50-50-50ZM1269,52v508c0,13.75-11.25,25-25,25h-508c-13.75,0-25-11.25-25-25V52c0-13.75,11.25-25,25-25h508c13.75,0,25,11.25,25,25Z"/>
        <circle class="cls-1" cx="1143" cy="459" r="68"/>
        <circle class="cls-1" cx="990" cy="306" r="68"/>
        <circle class="cls-1" cx="837" cy="153" r="68"/>
      </g>
    </g>
  </g>
</svg>