<?xml version="1.0" encoding="UTF-8"?>
<svg id="Layer_2" data-name="Layer 2" xmlns="http://www.w3.org/2000/svg" viewBox="0 0 1296.58 1296">
  <defs>
    <style>
      .cls-1 {
        fill: #f2ebeb;
      }

      .cls-2 {
        stroke-width: 20px;
      }

      .cls-2, .cls-3 {
        fill: none;
        stroke: #f2ebeb;
        stroke-miterlimit: 10;
      }

      .cls-3 {
        stroke-width: 40px;
      }
    </style>
  </defs>
  <g id="Icon">
    <g id="InspirationWhite">
      <path class="cls-1" d="M650.81,256.08c41.38,0,82.39,6.94,121.88,20.63,21.2,7.35,41.27,16.45,58.06,26.31,49.12,28.88,90.9,70.87,120.85,121.43,29.23,49.36,45.51,103.82,47.08,157.49.98,33.61-1.67,62.23-8.36,90.09-2.29,9.56-6.01,23.09-14.45,43.01-11.33,26.74-27.65,56.47-48.51,88.38-36.71,56.16-80.87,108.8-131.26,156.46l-12.51,11.84v238.8l-25.05,21.62-27.65,23.87h-156.87l-27.06-23.68-24.74-21.65c-.04-35.22-.06-70.91-.06-106.33,0-38.16.03-76.97.08-115.34l.03-19.19-14.95-12.03c-54.24-43.64-99.59-95.43-134.79-153.94-35.97-59.78-76.74-127.53-72.99-220.61,1.86-46.22,13.56-91.16,34.77-133.57,18.13-36.24,38.21-60.32,44.81-68.24,23.78-28.52,52.36-53.49,84.95-74.23,76.3-48.55,168.65-51.09,186.42-51.11h.33M650.81,216.08c-.13,0-.26,0-.4,0-12.56.01-118.49.53-207.82,57.36-38.74,24.65-69.65,52.92-94.2,82.36-19.43,23.3-83.93,103.98-88.82,225.81-4.2,104.35,40.87,179.99,78.69,242.84,48.2,80.11,105.3,133.35,143.99,164.48-.05,38.46-.08,76.92-.08,115.39,0,41.51.03,83.01.08,124.5,12.79,11.19,25.58,22.39,38.37,33.58l38.37,33.58h186.77l38.91-33.58c12.97-11.19,25.94-22.39,38.91-33.58v-239.89c64.86-61.35,108.74-120.02,137.25-163.64,51.51-78.8,63.99-125.65,68.38-143.94,7.77-32.37,10.48-65.11,9.45-100.59-3.55-121.55-74.3-245.58-187.64-312.23-15.41-9.06-91.81-52.46-200.21-52.46h0Z"/>
      <path class="cls-2" d="M677.3,997.17v-260.27c0-31.35,26.63-57.84,58.51-57.84s58.51,26.49,58.51,57.84-26.63,57.84-58.51,57.84h-175.54c-31.89,0-58.51-26.49-58.51-57.84s26.63-57.84,58.51-57.84,58.51,26.49,58.51,57.84v260.27"/>
      <line class="cls-2" x1="648.12" x2="648.12" y2="126"/>
      <line class="cls-2" x1="139.27" y1="235.08" x2="235.38" y2="317.94"/>
      <line class="cls-2" x1="1159.8" y1="235.08" x2="1063.68" y2="317.94"/>
      <line class="cls-2" x1="361.63" y1="63.49" x2="415.1" y2="177.9"/>
      <line class="cls-2" x1="938.21" y1="63.49" x2="884.74" y2="177.9"/>
      <line class="cls-2" x1="2.48" y1="494.17" x2="125.89" y2="525.81"/>
      <line class="cls-2" x1="1294.09" y1="494.17" x2="1170.68" y2="525.81"/>
      <line class="cls-3" x1="492.01" y1="987.53" x2="813.84" y2="987.53"/>
      <line class="cls-3" x1="492.01" y1="1074.29" x2="813.84" y2="1074.29"/>
      <line class="cls-3" x1="492.01" y1="1161.04" x2="813.84" y2="1161.04"/>
    </g>
  </g>
</svg>