<?xml version="1.0" encoding="UTF-8"?>
<svg id="Layer_2" data-name="Layer 2" xmlns="http://www.w3.org/2000/svg" viewBox="0 0 1296.58 1296">
  <defs>
    <style>
      .cls-1 {
        fill: #f2ebeb;
      }

      .cls-2 {
        fill: none;
        stroke: #f2ebeb;
        stroke-miterlimit: 10;
        stroke-width: 20px;
      }
    </style>
  </defs>
  <g id="Icon">
    <g id="Inspiration2White">
      <line class="cls-2" x1="648.12" x2="648.12" y2="126"/>
      <line class="cls-2" x1="139.27" y1="235.08" x2="235.38" y2="317.94"/>
      <line class="cls-2" x1="1159.8" y1="235.08" x2="1063.68" y2="317.94"/>
      <line class="cls-2" x1="361.63" y1="63.49" x2="415.1" y2="177.9"/>
      <line class="cls-2" x1="938.21" y1="63.49" x2="884.74" y2="177.9"/>
      <line class="cls-2" x1="2.48" y1="494.17" x2="125.89" y2="525.81"/>
      <line class="cls-2" x1="1294.09" y1="494.17" x2="1170.68" y2="525.81"/>
      <g>
        <rect class="cls-1" x="628.79" y="804.73" width="38.51" height="162.79"/>
        <path class="cls-1" d="M560.27,689.06c-26.3,0-48.51,21.91-48.51,47.84s22.22,47.84,48.51,47.84h48.51v-47.84c0-25.93-22.22-47.84-48.51-47.84Z"/>
        <path class="cls-1" d="M823.59,1007.53h-341.35c-.02,15.58-.02,31.17-.03,46.76h341.38v-46.76Z"/>
        <path class="cls-1" d="M482.22,1181.04c.01,15.93,0,31.86.03,47.79,12.79,11.19,25.58,22.39,38.37,33.58l38.37,33.58h186.77l38.91-33.58c12.97-11.19,25.94-22.39,38.91-33.58v-47.79h-341.37Z"/>
        <path class="cls-1" d="M482.18,1094.29c0,3.35,0,6.7,0,10.05,0,12.24.02,24.47.02,36.71h341.39v-46.76h-341.41Z"/>
        <path class="cls-1" d="M784.33,736.89c0-25.93-22.22-47.84-48.51-47.84s-48.51,21.91-48.51,47.84v47.84h48.51c26.3,0,48.51-21.91,48.51-47.84Z"/>
        <path class="cls-1" d="M1038.67,580.77c-3.55-121.55-74.3-245.58-187.64-312.23-15.43-9.07-92-52.57-200.61-52.46-12.56.01-118.49.53-207.82,57.36-38.74,24.65-69.65,52.92-94.2,82.36-19.43,23.3-83.93,103.98-88.82,225.81-4.2,104.35,40.87,179.99,78.69,242.84,38.55,64.07,82.78,110.94,118.75,143.07h151.78v-162.79h-48.51c-37.14,0-68.51-31.07-68.51-67.84s31.38-67.84,68.51-67.84,68.51,31.07,68.51,67.84v47.84h38.51v-47.84c0-36.77,31.38-67.84,68.51-67.84s68.51,31.07,68.51,67.84-31.38,67.84-68.51,67.84h-48.51v162.79h158.2c53-53.47,90.17-103.72,115.34-142.22,51.51-78.8,63.99-125.65,68.38-143.94,7.77-32.37,10.48-65.11,9.45-100.59Z"/>
      </g>
    </g>
  </g>
</svg>