<?xml version="1.0" encoding="UTF-8"?>
<svg id="Layer_2" data-name="Layer 2" xmlns="http://www.w3.org/2000/svg" viewBox="0 0 1296 1296">
  <defs>
    <style>
      .cls-1 {
        fill: #0d0c0c;
      }
    </style>
  </defs>
  <g id="Icon">
    <g id="Personer">
      <g id="Person">
        <circle class="cls-1" cx="286.5" cy="180" r="180"/>
        <path class="cls-1" d="M466.5,432c0-1.37.02-2.73.05-4.1,59.12,35.45,100.61,97.28,108.19,169.22-63.7-27.72-108.24-91.22-108.24-165.12Z"/>
        <path class="cls-1" d="M529.65,613.75c-49.66,10.5-95.29,35.12-132.03,71.87-50.06,50.05-77.62,116.6-77.62,187.38v171H0v-423c0-124.26,100.74-225,225-225h126c28.37,0,55.52,5.25,80.52,14.84-.68,6.99-1.02,14.05-1.02,21.16,0,57.7,22.47,111.94,63.26,152.74,11.04,11.04,23.07,20.74,35.89,29.01Z"/>
        <path class="cls-1" d="M576,648.17v395.83h-216v-171c0-121.25,95.91-220.1,216-224.83Z"/>
      </g>
      <g id="Person-2" data-name="Person">
        <circle class="cls-1" cx="1006.5" cy="180" r="180"/>
        <path class="cls-1" d="M721.41,595.72c7.84-70.13,47.92-130.53,105.08-166.02.01.77.01,1.53.01,2.3,0,72.68-43.07,135.29-105.09,163.72Z"/>
        <path class="cls-1" d="M936,873v171h-216v-395.83c120.09,4.73,216,103.58,216,224.83Z"/>
        <path class="cls-1" d="M1296,621v423h-320v-171c0-70.78-27.56-137.33-77.62-187.38-37.3-37.31-83.76-62.12-134.31-72.33,12.55-8.17,24.33-17.71,35.17-28.55,40.79-40.8,63.26-95.04,63.26-152.74,0-6.72-.31-13.4-.92-20.02,25.8-10.31,53.95-15.98,83.42-15.98h126c124.26,0,225,100.74,225,225Z"/>
      </g>
      <g id="Person-3" data-name="Person">
        <path class="cls-1" d="M936,873v423H360v-423c0-121.25,95.91-220.1,216-224.83,2.99-.11,5.99-.17,9-.17h126c3.01,0,6.01.06,9,.17,120.09,4.73,216,103.58,216,224.83Z"/>
        <path class="cls-1" d="M826.5,432c0,72.68-43.07,135.29-105.09,163.72-11.71,5.37-24.11,9.52-37.01,12.28-12.22,2.62-24.9,4-37.9,4s-25.68-1.38-37.9-4c-11.75-2.52-23.08-6.18-33.86-10.88-63.7-27.72-108.24-91.22-108.24-165.12,0-1.37.02-2.73.05-4.1,2.17-97.51,81.91-175.9,179.95-175.9s178.76,79.35,179.99,177.7c.01.77.01,1.53.01,2.3Z"/>
      </g>
    </g>
  </g>
</svg>