<?xml version="1.0" encoding="UTF-8"?>
<svg id="Layer_2" data-name="Layer 2" xmlns="http://www.w3.org/2000/svg" viewBox="0 0 1296 1296">
  <defs>
    <style>
      .cls-1 {
        fill: #f2ebeb;
      }
    </style>
  </defs>
  <g id="Icon">
    <g id="PlaceWhite">
      <path class="cls-1" d="M1256,40v1216H40V40h1216M1296,0H0v1296h1296V0h0Z"/>
      <path class="cls-1" d="M628,344v896h-176V344h176M648,324h-216v936h216V324h0Z"/>
      <path class="cls-1" d="M196,272v968H56V272h140M216,252H36v1008h180V252h0Z"/>
      <path class="cls-1" d="M409.52,418.48v819.04h-171.04V418.48h171.04M432,396h-216v864h216V396h0Z"/>
      <path class="cls-1" d="M840.49,464.86l186.96,726.37-167.93,43.22-186.96-726.37,167.93-43.22M855.58,439.32l-208.56,53.68,197.42,767,208.56-53.68-197.42-767h0Z"/>
    </g>
  </g>
</svg>