<svg width="14" height="15" viewBox="0 0 14 15" fill="none" xmlns="http://www.w3.org/2000/svg">
<path d="M12.9111 14.5289L8.01111 9.62893C7.62222 9.94004 7.175 10.1863 6.66945 10.3678C6.16389 10.5493 5.62593 10.64 5.05556 10.64C3.64259 10.64 2.44689 10.1506 1.46844 9.1716C0.49 8.19264 0.00051893 6.99693 4.11523e-07 5.58449C-0.000518107 4.17204 0.488963 2.97634 1.46844 1.99738C2.44793 1.01841 3.64363 0.528931 5.05556 0.528931C6.46748 0.528931 7.66345 1.01841 8.64345 1.99738C9.62345 2.97634 10.1127 4.17204 10.1111 5.58449C10.1111 6.15486 10.0204 6.69282 9.83889 7.19838C9.65741 7.70393 9.41111 8.15115 9.1 8.54004L14 13.44L12.9111 14.5289ZM5.05556 9.08449C6.02778 9.08449 6.8543 8.74434 7.53511 8.06404C8.21593 7.38375 8.55608 6.55723 8.55556 5.58449C8.55504 4.61175 8.21489 3.78549 7.53511 3.10571C6.85533 2.42593 6.02882 2.08552 5.05556 2.08449C4.0823 2.08345 3.25604 2.42386 2.57678 3.10571C1.89752 3.78756 1.55711 4.61382 1.55556 5.58449C1.554 6.55515 1.89441 7.38167 2.57678 8.06404C3.25915 8.74641 4.08541 9.08656 5.05556 9.08449Z" fill="#0D0C0C"/>
</svg>
