<?xml version="1.0" encoding="UTF-8"?>
<svg id="Layer_2" data-name="Layer 2" xmlns="http://www.w3.org/2000/svg" viewBox="0 0 1296 1296">
  <defs>
    <style>
      .cls-1 {
        fill: none;
        stroke: #0d0c0c;
        stroke-miterlimit: 10;
        stroke-width: 40px;
      }

      .cls-2 {
        fill: #0d0c0c;
      }
    </style>
  </defs>
  <g id="Icon">
    <g id="Tid">
      <path class="cls-2" d="M648,40c82.1,0,161.72,16.07,236.65,47.76,36.02,15.23,70.76,34.09,103.26,56.05,32.2,21.76,62.49,46.74,90.01,74.27,27.52,27.52,52.51,57.81,74.27,90.01,21.96,32.5,40.82,67.24,56.05,103.26,31.69,74.93,47.76,154.55,47.76,236.65s-16.07,161.72-47.76,236.65c-15.23,36.02-34.09,70.76-56.05,103.26-21.76,32.2-46.74,62.49-74.27,90.01-27.52,27.52-57.81,52.51-90.01,74.27-32.5,21.96-67.24,40.82-103.26,56.05-74.93,31.69-154.55,47.76-236.65,47.76s-161.72-16.07-236.65-47.76c-36.02-15.23-70.76-34.09-103.26-56.05-32.2-21.76-62.49-46.74-90.01-74.27-27.52-27.52-52.51-57.81-74.27-90.01-21.96-32.5-40.82-67.24-56.05-103.26-31.69-74.93-47.76-154.55-47.76-236.65s16.07-161.72,47.76-236.65c15.23-36.02,34.09-70.76,56.05-103.26,21.76-32.2,46.74-62.49,74.27-90.01,27.52-27.52,57.81-52.51,90.01-74.27,32.5-21.96,67.24-40.82,103.26-56.05,74.93-31.69,154.55-47.76,236.65-47.76M648,0C290.12,0,0,290.12,0,648s290.12,648,648,648,648-290.12,648-648S1005.88,0,648,0h0Z"/>
      <circle class="cls-2" cx="648" cy="648" r="72"/>
      <line class="cls-1" x1="648" y1="648" x2="270" y2="360"/>
      <line class="cls-1" x1="648" y1="648" x2="936" y2="504"/>
      <line class="cls-1" x1="648" y1="9" x2="648" y2="144"/>
      <line class="cls-1" x1="1287" y1="648" x2="1152" y2="648"/>
      <line class="cls-1" x1="144" y1="648" x2="9" y2="648"/>
      <line class="cls-1" x1="648" y1="1287" x2="648" y2="1152"/>
    </g>
  </g>
</svg>