<svg width="98" height="73" viewBox="0 0 98 73" fill="none" xmlns="http://www.w3.org/2000/svg">
<path d="M48.2644 4.20347C48.2644 4.73652 48.6965 5.16864 49.2296 5.16864C49.7626 5.16864 50.1948 4.73652 50.1948 4.20347H48.2644ZM44.645 0.101476C44.112 0.101476 43.6798 0.533599 43.6798 1.06665C43.6798 1.5997 44.112 2.03182 44.645 2.03182V0.101476ZM53.8142 2.03182C54.3472 2.03182 54.7793 1.5997 54.7793 1.06665C54.7793 0.533599 54.3472 0.101476 53.8142 0.101476V2.03182ZM50.1948 4.20347V1.06665H48.2644V4.20347H50.1948ZM49.2296 0.101476H44.645V2.03182H49.2296V0.101476ZM49.2296 2.03182H53.8142V0.101476H49.2296V2.03182Z" fill="#7E7777"/>
<path d="M49.0182 55.2232V51.8451" stroke="#7E7777" stroke-width="7.72139"/>
<path d="M8.23962 55.2231H91.7272C91.7272 55.2231 96.6468 59.9324 97.7595 63.9097V72.5963H0.759521V63.9097C2.10104 59.6387 8.23962 55.2231 8.23962 55.2231Z" fill="#4E311D"/>
<path d="M37.4361 12.7555H62.7719C71.389 14.9505 76.2499 17.3902 83.0406 23.1311C90.8654 29.7463 92.8456 44.5569 91.2446 44.6062C92.4221 47.814 92.9506 49.4606 93.4162 51.845H5.10278C5.70672 48.5061 6.3592 46.8929 8.2396 44.6062C6.82907 44.4364 8.99791 29.5926 16.6849 23.1311C23.6205 17.3012 28.6402 14.9286 37.4361 12.7555Z" fill="#B3AEAE"/>
<path d="M54.7794 9.51191C54.7794 11.5159 54.2968 13.6139 54.2968 13.6139H44.1625C44.1625 13.6139 43.6799 12.577 43.6799 9.51191C43.6799 6.44687 46.1646 3.96216 49.2297 3.96216C52.2947 3.96216 54.7794 6.44687 54.7794 9.51191Z" fill="#B3AEAE"/>
</svg>
