<?xml version="1.0" encoding="UTF-8"?>
<svg id="Layer_2" data-name="Layer 2" xmlns="http://www.w3.org/2000/svg" viewBox="0 0 500 377">
  <defs>
    <style>
      .cls-1 {
        fill: none;
      }

      .cls-1, .cls-2, .cls-3 {
        stroke-width: 0px;
      }

      .cls-4 {
        fill: #fbfae1;
        stroke: #808285;
        stroke-miterlimit: 10;
        stroke-width: .98px;
      }

      .cls-2 {
        fill: #0e0d0d;
      }

      .cls-3 {
        fill: #c49a6c;
      }
    </style>
  </defs>
  <g id="Rum">
    <g>
      <g id="Skål">
        <rect class="cls-4" x="337.21" y="236.2" width="19.24" height="74.97" transform="translate(201.75 -143.62) rotate(32.55)"/>
        <rect class="cls-4" x="204.81" y="240.53" width="19.24" height="74.97" transform="translate(141.24 -65.37) rotate(25.61)"/>
        <rect class="cls-4" x="238.83" y="230.51" width="19.24" height="74.97" transform="translate(-109.66 195.15) rotate(-35.67)"/>
        <rect class="cls-4" x="171.77" y="236.78" width="19.24" height="74.97" transform="translate(-100.57 105.08) rotate(-25.56)"/>
        <path class="cls-4" d="m202.02,301.46h-19.24c-4.58-7.12-5.82-13.11-6.18-17.02-1.36-14.92,8.12-22.43,8.88-39.46.36-8.1-1.41-14.67-2.7-18.5h19.24c1.71,3.63,3.88,9.37,4.18,16.52.64,15.47-8.11,22.67-8.38,38.47-.08,4.67.55,11.54,4.2,19.98Z"/>
        <path class="cls-4" d="m295.36,311.17h-19.24c-2.15-9.9-4-22.54-4.02-37.24-.02-14.92,1.85-27.73,4.02-37.73h19.24c-2.32,9.5-4.44,22.01-4.51,36.74-.07,15.41,2.12,28.45,4.51,38.22Z"/>
        <rect class="cls-4" x="290.1" y="226.49" width="19.24" height="74.97" transform="translate(-49 69.27) rotate(-12.19)"/>
        <path class="cls-4" d="m339.81,235.44l-18.26-6.06c-6.59,5.32-9.65,10.61-11.22,14.21-5.98,13.73.64,23.84-4,40.25-2.21,7.8-5.96,13.48-8.39,16.7,6.09,2.02,12.17,4.04,18.26,6.06,2.77-2.91,6.64-7.67,9.17-14.37,5.48-14.48-.56-24.07,4.16-39.15,1.39-4.46,4.15-10.78,10.28-17.64Z"/>
        <path class="cls-4" d="m224.05,293.14l18.14,6.4c5.32-8.63,11.27-19.93,16.17-33.78,4.98-14.06,7.48-26.77,8.76-36.92-6.05-2.13-12.09-4.26-18.14-6.4-.97,9.73-3.13,22.24-7.96,36.15-5.06,14.56-11.46,26.13-16.96,34.55Z"/>
        <rect class="cls-4" x="337.21" y="242.4" width="19.24" height="74.97" transform="translate(-86.81 177.01) rotate(-25.56)"/>
        <path class="cls-3" d="m388.27,252.03c0,50.17-21.25,94.4-53.57,120.45h-135.17c-32.31-26.05-53.57-70.28-53.57-120.45h242.3Z"/>
        <path class="cls-2" d="m282.36,284.19c3.79,3.29,5.68,7.93,5.68,13.92,0,5.52-1.81,9.82-5.42,12.91-3.61,3.08-8.38,4.66-14.32,4.71l-.44,6.61h-13.22l-.44-16.38h5.29c4.52,0,7.97-.56,10.35-1.67s3.57-3.14,3.57-6.08c0-2.05-.56-3.67-1.67-4.84-1.12-1.17-2.67-1.76-4.67-1.76-2.12,0-3.76.6-4.94,1.81-1.17,1.2-1.76,2.83-1.76,4.89h-14.18c-.12-3.58.63-6.81,2.25-9.69,1.61-2.88,4.02-5.15,7.22-6.83,3.2-1.67,7.06-2.51,11.58-2.51,6.28,0,11.32,1.65,15.11,4.93Zm-27.4,58.72c-1.67-1.56-2.51-3.48-2.51-5.77s.84-4.32,2.51-5.9c1.67-1.59,3.83-2.38,6.48-2.38s4.71.79,6.39,2.38,2.51,3.56,2.51,5.9-.84,4.21-2.51,5.77-3.8,2.33-6.39,2.33-4.8-.78-6.48-2.33Z"/>
      </g>
      <rect class="cls-1" width="500" height="377"/>
    </g>
  </g>
</svg>