<?xml version="1.0" encoding="UTF-8"?>
<svg id="Layer_2" data-name="Layer 2" xmlns="http://www.w3.org/2000/svg" viewBox="0 0 500 628">
  <defs>
    <style>
      .cls-1, .cls-2, .cls-3, .cls-4 {
        fill: none;
      }

      .cls-1, .cls-5, .cls-6, .cls-7, .cls-8 {
        stroke-width: 0px;
      }

      .cls-2 {
        stroke-width: .66px;
      }

      .cls-2, .cls-9, .cls-3, .cls-4 {
        stroke-miterlimit: 10;
      }

      .cls-2, .cls-3 {
        stroke: #ed1c24;
      }

      .cls-10 {
        font-family: ChalkboardSE-Light, 'Chalkboard SE';
        font-size: 36.76px;
        font-weight: 300;
      }

      .cls-10, .cls-11, .cls-12 {
        fill: #0e0d0d;
      }

      .cls-11 {
        font-family: BradleyHandITCTT-Bold, 'Bradley Hand';
        font-size: 34.14px;
        font-weight: 700;
      }

      .cls-9 {
        fill: #c49a6c;
        stroke: #808285;
        stroke-width: 7.88px;
      }

      .cls-12 {
        font-family: Poppins-Regular, Poppins;
        font-size: 67.61px;
      }

      .cls-3, .cls-4 {
        stroke-width: .39px;
      }

      .cls-4 {
        stroke: #0480b0;
      }

      .cls-5 {
        fill: #aaa676;
      }

      .cls-6 {
        fill: #fdf6b0;
      }

      .cls-7 {
        fill: #f1ded6;
      }

      .cls-8 {
        fill: #fefce7;
      }
    </style>
  </defs>
  <g id="Rum">
    <g>
      <g id="Tavle">
        <g id="Opslagstavle">
          <rect class="cls-9" x="5" y="6.71" width="456.85" height="421.1"/>
        </g>
        <g id="Notepapir">
          <rect class="cls-8" x="68.43" y="46.58" width="186.67" height="264.01" transform="translate(-50.53 64.61) rotate(-19.6)"/>
          <line class="cls-2" x1="145.74" y1="322.16" x2="57.89" y2="75.45"/>
          <line class="cls-3" x1="140.04" y1="306.15" x2="287.18" y2="253.75"/>
          <line class="cls-3" x1="68.59" y1="105.5" x2="215.73" y2="53.1"/>
          <line class="cls-4" x1="72.56" y1="116.65" x2="219.7" y2="64.25"/>
          <line class="cls-4" x1="136.07" y1="295" x2="283.21" y2="242.61"/>
          <line class="cls-4" x1="76.53" y1="127.79" x2="223.67" y2="75.4"/>
          <line class="cls-4" x1="80.5" y1="138.94" x2="227.64" y2="86.55"/>
          <line class="cls-4" x1="84.47" y1="150.09" x2="231.61" y2="97.69"/>
          <line class="cls-4" x1="88.44" y1="161.23" x2="235.58" y2="108.84"/>
          <line class="cls-4" x1="92.41" y1="172.38" x2="239.55" y2="119.99"/>
          <line class="cls-4" x1="96.38" y1="183.53" x2="243.52" y2="131.13"/>
          <line class="cls-4" x1="116.22" y1="239.27" x2="263.36" y2="186.87"/>
          <line class="cls-4" x1="120.19" y1="250.41" x2="267.33" y2="198.02"/>
          <line class="cls-4" x1="124.16" y1="261.56" x2="271.3" y2="209.17"/>
          <line class="cls-4" x1="128.13" y1="272.71" x2="275.27" y2="220.31"/>
          <line class="cls-4" x1="132.1" y1="283.85" x2="279.24" y2="231.46"/>
          <line class="cls-4" x1="112.25" y1="228.12" x2="259.39" y2="175.72"/>
          <line class="cls-4" x1="100.35" y1="194.68" x2="247.48" y2="142.28"/>
          <line class="cls-4" x1="104.31" y1="205.82" x2="251.45" y2="153.43"/>
          <line class="cls-4" x1="108.28" y1="216.97" x2="255.42" y2="164.58"/>
          <text class="cls-11" transform="translate(87.36 148.77) rotate(-19.44)"><tspan x="0" y="0">V</tspan></text>
          <text class="cls-11" transform="translate(108.61 141.27) rotate(-19.44)"><tspan x="0" y="0">e</tspan></text>
          <text class="cls-11" transform="translate(120.89 136.94) rotate(-19.44)"><tspan x="0" y="0">n</tspan></text>
          <text class="cls-11" transform="translate(142.62 129.27) rotate(-19.44)"><tspan x="0" y="0">t</tspan></text>
          <text class="cls-11" transform="translate(154.06 125.23) rotate(-19.44)"><tspan x="0" y="0">e</tspan></text>
          <text class="cls-11" transform="translate(166.3 120.91) rotate(-19.44)"><tspan x="0" y="0">r</tspan></text>
          <text class="cls-11" transform="translate(179.01 116.42) rotate(-19.44)"><tspan x="0" y="0"> </tspan></text>
          <text class="cls-11" transform="translate(187.29 113.5) rotate(-19.44)"><tspan x="0" y="0">d</tspan></text>
          <text class="cls-11" transform="translate(205.7 107.01) rotate(-19.44)"><tspan x="0" y="0">u</tspan></text>
          <g>
            <text class="cls-11" transform="translate(118.89 175.51) rotate(-19.6)"><tspan x="0" y="0">p</tspan></text>
            <text class="cls-11" transform="translate(133.94 170.15) rotate(-19.6)"><tspan x="0" y="0">å</tspan></text>
            <text class="cls-11" transform="translate(150.53 164.24) rotate(-19.6)"><tspan x="0" y="0"> </tspan></text>
            <text class="cls-11" transform="translate(158.73 161.33) rotate(-19.6)"><tspan x="0" y="0">d</tspan></text>
            <text class="cls-11" transform="translate(176.96 154.83) rotate(-19.6)"><tspan x="0" y="0">i</tspan></text>
            <text class="cls-11" transform="translate(187.53 151.07) rotate(-19.6)"><tspan x="0" y="0">t</tspan></text>
          </g>
          <g>
            <text class="cls-11" transform="translate(121.16 212.21) rotate(-19.6)"><tspan x="0" y="0">ø</tspan></text>
            <text class="cls-11" transform="translate(138.96 205.87) rotate(-19.6)"><tspan x="0" y="0">n</tspan></text>
            <text class="cls-11" transform="translate(160.51 198.19) rotate(-19.6)"><tspan x="0" y="0">s</tspan></text>
            <text class="cls-11" transform="translate(175.11 193) rotate(-19.6)"><tspan x="0" y="0">k</tspan></text>
            <text class="cls-11" transform="translate(195.23 185.83) rotate(-19.6)"><tspan x="0" y="0">e</tspan></text>
            <text class="cls-11" transform="translate(207.36 181.51) rotate(-19.6)"><tspan x="0" y="0">d</tspan></text>
            <text class="cls-11" transform="translate(225.6 175.02) rotate(-19.6)"><tspan x="0" y="0">e</tspan></text>
          </g>
          <g>
            <text class="cls-11" transform="translate(167.97 233.4) rotate(-19.6)"><tspan x="0" y="0">s</tspan></text>
            <text class="cls-11" transform="translate(182.57 228.2) rotate(-19.6)"><tspan x="0" y="0">p</tspan></text>
            <text class="cls-11" transform="translate(197.63 222.84) rotate(-19.6)"><tspan x="0" y="0">i</tspan></text>
            <text class="cls-11" transform="translate(208.17 219.08) rotate(-19.6)"><tspan x="0" y="0">l</tspan></text>
            <text class="cls-11" transform="translate(218.69 215.34) rotate(-19.6)"><tspan x="0" y="0">?</tspan></text>
          </g>
        </g>
        <g>
          <rect class="cls-7" x="168.13" y="149.8" width="130.6" height="369.4" transform="translate(-101.07 567.93) rotate(-90)"/>
          <text class="cls-12" transform="translate(74.7 359.21) scale(.88 1)"><tspan x="0" y="0">Icebreaker</tspan></text>
        </g>
        <g id="Postit">
          <polygon class="cls-6" points="298.42 46.37 248.48 160.61 341.81 201.41 371.9 189.63 412.69 96.32 298.42 46.37"/>
          <text class="cls-10" transform="translate(290.07 119.31) rotate(23.61)"><tspan x="0" y="0">D</tspan></text>
          <text class="cls-10" transform="translate(311.52 128.69) rotate(23.61)"><tspan x="0" y="0">a</tspan></text>
          <text class="cls-10" transform="translate(327.27 135.57) rotate(23.61)"><tspan x="0" y="0">t</tspan></text>
          <text class="cls-10" transform="translate(341.01 141.58) rotate(23.61)"><tspan x="0" y="0">e</tspan></text>
          <text class="cls-10" transform="translate(358.72 149.32) rotate(23.61)"><tspan x="0" y="0">?</tspan></text>
          <polygon class="cls-5" points="371.9 189.63 350.97 180.48 341.81 201.41 371.9 189.63"/>
        </g>
      </g>
      <rect class="cls-1" width="500" height="628"/>
    </g>
  </g>
</svg>