<?xml version="1.0" encoding="UTF-8"?>
<svg id="Layer_2" data-name="Layer 2" xmlns="http://www.w3.org/2000/svg" viewBox="0 0 49.75 93.23">
  <defs>
    <style>
      .cls-1 {
        fill: #0e0d0d;
        opacity: .1;
      }

      .cls-1, .cls-2, .cls-3, .cls-4, .cls-5, .cls-6, .cls-7 {
        stroke-width: 0px;
      }

      .cls-2 {
        fill: #188140;
      }

      .cls-3 {
        fill: #134d26;
      }

      .cls-4 {
        fill: #ddecc4;
      }

      .cls-5 {
        fill: #b4d684;
      }

      .cls-6 {
        fill: #996239;
      }

      .cls-7 {
        fill: #fff;
      }
    </style>
  </defs>
  <g id="Rum">
    <g id="Plante_5" data-name="Plante 5">
      <g>
        <g>
          <path class="cls-2" d="m32.37,39.71c0,.55,0,1.1-.01,1.65,0,.41,0,.82-.02,1.23-.02.89-.05,1.78-.09,2.66,0,.28-.02.57-.04.86-.01.24-.02.49-.04.74-.05.93-.12,1.86-.19,2.78-.03.47-.07.91-.12,1.36-.14,1.66-.33,3.28-.54,4.87-.05.38-.1.77-.15,1.15-.41,2.87-.91,5.63-1.51,8.29-.08.38-.17.76-.26,1.13-.56,2.38-1.2,4.67-1.91,6.85-.08.26-.16.51-.25.76-.19.56-.38,1.13-.58,1.67-.2.54-.4,1.07-.6,1.59-.15.39-.31.77-.46,1.15h0c-.14.34-.27.66-.41.97-.14-.31-.27-.64-.41-.96h0c-.15-.39-.31-.77-.46-1.16-.21-.52-.4-1.05-.6-1.59-.2-.54-.39-1.1-.58-1.67-.09-.25-.17-.5-.25-.76-.71-2.18-1.35-4.46-1.91-6.85-.09-.37-.18-.75-.26-1.13-.59-2.65-1.1-5.42-1.51-8.29-.05-.38-.11-.77-.15-1.15-.21-1.59-.39-3.22-.54-4.87-.04-.45-.08-.9-.12-1.36-.07-.92-.13-1.85-.19-2.78-.01-.25-.02-.5-.04-.74-.01-.28-.03-.57-.04-.86-.04-.89-.07-1.78-.09-2.66,0-.41-.02-.82-.02-1.23,0-.54-.01-1.09-.01-1.65s0-1.1.01-1.65c0-.41,0-.82.02-1.23.02-.89.05-1.78.09-2.66,0-.28.02-.57.04-.86.01-.24.02-.49.04-.74.05-.93.12-1.86.19-2.78.03-.47.07-.91.12-1.36.14-1.66.33-3.28.54-4.87.05-.38.1-.77.15-1.15.41-2.87.91-5.63,1.51-8.29.08-.38.17-.76.26-1.13.56-2.38,1.2-4.67,1.91-6.85.08-.26.16-.51.25-.76.19-.56.38-1.13.58-1.67.2-.54.4-1.07.6-1.59.15-.39.31-.77.46-1.15h0c.14-.34.27-.66.41-.97.14.31.27.64.41.96h0c.15.39.31.77.46,1.16.21.52.4,1.05.6,1.59.2.54.39,1.1.58,1.67.09.25.17.5.25.76.71,2.18,1.35,4.46,1.91,6.85.09.37.18.75.26,1.13.59,2.65,1.1,5.42,1.51,8.29.05.38.11.77.15,1.15.21,1.59.39,3.22.54,4.87.04.45.08.9.12,1.36.07.92.13,1.85.19,2.78.01.25.02.5.04.74.01.28.03.57.04.86.04.89.07,1.78.09,2.66,0,.41.02.82.02,1.23,0,.54.01,1.09.01,1.65Z"/>
          <path class="cls-4" d="m19.7,38.19c0,.5,0,1.01,0,1.52s0,1.02,0,1.52c0,.25,0,.49,0,.74,0,.49.01.96.03,1.44,0,.52.03,1.03.05,1.54.02.7.05,1.41.09,2.1.01.25.03.51.04.75.03.56.07,1.13.11,1.69,0,.04,0,.08,0,.11.04.57.08,1.14.13,1.7.07.83.14,1.66.23,2.48.04.43.09.87.13,1.3.05.39.09.77.14,1.15.19,1.62.42,3.21.67,4.78.1.63.2,1.25.31,1.85,0,.03,0,.06.01.1.11.63.23,1.25.35,1.86.12.63.24,1.25.37,1.86,0,.02,0,.03,0,.05.12.53.23,1.06.35,1.59.05.21.09.41.14.62.11.45.21.9.32,1.34.14.6.3,1.18.45,1.75.11.39.21.78.32,1.16.06.24.13.48.2.7.15.52.3,1.03.46,1.54.18.61.37,1.2.57,1.8v2.19c-.14-.31-.27-.64-.41-.96h0c-4.19-10.15-6.76-23.78-6.76-38.75S20.59,11.11,24.78.97h0c.14-.34.27-.66.41-.97v2.19c-.2.6-.39,1.19-.57,1.8-.16.51-.31,1.02-.46,1.54-.07.23-.14.47-.2.7-.11.38-.21.77-.32,1.16-.15.57-.31,1.16-.45,1.75-.11.44-.22.89-.32,1.34-.05.21-.1.41-.14.62-.12.53-.24,1.06-.35,1.59,0,.02,0,.03,0,.05-.13.62-.25,1.23-.37,1.86-.12.62-.24,1.23-.35,1.86,0,.03-.01.06-.01.1-.11.61-.21,1.22-.31,1.85-.25,1.57-.47,3.15-.67,4.78-.05.38-.09.76-.14,1.15-.04.43-.09.87-.13,1.3-.04.41-.08.82-.12,1.23,0,.04,0,.09-.01.13-.03.37-.07.74-.1,1.12-.05.56-.09,1.13-.13,1.7,0,.03,0,.06,0,.11-.04.56-.07,1.13-.11,1.69-.01.24-.03.5-.04.75-.04.69-.07,1.4-.09,2.1-.02.51-.04,1.02-.05,1.54-.01.48-.02.95-.03,1.44,0,.25,0,.49,0,.74Z"/>
          <path class="cls-3" d="m32.37,39.71c0,.55,0,1.1-.01,1.65,0,.41,0,.82-.02,1.23-.02.89-.05,1.78-.09,2.66,0,.28-.02.57-.04.86-.01.24-.02.49-.04.74-.05.93-.12,1.86-.19,2.78-.03.47-.07.91-.12,1.36-.14,1.66-.33,3.28-.54,4.87-.05.38-.1.77-.15,1.15-.41,2.87-.91,5.63-1.51,8.29-.08.38-.17.76-.26,1.13-.56,2.38-1.2,4.67-1.91,6.85-.08.26-.16.51-.25.76-.19.56-.38,1.13-.58,1.67-.2.54-.4,1.07-.6,1.59-.15.39-.31.77-.46,1.15h0c-.14.34-.27.66-.41.97V0c.14.31.27.64.41.96h0c.15.39.31.77.46,1.16.21.52.4,1.05.6,1.59.2.54.39,1.1.58,1.67.09.25.17.5.25.76.71,2.18,1.35,4.46,1.91,6.85.09.37.18.75.26,1.13.59,2.65,1.1,5.42,1.51,8.29.05.38.11.77.15,1.15.21,1.59.39,3.22.54,4.87.04.45.08.9.12,1.36.07.92.13,1.85.19,2.78.01.25.02.5.04.74.01.28.03.57.04.86.04.89.07,1.78.09,2.66,0,.41.02.82.02,1.23,0,.54.01,1.09.01,1.65Z"/>
          <path class="cls-5" d="m32.37,39.71c0,.55,0,1.1-.01,1.65,0,.41,0,.82-.02,1.23-.02.89-.05,1.78-.09,2.66,0,.28-.02.57-.04.86-.01.24-.02.49-.04.74-.05.93-.12,1.86-.19,2.78-.03.47-.07.91-.12,1.36-.14,1.66-.33,3.28-.54,4.87-.05.38-.1.77-.15,1.15-.41,2.87-.91,5.63-1.51,8.29-.08.38-.17.76-.26,1.13-.56,2.38-1.2,4.67-1.91,6.85-.08.26-.16.51-.25.76-.19.56-.38,1.13-.58,1.67-.2.54-.4,1.07-.6,1.59-.15.39-.31.77-.46,1.15h0c-.14.34-.27.66-.41.97v-2.19c.2-.6.39-1.19.57-1.8.16-.51.31-1.02.46-1.54.07-.23.14-.47.2-.7.11-.38.21-.77.32-1.16.15-.57.31-1.16.45-1.75.11-.44.22-.89.32-1.34.05-.21.1-.41.14-.62.12-.53.24-1.06.35-1.59,0-.02,0-.03,0-.05.13-.62.25-1.23.37-1.86.12-.62.24-1.23.35-1.86,0-.03.01-.06.01-.1.11-.61.21-1.22.31-1.85.25-1.57.47-3.15.67-4.78.05-.38.09-.76.14-1.15.04-.43.09-.87.13-1.3.04-.41.08-.82.12-1.23,0-.04,0-.09.01-.13.03-.37.07-.74.1-1.12.05-.56.09-1.13.13-1.7,0-.03,0-.06,0-.11.04-.56.07-1.13.11-1.69.01-.24.03-.5.04-.75.04-.69.07-1.4.09-2.1.02-.51.04-1.02.05-1.54.01-.48.02-.95.03-1.44,0-.25,0-.49,0-.74,0-.5,0-1.01,0-1.52s0-1.02,0-1.52c0-.25,0-.49,0-.74,0-.49-.01-.96-.03-1.44,0-.52-.03-1.03-.05-1.54-.02-.7-.05-1.41-.09-2.1-.01-.25-.03-.51-.04-.75-.03-.56-.07-1.13-.11-1.69,0-.04,0-.08,0-.11-.04-.57-.08-1.14-.13-1.7-.07-.83-.14-1.66-.23-2.48-.04-.43-.09-.87-.13-1.3-.05-.39-.09-.77-.14-1.15-.19-1.62-.42-3.21-.67-4.78-.1-.63-.2-1.25-.31-1.85,0-.03,0-.06-.01-.1-.11-.63-.23-1.25-.35-1.86-.12-.63-.24-1.25-.37-1.86,0-.02,0-.03,0-.05-.12-.53-.23-1.06-.35-1.59-.05-.21-.09-.41-.14-.62-.11-.45-.21-.9-.32-1.34-.14-.6-.3-1.18-.45-1.75-.11-.39-.21-.78-.32-1.16-.06-.24-.13-.48-.2-.7-.15-.52-.3-1.03-.46-1.54-.18-.61-.37-1.2-.57-1.8V0c.14.31.27.64.41.96h0c.15.39.31.77.46,1.16.21.52.4,1.05.6,1.59.2.54.39,1.1.58,1.67.09.25.17.5.25.76.71,2.18,1.35,4.46,1.91,6.85.09.37.18.75.26,1.13.59,2.65,1.1,5.42,1.51,8.29.05.38.11.77.15,1.15.21,1.59.39,3.22.54,4.87.04.45.08.9.12,1.36.07.92.13,1.85.19,2.78.01.25.02.5.04.74.01.28.03.57.04.86.04.89.07,1.78.09,2.66,0,.41.02.82.02,1.23,0,.54.01,1.09.01,1.65Z"/>
        </g>
        <g>
          <path class="cls-2" d="m18.39,49.6c.16.38.32.76.47,1.13.12.28.23.57.34.85.24.61.48,1.23.71,1.85.08.2.15.4.22.6.06.17.13.34.19.51.23.65.46,1.31.68,1.96.11.33.22.64.32.97.39,1.17.74,2.34,1.06,3.48.08.27.16.55.23.83.56,2.08,1.03,4.1,1.41,6.08.06.28.11.56.16.84.32,1.78.57,3.52.73,5.21.02.2.04.39.05.59.04.44.08.88.11,1.3.03.43.05.84.07,1.26.01.31.02.61.03.91h0c0,.27,0,.53,0,.78-.18-.18-.36-.36-.55-.55h0c-.21-.22-.42-.44-.63-.67-.28-.3-.57-.61-.85-.92-.28-.32-.57-.65-.86-.98-.13-.15-.26-.29-.39-.45-1.09-1.29-2.17-2.68-3.22-4.16-.17-.23-.33-.46-.49-.7-1.16-1.65-2.28-3.4-3.38-5.25-.14-.24-.29-.5-.43-.74-.6-1.03-1.19-2.09-1.76-3.19-.16-.3-.31-.59-.47-.9-.31-.61-.62-1.23-.93-1.85-.08-.17-.16-.33-.24-.49-.09-.19-.18-.38-.27-.57-.28-.6-.56-1.2-.83-1.8-.13-.28-.25-.56-.37-.84-.16-.37-.33-.74-.49-1.12s-.32-.76-.47-1.13c-.12-.28-.23-.57-.34-.85-.24-.61-.48-1.23-.71-1.85-.08-.2-.15-.4-.22-.6-.06-.17-.13-.34-.19-.51-.23-.65-.46-1.31-.68-1.96-.11-.33-.22-.64-.32-.97-.39-1.17-.74-2.34-1.06-3.48-.08-.27-.16-.55-.23-.83-.56-2.08-1.03-4.1-1.41-6.08-.06-.28-.11-.56-.16-.84-.32-1.78-.57-3.52-.73-5.21-.02-.2-.04-.39-.05-.59-.04-.44-.08-.88-.11-1.3-.03-.43-.05-.84-.07-1.26-.01-.31-.02-.61-.03-.91h0c0-.27,0-.53,0-.78.18.18.36.36.55.55h0c.21.22.42.44.63.67.28.3.57.61.85.92.28.32.57.65.86.98.13.15.26.29.39.45,1.09,1.29,2.17,2.68,3.22,4.16.17.23.33.46.49.7,1.16,1.65,2.28,3.4,3.38,5.25.14.24.29.5.43.74.6,1.03,1.19,2.09,1.76,3.19.16.3.31.59.47.9.31.61.62,1.23.93,1.85.08.17.16.33.24.49.09.19.18.38.27.57.28.6.56,1.2.83,1.8.13.28.25.56.37.84.16.37.33.74.49,1.12Z"/>
          <path class="cls-4" d="m9.69,52.05c.14.34.28.69.43,1.04s.3.7.44,1.03c.07.17.14.33.22.5.14.33.29.66.44.98.16.35.32.7.48,1.04.22.48.44.95.67,1.41.08.17.17.34.24.5.18.38.37.75.56,1.13.01.03.03.05.04.07.19.38.38.76.58,1.13.28.55.57,1.09.86,1.63.15.28.31.57.46.85.14.25.28.5.42.75.59,1.06,1.2,2.08,1.82,3.08.25.4.49.8.74,1.18,0,.02.03.04.04.06.25.4.51.79.76,1.18.26.4.52.78.78,1.17,0,.01.02.02.02.03.23.33.46.66.69.99.09.13.18.26.27.38.2.28.4.56.6.83.27.37.54.73.8,1.08.18.24.36.48.54.71.11.15.22.29.33.43.25.31.49.62.74.93.29.36.59.72.89,1.07l.63,1.5c-.18-.18-.36-.36-.55-.55h0c-5.67-5.79-11.28-14.4-15.61-24.64-4.33-10.24-6.59-20.27-6.79-28.36h0c0-.27,0-.53,0-.78l.63,1.5c.04.46.09.92.15,1.39.04.39.09.78.15,1.18.02.18.04.36.07.54.04.29.08.58.13.88.07.44.13.88.21,1.32.06.33.12.67.18,1.01.03.16.06.31.08.46.08.4.15.79.23,1.19,0,.01,0,.02,0,.04.09.46.19.91.29,1.38.1.46.2.91.31,1.37,0,.02,0,.05.02.07.1.45.22.9.33,1.35.29,1.14.6,2.29.95,3.45.08.27.16.54.24.82.1.31.19.62.29.93.09.29.18.59.28.88,0,.03.02.06.03.09.08.26.17.52.26.79.13.4.27.8.41,1.2,0,.02.01.05.03.08.14.4.28.79.42,1.19.06.17.13.35.19.52.18.48.36.97.55,1.46.13.35.27.71.41,1.07.13.33.26.66.4.99.07.17.13.34.21.51Z"/>
          <path class="cls-3" d="m18.39,49.6c.16.38.32.76.47,1.13.12.28.23.57.34.85.24.61.48,1.23.71,1.85.08.2.15.4.22.6.06.17.13.34.19.51.23.65.46,1.31.68,1.96.11.33.22.64.32.97.39,1.17.74,2.34,1.06,3.48.08.27.16.55.23.83.56,2.08,1.03,4.1,1.41,6.08.06.28.11.56.16.84.32,1.78.57,3.52.73,5.21.02.2.04.39.05.59.04.44.08.88.11,1.3.03.43.05.84.07,1.26.01.31.02.61.03.91h0c0,.27,0,.53,0,.78L2.23,24.41c.18.18.36.36.55.55h0c.21.22.42.44.63.67.28.3.57.61.85.92.28.32.57.65.86.98.13.15.26.29.39.45,1.09,1.29,2.17,2.68,3.22,4.16.17.23.33.46.49.7,1.16,1.65,2.28,3.4,3.38,5.25.14.24.29.5.43.74.6,1.03,1.19,2.09,1.76,3.19.16.3.31.59.47.9.31.61.62,1.23.93,1.85.08.17.16.33.24.49.09.19.18.38.27.57.28.6.56,1.2.83,1.8.13.28.25.56.37.84.16.37.33.74.49,1.12Z"/>
          <path class="cls-5" d="m18.39,49.6c.16.38.32.76.47,1.13.12.28.23.57.34.85.24.61.48,1.23.71,1.85.08.2.15.4.22.6.06.17.13.34.19.51.23.65.46,1.31.68,1.96.11.33.22.64.32.97.39,1.17.74,2.34,1.06,3.48.08.27.16.55.23.83.56,2.08,1.03,4.1,1.41,6.08.06.28.11.56.16.84.32,1.78.57,3.52.73,5.21.02.2.04.39.05.59.04.44.08.88.11,1.3.03.43.05.84.07,1.26.01.31.02.61.03.91h0c0,.27,0,.53,0,.78l-.63-1.5c-.04-.46-.09-.92-.15-1.39-.04-.39-.09-.78-.15-1.18-.02-.18-.04-.36-.07-.54-.04-.29-.08-.58-.13-.88-.07-.44-.13-.88-.21-1.32-.06-.33-.12-.67-.18-1.01-.03-.16-.06-.31-.08-.46-.08-.4-.15-.79-.23-1.19,0-.01,0-.02,0-.04-.09-.46-.19-.91-.29-1.38-.1-.46-.2-.91-.31-1.37,0-.02,0-.05-.02-.07-.1-.45-.22-.9-.33-1.35-.29-1.14-.6-2.29-.95-3.45-.08-.27-.16-.54-.24-.82-.1-.31-.19-.62-.29-.93-.09-.29-.18-.59-.28-.88,0-.03-.02-.06-.03-.09-.08-.26-.17-.52-.26-.79-.13-.4-.27-.8-.41-1.2,0-.02-.01-.05-.03-.08-.14-.4-.28-.79-.42-1.19-.06-.17-.13-.35-.19-.52-.18-.48-.36-.97-.55-1.46-.13-.35-.27-.71-.41-1.07-.13-.33-.26-.66-.4-.99-.07-.17-.13-.34-.21-.51-.14-.34-.28-.69-.43-1.04s-.3-.7-.44-1.03c-.07-.17-.14-.33-.22-.5-.14-.33-.29-.66-.44-.98-.16-.35-.32-.7-.48-1.04-.22-.48-.44-.95-.67-1.41-.08-.17-.17-.34-.24-.5-.18-.38-.37-.75-.56-1.13-.01-.03-.03-.05-.04-.07-.19-.38-.38-.76-.58-1.13-.28-.55-.57-1.09-.86-1.63-.15-.28-.31-.57-.46-.85-.14-.25-.28-.5-.42-.75-.59-1.06-1.2-2.08-1.82-3.08-.25-.4-.49-.8-.74-1.18,0-.02-.03-.04-.04-.06-.25-.4-.51-.79-.76-1.18-.26-.4-.52-.78-.78-1.17,0-.01-.02-.02-.02-.03-.23-.33-.46-.66-.69-.99-.09-.13-.18-.26-.27-.38-.2-.28-.4-.56-.6-.83-.27-.37-.54-.73-.8-1.08-.18-.24-.36-.48-.54-.71-.11-.15-.22-.29-.33-.43-.25-.31-.49-.62-.74-.93-.29-.36-.59-.72-.89-1.07l-.63-1.5c.18.18.36.36.55.55h0c.21.22.42.44.63.67.28.3.57.61.85.92.28.32.57.65.86.98.13.15.26.29.39.45,1.09,1.29,2.17,2.68,3.22,4.16.17.23.33.46.49.7,1.16,1.65,2.28,3.4,3.38,5.25.14.24.29.5.43.74.6,1.03,1.19,2.09,1.76,3.19.16.3.31.59.47.9.31.61.62,1.23.93,1.85.08.17.16.33.24.49.09.19.18.38.27.57.28.6.56,1.2.83,1.8.13.28.25.56.37.84.16.37.33.74.49,1.12Z"/>
        </g>
        <g>
          <path class="cls-2" d="m40.91,53.47c-.15.38-.31.76-.47,1.13-.11.28-.23.56-.35.85-.26.61-.52,1.21-.79,1.81-.08.19-.17.39-.26.58-.08.16-.15.33-.23.5-.29.63-.59,1.25-.89,1.87-.15.31-.3.61-.45.91-.55,1.1-1.12,2.18-1.7,3.22-.14.25-.28.5-.42.75-1.06,1.87-2.16,3.64-3.28,5.31-.16.24-.32.48-.48.71-1.03,1.49-2.08,2.9-3.15,4.21-.13.16-.25.31-.38.46-.28.34-.56.68-.84,1-.28.32-.56.63-.84.94-.21.23-.41.45-.62.67h0c-.18.19-.36.38-.54.56,0-.25,0-.51,0-.77h0c0-.31,0-.61.02-.92,0-.41.03-.83.04-1.26.02-.43.05-.86.08-1.3,0-.2.02-.39.04-.59.14-1.69.35-3.43.64-5.22.04-.28.09-.56.14-.84.34-1.99.78-4.02,1.31-6.11.07-.28.14-.56.22-.83.3-1.15.63-2.32,1-3.5.1-.32.2-.64.3-.97.21-.65.42-1.31.65-1.97.06-.18.12-.35.18-.52.07-.2.14-.4.21-.6.22-.62.45-1.24.68-1.86.11-.29.22-.57.33-.86.14-.38.29-.76.45-1.14s.31-.76.47-1.13c.11-.28.23-.56.35-.85.26-.61.52-1.21.79-1.81.08-.19.17-.39.26-.58.08-.16.15-.33.23-.5.29-.63.59-1.25.89-1.87.15-.31.3-.61.45-.91.55-1.1,1.12-2.18,1.7-3.22.14-.25.28-.5.42-.75,1.06-1.87,2.16-3.64,3.28-5.31.16-.24.32-.48.48-.71,1.03-1.49,2.08-2.9,3.15-4.21.13-.16.25-.31.38-.46.28-.34.56-.68.84-1,.28-.32.56-.63.84-.94.21-.23.41-.45.62-.67h0c.18-.19.36-.38.54-.56,0,.25,0,.51,0,.77h0c0,.31,0,.61-.02.92,0,.41-.03.83-.04,1.26-.02.43-.05.86-.08,1.3,0,.2-.02.39-.04.59-.14,1.69-.35,3.43-.64,5.22-.04.28-.09.56-.14.84-.34,1.99-.78,4.02-1.31,6.11-.07.28-.14.56-.22.83-.3,1.15-.63,2.32-1,3.5-.1.32-.2.64-.3.97-.21.65-.42,1.31-.65,1.97-.06.18-.12.35-.18.52-.07.2-.14.4-.21.6-.22.62-.45,1.24-.68,1.86-.11.29-.22.57-.33.86-.14.38-.29.76-.45,1.14Z"/>
          <path class="cls-4" d="m33.01,49.08c-.14.34-.29.69-.43,1.04s-.28.7-.41,1.05c-.07.17-.13.34-.2.51-.13.34-.26.67-.38,1-.14.36-.27.72-.39,1.07-.18.49-.36.98-.52,1.47-.06.18-.12.36-.18.53-.13.4-.27.79-.4,1.19-.01.03-.02.05-.02.08-.13.41-.26.81-.39,1.21-.19.59-.36,1.18-.54,1.77-.09.31-.18.62-.27.93-.08.28-.15.55-.23.83-.32,1.17-.61,2.32-.89,3.47-.11.46-.21.91-.31,1.36,0,.02-.01.05-.02.07-.1.46-.2.92-.29,1.38-.1.46-.18.92-.27,1.38,0,.02,0,.02,0,.04-.07.4-.14.79-.21,1.19-.03.15-.05.31-.08.46-.06.34-.11.68-.16,1.01-.07.45-.13.89-.19,1.33-.04.3-.08.59-.11.88-.03.18-.05.36-.06.54-.05.4-.09.79-.13,1.18-.05.47-.09.93-.12,1.39l-.61,1.51c0-.25,0-.51,0-.77h0c.05-8.1,2.14-18.17,6.29-28.48,4.15-10.32,9.61-19.03,15.17-24.91h0c.18-.19.36-.38.54-.56l-.61,1.51c-.29.36-.59.72-.87,1.09-.25.31-.48.62-.73.94-.11.14-.22.28-.33.43-.17.23-.35.47-.53.72-.26.36-.52.72-.78,1.09-.2.28-.39.56-.58.84-.09.13-.18.26-.27.39-.23.33-.45.67-.67,1,0,.01-.01.02-.02.03-.26.39-.51.78-.76,1.19-.25.39-.5.79-.74,1.19-.01.02-.03.04-.04.06-.24.39-.48.79-.72,1.19-.6,1.02-1.19,2.05-1.76,3.12-.14.25-.27.5-.41.75-.15.29-.3.57-.45.86-.14.27-.28.55-.42.82-.02.03-.03.06-.05.09-.12.24-.25.49-.37.74-.19.38-.37.75-.56,1.14-.01.02-.02.04-.04.07-.18.38-.36.76-.54,1.14-.08.16-.16.34-.24.5-.22.47-.43.95-.64,1.42-.15.35-.31.69-.46,1.05-.14.32-.28.65-.42.99-.07.17-.14.33-.21.51Z"/>
          <path class="cls-3" d="m40.91,53.47c-.15.38-.31.76-.47,1.13-.11.28-.23.56-.35.85-.26.61-.52,1.21-.79,1.81-.08.19-.17.39-.26.58-.08.16-.15.33-.23.5-.29.63-.59,1.25-.89,1.87-.15.31-.3.61-.45.91-.55,1.1-1.12,2.18-1.7,3.22-.14.25-.28.5-.42.75-1.06,1.87-2.16,3.64-3.28,5.31-.16.24-.32.48-.48.71-1.03,1.49-2.08,2.9-3.15,4.21-.13.16-.25.31-.38.46-.28.34-.56.68-.84,1-.28.32-.56.63-.84.94-.21.23-.41.45-.62.67h0c-.18.19-.36.38-.54.56l22-54.73c0,.25,0,.51,0,.77h0c0,.31,0,.61-.02.92,0,.41-.03.83-.04,1.26-.02.43-.05.86-.08,1.3,0,.2-.02.39-.04.59-.14,1.69-.35,3.43-.64,5.22-.04.28-.09.56-.14.84-.34,1.99-.78,4.02-1.31,6.11-.07.28-.14.56-.22.83-.3,1.15-.63,2.32-1,3.5-.1.32-.2.64-.3.97-.21.65-.42,1.31-.65,1.97-.06.18-.12.35-.18.52-.07.2-.14.4-.21.6-.22.62-.45,1.24-.68,1.86-.11.29-.22.57-.33.86-.14.38-.29.76-.45,1.14Z"/>
          <path class="cls-5" d="m40.91,53.47c-.15.38-.31.76-.47,1.13-.11.28-.23.56-.35.85-.26.61-.52,1.21-.79,1.81-.08.19-.17.39-.26.58-.08.16-.15.33-.23.5-.29.63-.59,1.25-.89,1.87-.15.31-.3.61-.45.91-.55,1.1-1.12,2.18-1.7,3.22-.14.25-.28.5-.42.75-1.06,1.87-2.16,3.64-3.28,5.31-.16.24-.32.48-.48.71-1.03,1.49-2.08,2.9-3.15,4.21-.13.16-.25.31-.38.46-.28.34-.56.68-.84,1-.28.32-.56.63-.84.94-.21.23-.41.45-.62.67h0c-.18.19-.36.38-.54.56l.61-1.51c.29-.36.59-.72.87-1.09.25-.31.48-.62.73-.94.11-.14.22-.28.33-.43.17-.23.35-.47.53-.72.26-.36.52-.72.78-1.09.2-.28.39-.56.58-.84.09-.13.18-.26.27-.39.23-.33.45-.67.67-1,0-.01.01-.02.02-.03.26-.39.51-.78.76-1.18.25-.39.5-.79.74-1.19.01-.02.03-.04.04-.06.24-.39.48-.79.72-1.19.6-1.02,1.19-2.05,1.76-3.12.14-.25.27-.5.41-.75.15-.29.3-.57.45-.86.14-.27.28-.55.42-.82.02-.03.03-.06.05-.09.12-.24.25-.49.37-.74.19-.38.37-.75.56-1.14.01-.02.02-.04.04-.07.18-.38.36-.76.54-1.14.08-.16.16-.34.24-.5.22-.47.43-.95.64-1.42.15-.35.31-.69.46-1.05.14-.32.28-.65.42-.99.07-.17.14-.33.21-.51.14-.34.29-.69.43-1.04s.28-.7.41-1.05c.07-.17.13-.34.2-.51.13-.34.26-.67.38-1,.14-.36.27-.72.39-1.07.18-.49.36-.98.52-1.47.06-.18.12-.36.18-.53.13-.4.27-.79.4-1.19.01-.03.02-.05.02-.08.13-.41.26-.81.39-1.21.19-.59.36-1.18.54-1.77.09-.31.18-.62.27-.93.08-.28.15-.55.23-.83.32-1.17.61-2.32.89-3.47.11-.46.21-.91.31-1.36,0-.02.01-.05.02-.07.1-.46.2-.92.29-1.38.1-.46.18-.92.27-1.38,0-.02,0-.02,0-.04.07-.4.14-.79.21-1.19.03-.15.05-.31.08-.46.06-.34.11-.68.16-1.01.07-.45.13-.89.19-1.33.04-.3.08-.59.11-.88.03-.18.05-.36.06-.54.05-.4.09-.79.13-1.18.05-.47.09-.93.12-1.39l.61-1.51c0,.25,0,.51,0,.77h0c0,.31,0,.61-.02.92,0,.41-.03.83-.04,1.26-.02.43-.05.86-.08,1.3,0,.2-.02.39-.04.59-.14,1.69-.35,3.43-.64,5.22-.04.28-.09.56-.14.84-.34,1.99-.78,4.02-1.31,6.11-.07.28-.14.56-.22.83-.3,1.15-.63,2.32-1,3.5-.1.32-.2.64-.3.97-.21.65-.42,1.31-.65,1.97-.06.18-.12.35-.18.52-.07.2-.14.4-.21.6-.22.62-.45,1.24-.68,1.86-.11.29-.22.57-.33.86-.14.38-.29.76-.45,1.14Z"/>
        </g>
      </g>
      <g>
        <path class="cls-6" d="m49.75,73.13c0,8.26-4.03,15.58-10.22,20.1H10.22c-6.19-4.52-10.22-11.84-10.22-20.1,0-.52.02-1.03.05-1.54.1-1.75.39-3.43.84-5.06.58-2.12,1.44-4.13,2.53-5.98h42.91c.06.1.12.21.18.32,1.01,1.75,1.81,3.66,2.35,5.66.05.21.11.41.15.61.04.16.09.34.12.5.21.89.36,1.8.46,2.72.03.19.04.38.05.58.03.22.03.43.05.65.02.26.03.51.04.77,0,.25,0,.51,0,.77Z"/>
        <path class="cls-7" d="m49.69,71.59H.05c.1-1.75.39-3.43.84-5.06h47.97c.05.21.11.41.15.61.04.16.09.34.12.5.21.89.36,1.8.46,2.72.03.19.04.38.05.58.03.22.03.43.05.65Z"/>
        <path class="cls-1" d="m49.75,73.13c0,8.26-4.03,15.58-10.22,20.1H14.17l21.63-21.64,10.72-10.72c1.01,1.75,1.81,3.66,2.35,5.66.05.21.11.41.15.61.04.16.09.34.12.5.21.89.36,1.8.46,2.72.03.19.04.38.05.58.03.22.03.43.05.65.02.26.03.51.04.77,0,.25,0,.51,0,.77Z"/>
      </g>
    </g>
  </g>
</svg>