<?xml version="1.0" encoding="UTF-8"?>
<svg id="Layer_2" data-name="Layer 2" xmlns="http://www.w3.org/2000/svg" viewBox="0 0 125.66 293.1">
  <defs>
    <style>
      .cls-1 {
        fill: #0e0d0d;
        opacity: .1;
      }

      .cls-1, .cls-2, .cls-3, .cls-4, .cls-5, .cls-6, .cls-7 {
        stroke-width: 0px;
      }

      .cls-2 {
        fill: #188140;
      }

      .cls-3 {
        fill: #134d26;
      }

      .cls-4 {
        fill: #ddecc4;
      }

      .cls-5 {
        fill: #b4d684;
      }

      .cls-6 {
        fill: #996239;
      }

      .cls-7 {
        fill: #664126;
      }
    </style>
  </defs>
  <g id="Rum">
    <g id="Stor_plante" data-name="Stor plante">
      <g>
        <g>
          <path class="cls-2" d="m83.89,124.78c0,1.74-.02,3.47-.05,5.17,0,1.29-.03,2.59-.06,3.88-.06,2.79-.15,5.58-.27,8.37-.03.88-.08,1.8-.12,2.69-.05.75-.08,1.53-.12,2.31-.17,2.93-.36,5.85-.59,8.75-.11,1.46-.23,2.86-.36,4.29-.45,5.21-1.03,10.31-1.69,15.32-.15,1.19-.32,2.42-.48,3.61-1.28,9.02-2.86,17.7-4.73,26.04-.26,1.19-.53,2.38-.81,3.54-1.76,7.49-3.77,14.67-6,21.51-.26.82-.51,1.6-.8,2.38-.59,1.77-1.19,3.54-1.81,5.24-.63,1.7-1.25,3.37-1.9,5-.48,1.23-.96,2.42-1.45,3.61v.03c-.44,1.02-.86,2.04-1.3,3.03-.44-.99-.86-2.01-1.3-3.03v-.03c-.48-1.19-.96-2.38-1.45-3.61-.65-1.63-1.27-3.3-1.9-5-.62-1.7-1.22-3.47-1.81-5.24-.29-.78-.54-1.57-.8-2.38-2.23-6.84-4.24-14.02-6-21.51-.29-1.16-.56-2.35-.81-3.54-1.87-8.34-3.45-17.02-4.73-26.04-.17-1.19-.33-2.42-.48-3.61-.66-5-1.24-10.11-1.69-15.32-.14-1.43-.26-2.82-.36-4.29-.23-2.89-.42-5.82-.59-8.75-.05-.78-.08-1.57-.12-2.31-.05-.88-.09-1.8-.12-2.69-.12-2.79-.21-5.58-.27-8.37-.03-1.29-.06-2.59-.06-3.88-.03-1.7-.05-3.44-.05-5.17s.01-3.47.05-5.17c0-1.29.03-2.59.06-3.88.06-2.79.15-5.58.27-8.37.03-.88.08-1.8.12-2.69.05-.75.08-1.53.12-2.31.17-2.93.36-5.85.59-8.75.11-1.46.23-2.86.36-4.29.45-5.21,1.03-10.31,1.69-15.32.15-1.19.32-2.42.48-3.61,1.28-9.02,2.86-17.7,4.73-26.04.26-1.19.53-2.38.81-3.54,1.76-7.49,3.77-14.67,6-21.51.26-.82.51-1.6.8-2.38.59-1.77,1.19-3.54,1.81-5.24.63-1.7,1.25-3.37,1.9-5,.48-1.23.96-2.42,1.45-3.61v-.03c.44-1.02.86-2.04,1.3-3.03.44.99.86,2.01,1.3,3.03v.03c.48,1.19.96,2.38,1.45,3.61.65,1.63,1.27,3.3,1.9,5,.62,1.7,1.22,3.47,1.81,5.24.29.78.54,1.57.8,2.38,2.23,6.84,4.24,14.02,6,21.51.29,1.16.56,2.35.81,3.54,1.87,8.34,3.45,17.02,4.73,26.04.17,1.19.33,2.42.48,3.61.66,5,1.24,10.11,1.69,15.32.14,1.43.26,2.82.36,4.29.23,2.89.42,5.82.59,8.75.05.78.08,1.57.12,2.31.05.88.09,1.8.12,2.69.12,2.79.21,5.58.27,8.37.03,1.29.06,2.59.06,3.88.03,1.7.05,3.44.05,5.17Z"/>
          <path class="cls-4" d="m44.08,120c-.02,1.57-.03,3.17-.03,4.76s.02,3.2.03,4.76c0,.78.01,1.53.03,2.31.02,1.53.05,3.03.09,4.53.03,1.63.09,3.23.15,4.83.08,2.21.17,4.42.29,6.6.05.78.09,1.6.14,2.35.11,1.77.21,3.54.33,5.31,0,.14.02.24.03.34.12,1.8.26,3.57.41,5.34.21,2.62.45,5.21.71,7.79.14,1.36.29,2.72.42,4.08.15,1.23.29,2.42.44,3.61.6,5.11,1.31,10.07,2.1,15.01.32,1.97.63,3.91.98,5.82,0,.1.03.2.05.31.35,1.97.71,3.91,1.09,5.85.38,1.97.77,3.91,1.18,5.85.02.07.03.1.03.17.36,1.67.72,3.34,1.1,5,.15.65.29,1.29.45,1.94.33,1.43.66,2.82,1.01,4.22.45,1.87.93,3.71,1.42,5.51.33,1.23.66,2.45.99,3.64.2.75.41,1.5.63,2.21.47,1.63.93,3.23,1.43,4.83.57,1.91,1.18,3.78,1.79,5.65v6.87c-.44-.99-.86-2.01-1.3-3.03v-.03c-13.17-31.86-21.24-74.67-21.24-121.71S46.88,34.92,60.06,3.06v-.03c.44-1.02.86-2.04,1.3-3.03v6.87c-.62,1.87-1.22,3.74-1.79,5.65-.5,1.6-.96,3.2-1.43,4.83-.23.71-.44,1.46-.63,2.21-.33,1.19-.66,2.42-.99,3.64-.48,1.8-.96,3.64-1.42,5.51-.35,1.4-.68,2.79-1.01,4.22-.17.65-.3,1.29-.45,1.94-.38,1.67-.74,3.34-1.1,5,0,.07-.02.1-.03.17-.41,1.94-.8,3.88-1.18,5.85-.38,1.94-.74,3.88-1.09,5.85-.02.1-.05.2-.05.31-.35,1.91-.66,3.85-.98,5.82-.78,4.94-1.49,9.9-2.1,15.01-.15,1.19-.29,2.38-.44,3.61-.14,1.36-.29,2.72-.42,4.08-.12,1.29-.26,2.59-.36,3.88-.03.14-.03.27-.05.41-.11,1.16-.21,2.31-.3,3.51-.15,1.77-.29,3.54-.41,5.34-.01.1-.03.2-.03.34-.12,1.77-.23,3.54-.33,5.31-.05.75-.09,1.57-.14,2.35-.12,2.18-.21,4.39-.29,6.6-.06,1.6-.12,3.2-.15,4.83-.05,1.5-.08,3-.09,4.53-.02.78-.03,1.53-.03,2.31Z"/>
          <path class="cls-3" d="m83.89,124.78c0,1.74-.02,3.47-.05,5.17,0,1.29-.03,2.59-.06,3.88-.06,2.79-.15,5.58-.27,8.37-.03.88-.08,1.8-.12,2.69-.05.75-.08,1.53-.12,2.31-.17,2.93-.36,5.85-.59,8.75-.11,1.46-.23,2.86-.36,4.29-.45,5.21-1.03,10.31-1.69,15.32-.15,1.19-.32,2.42-.48,3.61-1.28,9.02-2.86,17.7-4.73,26.04-.26,1.19-.53,2.38-.81,3.54-1.76,7.49-3.77,14.67-6,21.51-.26.82-.51,1.6-.8,2.38-.59,1.77-1.19,3.54-1.81,5.24-.63,1.7-1.25,3.37-1.9,5-.48,1.23-.96,2.42-1.45,3.61v.03c-.44,1.02-.86,2.04-1.3,3.03V.02c.44.99.86,2.01,1.3,3.03v.03c.48,1.19.96,2.38,1.45,3.61.65,1.63,1.27,3.3,1.9,5,.62,1.7,1.22,3.47,1.81,5.24.29.78.54,1.57.8,2.38,2.23,6.84,4.24,14.02,6,21.51.29,1.16.56,2.35.81,3.54,1.87,8.34,3.45,17.02,4.73,26.04.17,1.19.33,2.42.48,3.61.66,5,1.24,10.11,1.69,15.32.14,1.43.26,2.82.36,4.29.23,2.89.42,5.82.59,8.75.05.78.08,1.57.12,2.31.05.88.09,1.8.12,2.69.12,2.79.21,5.58.27,8.37.03,1.29.06,2.59.06,3.88.03,1.7.05,3.44.05,5.17Z"/>
          <path class="cls-5" d="m83.89,124.78c0,1.74-.02,3.47-.05,5.17,0,1.29-.03,2.59-.06,3.88-.06,2.79-.15,5.58-.27,8.37-.03.88-.08,1.8-.12,2.69-.05.75-.08,1.53-.12,2.31-.17,2.93-.36,5.85-.59,8.75-.11,1.46-.23,2.86-.36,4.29-.45,5.21-1.03,10.31-1.69,15.32-.15,1.19-.32,2.42-.48,3.61-1.28,9.02-2.86,17.7-4.73,26.04-.26,1.19-.53,2.38-.81,3.54-1.76,7.49-3.77,14.67-6,21.51-.26.82-.51,1.6-.8,2.38-.59,1.77-1.19,3.54-1.81,5.24-.63,1.7-1.25,3.37-1.9,5-.48,1.23-.96,2.42-1.45,3.61v.03c-.44,1.02-.86,2.04-1.3,3.03v-6.87c.62-1.87,1.22-3.74,1.79-5.65.5-1.6.96-3.2,1.43-4.83.23-.71.44-1.46.63-2.21.33-1.19.66-2.42.99-3.64.48-1.8.96-3.64,1.42-5.51.35-1.4.68-2.79,1.01-4.22.17-.65.3-1.29.45-1.94.38-1.67.74-3.34,1.1-5,0-.07.02-.1.03-.17.41-1.94.8-3.88,1.18-5.85.38-1.94.74-3.88,1.09-5.85.02-.1.05-.2.05-.31.35-1.91.66-3.85.98-5.82.78-4.94,1.49-9.9,2.1-15.01.15-1.19.29-2.38.44-3.61.14-1.36.29-2.72.42-4.08.12-1.29.26-2.59.36-3.88.03-.14.03-.27.05-.41.11-1.16.21-2.31.3-3.51.15-1.77.29-3.54.41-5.34.02-.1.03-.2.03-.34.12-1.77.23-3.54.33-5.31.05-.75.09-1.57.14-2.35.12-2.18.21-4.39.29-6.6.06-1.6.12-3.2.15-4.83.05-1.5.08-3,.09-4.53.02-.78.03-1.53.03-2.31.02-1.57.03-3.17.03-4.76s-.02-3.2-.03-4.76c0-.78-.02-1.53-.03-2.31-.01-1.53-.05-3.03-.09-4.53-.03-1.63-.09-3.23-.15-4.83-.08-2.21-.17-4.42-.29-6.6-.05-.78-.09-1.6-.14-2.35-.11-1.77-.21-3.54-.33-5.31,0-.14-.02-.24-.03-.34-.12-1.8-.26-3.57-.41-5.34-.21-2.62-.45-5.21-.71-7.79-.14-1.36-.29-2.72-.42-4.08-.15-1.23-.29-2.42-.44-3.61-.6-5.11-1.31-10.07-2.1-15.01-.32-1.97-.63-3.91-.98-5.82,0-.1-.03-.2-.05-.31-.35-1.97-.71-3.91-1.09-5.85-.38-1.97-.77-3.91-1.18-5.85-.01-.07-.03-.1-.03-.17-.36-1.67-.72-3.34-1.1-5-.15-.65-.29-1.29-.45-1.94-.33-1.43-.66-2.82-1.01-4.22-.45-1.87-.93-3.71-1.42-5.51-.33-1.23-.66-2.45-.99-3.64-.2-.75-.41-1.5-.63-2.21-.47-1.63-.93-3.23-1.43-4.83-.57-1.91-1.18-3.78-1.79-5.65V.02c.44.99.86,2.01,1.3,3.03v.03c.48,1.19.96,2.38,1.45,3.61.65,1.63,1.27,3.3,1.9,5,.62,1.7,1.22,3.47,1.81,5.24.29.78.54,1.57.8,2.38,2.23,6.84,4.24,14.02,6,21.51.29,1.16.56,2.35.81,3.54,1.87,8.34,3.45,17.02,4.73,26.04.17,1.19.33,2.42.48,3.61.66,5,1.24,10.11,1.69,15.32.14,1.43.26,2.82.36,4.29.23,2.89.42,5.82.59,8.75.05.78.08,1.57.12,2.31.05.88.09,1.8.12,2.69.12,2.79.21,5.58.27,8.37.03,1.29.06,2.59.06,3.88.03,1.7.05,3.44.05,5.17Z"/>
        </g>
        <g>
          <path class="cls-2" d="m46.31,156.91c.43,1.21.85,2.43,1.26,3.63.32.9.62,1.82.93,2.73.66,1.97,1.29,3.94,1.9,5.92.2.63.4,1.28.59,1.91.16.53.33,1.09.5,1.65.62,2.09,1.22,4.18,1.79,6.26.29,1.05.56,2.05.83,3.09,1,3.75,1.89,7.46,2.69,11.12.2.87.39,1.77.58,2.64,1.39,6.61,2.5,13.06,3.33,19.34.13.89.24,1.79.34,2.67.69,5.66,1.14,11.16,1.36,16.47.03.63.06,1.24.06,1.86.05,1.38.09,2.76.1,4.1,0,1.34,0,2.65-.02,3.95-.02.97-.04,1.92-.07,2.87v.02c-.03.82-.06,1.63-.1,2.43-.54-.59-1.07-1.2-1.62-1.81v-.02c-.63-.72-1.25-1.44-1.87-2.18-.84-.99-1.67-2.01-2.51-3.05-.84-1.04-1.68-2.14-2.51-3.24-.39-.48-.75-.97-1.13-1.48-3.19-4.26-6.32-8.8-9.36-13.62-.48-.74-.96-1.51-1.42-2.28-3.32-5.39-6.54-11.09-9.64-17.09-.41-.79-.82-1.61-1.22-2.41-1.69-3.34-3.34-6.78-4.94-10.31-.45-.97-.87-1.92-1.31-2.91-.87-1.97-1.73-3.97-2.57-5.98-.23-.54-.44-1.08-.66-1.59-.25-.61-.51-1.24-.75-1.85-.78-1.92-1.53-3.85-2.27-5.79-.34-.9-.68-1.8-1.01-2.7-.44-1.18-.89-2.39-1.32-3.61s-.85-2.43-1.26-3.63c-.32-.9-.62-1.82-.93-2.73-.66-1.97-1.29-3.94-1.9-5.92-.2-.63-.4-1.28-.59-1.91-.16-.53-.33-1.09-.5-1.65-.62-2.09-1.22-4.18-1.79-6.26-.29-1.05-.56-2.05-.83-3.09-1-3.75-1.89-7.46-2.69-11.12-.2-.87-.39-1.77-.58-2.64-1.39-6.61-2.5-13.06-3.33-19.34-.13-.89-.24-1.79-.34-2.67-.69-5.66-1.14-11.16-1.36-16.47-.03-.63-.06-1.24-.06-1.86-.05-1.38-.09-2.76-.1-4.1,0-1.34,0-2.65.02-3.95.02-.97.04-1.92.07-2.87v-.02c.03-.82.06-1.63.1-2.43.54.59,1.07,1.2,1.62,1.81v.02c.63.72,1.25,1.44,1.87,2.18.84.99,1.67,2.01,2.51,3.05.84,1.04,1.68,2.14,2.51,3.24.39.48.75.97,1.13,1.48,3.19,4.26,6.32,8.8,9.36,13.62.48.74.96,1.51,1.42,2.28,3.32,5.39,6.54,11.09,9.64,17.09.41.79.82,1.61,1.22,2.41,1.69,3.34,3.34,6.78,4.94,10.31.45.97.87,1.92,1.31,2.91.87,1.97,1.73,3.97,2.57,5.98.23.54.44,1.08.66,1.59.25.61.51,1.24.75,1.85.78,1.92,1.53,3.86,2.27,5.79.34.9.68,1.8,1.01,2.7.44,1.18.89,2.39,1.32,3.61Z"/>
          <path class="cls-4" d="m18.57,163.02c.38,1.1.77,2.22,1.17,3.34s.81,2.23,1.21,3.33c.2.55.39,1.07.6,1.61.39,1.07.78,2.11,1.19,3.15.43,1.14.87,2.24,1.3,3.35.6,1.53,1.21,3.06,1.84,4.55.23.54.46,1.1.68,1.61.51,1.21,1.02,2.43,1.54,3.64.03.1.07.16.1.23.53,1.23,1.06,2.44,1.6,3.64.79,1.78,1.6,3.54,2.41,5.28.43.92.87,1.84,1.3,2.76.41.82.79,1.62,1.19,2.42,1.67,3.43,3.38,6.74,5.14,10,.7,1.31,1.4,2.59,2.1,3.84.03.07.07.14.11.2.72,1.3,1.45,2.57,2.18,3.84.74,1.29,1.49,2.56,2.24,3.82.03.04.05.06.06.11.66,1.08,1.31,2.16,1.98,3.24.26.42.51.84.78,1.25.58.92,1.15,1.82,1.72,2.71.77,1.2,1.55,2.37,2.32,3.52.53.78,1.05,1.56,1.57,2.31.32.48.64.95.97,1.4.72,1.03,1.43,2.04,2.16,3.04.86,1.2,1.73,2.36,2.6,3.53l1.71,4.81c-.54-.59-1.07-1.2-1.62-1.81v-.02c-16.73-19.16-32.78-47.2-44.49-80.11C4.53,134.69-.76,102.82.09,77.4v-.02c.03-.82.06-1.63.1-2.43l1.71,4.81c.05,1.46.12,2.91.21,4.38.07,1.24.15,2.47.25,3.72.03.55.07,1.13.13,1.7.08.91.16,1.85.24,2.78.13,1.38.26,2.78.43,4.19.12,1.06.24,2.11.38,3.19.05.49.12.98.18,1.46.16,1.26.34,2.51.51,3.76.02.05.02.07.02.13.21,1.45.43,2.9.67,4.37.23,1.45.47,2.89.73,4.35.02.07.02.15.05.22.24,1.42.52,2.85.8,4.3.71,3.64,1.47,7.28,2.34,11,.2.87.4,1.73.61,2.63.25.98.49,1.97.74,2.96.24.93.47,1.87.73,2.8.01.1.05.2.07.3.22.83.44,1.67.67,2.52.34,1.27.69,2.54,1.06,3.84.02.08.03.15.06.25.36,1.27.73,2.53,1.1,3.79.16.53.33,1.12.49,1.68.46,1.55.95,3.12,1.45,4.69.36,1.13.72,2.27,1.1,3.42.34,1.06.7,2.11,1.07,3.19.18.55.36,1.08.56,1.63Z"/>
          <path class="cls-3" d="m46.31,156.91c.43,1.21.85,2.43,1.26,3.63.32.9.62,1.82.93,2.73.66,1.97,1.29,3.94,1.9,5.92.2.63.4,1.28.59,1.91.16.53.33,1.09.5,1.65.62,2.09,1.22,4.18,1.79,6.26.29,1.05.56,2.05.83,3.09,1,3.75,1.89,7.46,2.69,11.12.2.87.39,1.77.58,2.64,1.39,6.61,2.5,13.06,3.33,19.34.13.89.24,1.79.34,2.67.69,5.66,1.14,11.16,1.36,16.47.03.63.06,1.24.06,1.86.05,1.38.09,2.76.1,4.1,0,1.34,0,2.65-.02,3.95-.02.97-.04,1.92-.07,2.87v.02c-.03.82-.06,1.63-.1,2.43L.2,74.96c.54.59,1.07,1.2,1.62,1.81v.02c.63.72,1.25,1.44,1.87,2.18.84.99,1.67,2.01,2.51,3.05.84,1.04,1.68,2.14,2.51,3.24.39.48.75.97,1.13,1.48,3.19,4.26,6.32,8.8,9.36,13.62.48.74.96,1.51,1.42,2.28,3.32,5.39,6.54,11.09,9.64,17.09.41.79.82,1.61,1.22,2.41,1.69,3.34,3.34,6.78,4.94,10.31.45.97.87,1.92,1.31,2.91.87,1.97,1.73,3.97,2.57,5.98.23.54.44,1.08.66,1.59.25.61.51,1.24.75,1.85.78,1.92,1.53,3.86,2.27,5.79.34.9.68,1.8,1.01,2.7.44,1.18.89,2.39,1.32,3.61Z"/>
          <path class="cls-5" d="m46.31,156.91c.43,1.21.85,2.43,1.26,3.63.32.9.62,1.82.93,2.73.66,1.97,1.29,3.94,1.9,5.92.2.63.4,1.28.59,1.91.16.53.33,1.09.5,1.65.62,2.09,1.22,4.18,1.79,6.26.29,1.05.56,2.05.83,3.09,1,3.75,1.89,7.46,2.69,11.12.2.87.39,1.77.58,2.64,1.39,6.61,2.5,13.06,3.33,19.34.13.89.24,1.79.34,2.67.69,5.66,1.14,11.16,1.36,16.47.03.63.06,1.24.06,1.86.05,1.38.09,2.76.1,4.1,0,1.34,0,2.65-.02,3.95-.02.97-.04,1.92-.07,2.87v.02c-.03.82-.06,1.63-.1,2.43l-1.71-4.81c-.05-1.46-.12-2.91-.21-4.38-.07-1.24-.15-2.47-.25-3.72-.03-.55-.07-1.13-.13-1.7-.08-.91-.16-1.85-.24-2.78-.13-1.38-.26-2.78-.43-4.19-.12-1.06-.24-2.11-.38-3.19-.05-.49-.12-.98-.18-1.46-.16-1.26-.34-2.51-.51-3.76-.02-.05-.02-.07-.02-.13-.21-1.45-.43-2.9-.67-4.37-.23-1.45-.47-2.89-.73-4.35-.02-.07-.02-.15-.05-.22-.24-1.42-.52-2.85-.8-4.3-.71-3.64-1.47-7.28-2.34-11-.2-.87-.4-1.73-.61-2.63-.25-.98-.49-1.97-.74-2.96-.24-.93-.47-1.87-.73-2.8-.01-.1-.05-.2-.07-.3-.22-.83-.44-1.67-.67-2.52-.34-1.27-.69-2.54-1.06-3.84-.02-.07-.03-.15-.06-.25-.36-1.27-.73-2.53-1.1-3.79-.16-.53-.33-1.12-.49-1.68-.46-1.55-.95-3.12-1.45-4.69-.36-1.13-.72-2.27-1.1-3.42-.34-1.06-.7-2.11-1.07-3.19-.18-.55-.36-1.08-.56-1.63-.38-1.1-.77-2.22-1.17-3.34s-.81-2.23-1.21-3.33c-.2-.55-.39-1.07-.6-1.61-.39-1.07-.78-2.11-1.19-3.15-.43-1.14-.87-2.24-1.3-3.35-.6-1.53-1.21-3.06-1.84-4.55-.23-.54-.46-1.1-.68-1.61-.51-1.21-1.02-2.43-1.54-3.64-.03-.1-.07-.16-.1-.23-.53-1.23-1.06-2.44-1.6-3.64-.79-1.78-1.6-3.54-2.41-5.28-.43-.92-.87-1.84-1.3-2.76-.41-.82-.79-1.62-1.19-2.42-1.67-3.43-3.38-6.74-5.14-10-.7-1.31-1.4-2.59-2.1-3.84-.03-.07-.07-.14-.11-.2-.72-1.3-1.45-2.57-2.18-3.84-.74-1.29-1.49-2.56-2.24-3.82-.03-.04-.05-.06-.06-.11-.66-1.08-1.31-2.16-1.98-3.24-.26-.42-.51-.84-.78-1.25-.58-.92-1.15-1.82-1.72-2.71-.77-1.2-1.55-2.37-2.32-3.52-.53-.78-1.05-1.56-1.57-2.31-.32-.48-.64-.95-.97-1.4-.72-1.03-1.43-2.04-2.16-3.04-.86-1.2-1.73-2.36-2.6-3.53l-1.71-4.81c.54.59,1.07,1.2,1.62,1.81v.02c.63.72,1.25,1.44,1.87,2.18.84.99,1.67,2.01,2.51,3.05.84,1.04,1.68,2.14,2.51,3.24.39.48.75.97,1.13,1.48,3.19,4.26,6.32,8.8,9.36,13.62.48.74.96,1.51,1.42,2.28,3.32,5.39,6.54,11.09,9.64,17.09.41.79.82,1.61,1.22,2.41,1.69,3.34,3.34,6.78,4.94,10.31.45.97.87,1.92,1.31,2.91.87,1.97,1.73,3.97,2.57,5.98.23.54.44,1.08.66,1.59.25.61.51,1.24.75,1.85.78,1.92,1.53,3.86,2.27,5.79.34.9.68,1.8,1.01,2.7.44,1.18.89,2.39,1.32,3.61Z"/>
        </g>
        <g>
          <path class="cls-2" d="m78.84,156.79c.44-1.21.89-2.42,1.34-3.6.33-.9.68-1.8,1.03-2.69.75-1.93,1.52-3.86,2.31-5.78.24-.61.51-1.24.76-1.85.22-.51.44-1.05.67-1.59.85-2,1.73-4,2.61-5.96.44-1,.88-1.94,1.33-2.91,1.62-3.52,3.3-6.95,5.01-10.28.4-.79.82-1.61,1.24-2.4,3.14-5.98,6.4-11.66,9.76-17.02.47-.77.96-1.53,1.44-2.27,3.08-4.8,6.23-9.32,9.45-13.56.38-.51.75-.99,1.14-1.47.84-1.09,1.69-2.18,2.53-3.22.85-1.03,1.69-2.05,2.53-3.03.63-.74,1.26-1.45,1.88-2.17v-.02c.56-.61,1.1-1.22,1.64-1.8.04.79.06,1.61.09,2.43v.02c0,.95.03,1.9.04,2.87.02,1.3,0,2.61,0,3.95-.02,1.34-.07,2.72-.13,4.1,0,.62-.04,1.22-.07,1.86-.25,5.31-.74,10.81-1.47,16.46-.1.88-.23,1.77-.36,2.67-.87,6.27-2.03,12.71-3.47,19.32-.19.87-.39,1.77-.6,2.63-.83,3.65-1.75,7.35-2.77,11.1-.27,1.03-.55,2.03-.85,3.08-.58,2.07-1.2,4.16-1.83,6.25-.17.56-.35,1.11-.51,1.64-.19.63-.4,1.28-.6,1.91-.63,1.98-1.28,3.95-1.95,5.91-.31.91-.62,1.82-.95,2.72-.41,1.19-.84,2.41-1.28,3.62-.44,1.21-.89,2.42-1.34,3.6-.33.9-.68,1.8-1.03,2.69-.75,1.93-1.52,3.86-2.31,5.78-.24.61-.51,1.24-.76,1.85-.22.51-.44,1.05-.67,1.59-.85,2-1.73,4-2.61,5.96-.44,1-.88,1.94-1.33,2.91-1.62,3.52-3.3,6.95-5.01,10.28-.4.79-.82,1.61-1.24,2.4-3.14,5.98-6.4,11.66-9.76,17.02-.47.77-.96,1.53-1.44,2.27-3.08,4.8-6.23,9.32-9.45,13.56-.38.51-.75.99-1.14,1.47-.84,1.09-1.69,2.18-2.53,3.22-.85,1.03-1.69,2.05-2.53,3.03-.63.74-1.26,1.45-1.88,2.17v.02c-.56.61-1.1,1.22-1.64,1.8-.04-.79-.06-1.61-.09-2.43v-.02c0-.95-.03-1.9-.04-2.87-.02-1.3,0-2.61,0-3.95.02-1.34.07-2.72.13-4.1,0-.62.04-1.22.07-1.86.25-5.31.74-10.81,1.47-16.46.1-.88.23-1.77.36-2.67.87-6.27,2.03-12.71,3.47-19.32.19-.87.39-1.77.6-2.63.83-3.65,1.75-7.35,2.77-11.1.27-1.03.55-2.03.85-3.08.58-2.07,1.2-4.16,1.83-6.25.17-.56.35-1.11.51-1.64.19-.63.4-1.28.6-1.91.63-1.98,1.28-3.95,1.95-5.91.31-.91.62-1.82.95-2.72.41-1.19.84-2.41,1.28-3.62Z"/>
          <path class="cls-4" d="m104.11,169.77c.41-1.09.82-2.2,1.23-3.32.41-1.12.8-2.24,1.19-3.33.2-.55.38-1.07.57-1.62.38-1.07.74-2.12,1.09-3.18.39-1.15.76-2.28,1.13-3.41.51-1.56,1.01-3.13,1.49-4.68.17-.56.35-1.14.51-1.67.38-1.26.76-2.52,1.13-3.79.03-.1.05-.17.07-.24.38-1.29.74-2.56,1.09-3.83.53-1.88,1.02-3.74,1.51-5.61.26-.98.5-1.97.76-2.95.21-.89.42-1.76.63-2.62.9-3.71,1.69-7.35,2.42-10.98.29-1.45.57-2.88.83-4.3.03-.07.03-.15.05-.22.27-1.46.52-2.9.77-4.35.25-1.47.48-2.92.7-4.37,0-.05,0-.08.02-.13.18-1.25.37-2.5.54-3.76.06-.49.14-.97.19-1.46.14-1.08.28-2.13.4-3.19.17-1.42.32-2.82.46-4.19.09-.94.18-1.87.26-2.78.06-.57.11-1.14.14-1.7.1-1.25.2-2.48.28-3.72.1-1.47.18-2.92.24-4.38l1.75-4.8c.04.79.06,1.61.09,2.43v.02c.66,25.42-4.85,57.26-16.8,90.08-11.95,32.83-28.19,60.75-45.04,79.8v.02c-.56.61-1.1,1.22-1.64,1.8l1.75-4.8c.89-1.16,1.76-2.32,2.63-3.51.74-1,1.45-2,2.18-3.03.33-.44.66-.92.98-1.39.52-.75,1.06-1.53,1.59-2.3.78-1.14,1.57-2.31,2.34-3.5.59-.89,1.16-1.78,1.74-2.7.27-.41.53-.83.79-1.24.67-1.07,1.34-2.15,2-3.23.02-.05.04-.07.06-.11.76-1.26,1.52-2.51,2.27-3.8.74-1.26,1.48-2.53,2.21-3.82.04-.07.08-.13.11-.2.71-1.25,1.42-2.52,2.13-3.82,1.77-3.25,3.51-6.55,5.21-9.97.4-.79.8-1.59,1.21-2.41.44-.92.88-1.83,1.32-2.75.41-.87.83-1.74,1.23-2.62.05-.09.09-.18.13-.27.36-.78.73-1.56,1.09-2.37.55-1.2,1.09-2.4,1.63-3.63.04-.07.07-.14.11-.23.53-1.21,1.05-2.42,1.57-3.63.22-.51.46-1.07.69-1.61.63-1.49,1.26-3.01,1.87-4.54.45-1.1.89-2.2,1.33-3.34.41-1.03.81-2.07,1.21-3.14.21-.54.41-1.06.61-1.61Z"/>
          <path class="cls-3" d="m78.84,156.79c.44-1.21.89-2.42,1.34-3.6.33-.9.68-1.8,1.03-2.69.75-1.93,1.52-3.86,2.31-5.78.24-.61.51-1.24.76-1.85.22-.51.44-1.05.67-1.59.85-2,1.73-4,2.61-5.96.44-1,.88-1.94,1.33-2.91,1.62-3.52,3.3-6.95,5.01-10.28.4-.79.82-1.61,1.24-2.4,3.14-5.98,6.4-11.66,9.76-17.02.47-.77.96-1.53,1.44-2.27,3.08-4.8,6.23-9.32,9.45-13.56.38-.51.75-.99,1.14-1.47.84-1.09,1.69-2.18,2.53-3.22.85-1.03,1.69-2.05,2.53-3.03.63-.74,1.26-1.45,1.88-2.17v-.02c.56-.61,1.1-1.22,1.64-1.8l-63.39,174.15c-.04-.79-.06-1.61-.09-2.43v-.02c0-.95-.03-1.9-.04-2.87-.02-1.3,0-2.61,0-3.95.02-1.34.07-2.72.13-4.1,0-.62.04-1.22.07-1.86.25-5.31.74-10.81,1.47-16.46.1-.88.23-1.77.36-2.67.87-6.27,2.03-12.71,3.47-19.32.19-.87.39-1.77.6-2.63.83-3.65,1.75-7.35,2.77-11.1.27-1.03.55-2.03.85-3.08.58-2.07,1.2-4.16,1.83-6.25.17-.56.35-1.11.51-1.64.19-.63.4-1.28.6-1.91.63-1.98,1.28-3.95,1.95-5.91.31-.91.62-1.82.95-2.72.41-1.19.84-2.41,1.28-3.62Z"/>
          <path class="cls-5" d="m78.84,156.79c.44-1.21.89-2.42,1.34-3.6.33-.9.68-1.8,1.03-2.69.75-1.93,1.52-3.86,2.31-5.78.24-.61.51-1.24.76-1.85.22-.51.44-1.05.67-1.59.85-2,1.73-4,2.61-5.96.44-1,.88-1.94,1.33-2.91,1.62-3.52,3.3-6.95,5.01-10.28.4-.79.82-1.61,1.24-2.4,3.14-5.98,6.4-11.66,9.76-17.02.47-.77.96-1.53,1.44-2.27,3.08-4.8,6.23-9.32,9.45-13.56.38-.51.75-.99,1.14-1.47.84-1.09,1.69-2.18,2.53-3.22.85-1.03,1.69-2.05,2.53-3.03.63-.74,1.26-1.45,1.88-2.17v-.02c.56-.61,1.1-1.22,1.64-1.8l-1.75,4.8c-.89,1.16-1.76,2.32-2.63,3.51-.74,1-1.45,2-2.18,3.03-.33.44-.66.92-.98,1.39-.52.75-1.06,1.53-1.59,2.3-.78,1.14-1.57,2.31-2.34,3.5-.59.89-1.16,1.78-1.74,2.7-.27.41-.53.83-.79,1.24-.67,1.07-1.34,2.15-2,3.23-.02.05-.04.07-.06.11-.76,1.26-1.52,2.51-2.27,3.8-.74,1.26-1.48,2.53-2.21,3.82-.04.07-.08.13-.11.2-.71,1.25-1.42,2.52-2.13,3.82-1.77,3.25-3.51,6.55-5.21,9.97-.4.79-.8,1.59-1.21,2.41-.44.92-.88,1.83-1.32,2.75-.41.87-.83,1.74-1.23,2.62-.05.09-.09.18-.13.27-.36.78-.73,1.56-1.09,2.37-.55,1.2-1.09,2.4-1.63,3.63-.04.07-.07.14-.11.23-.53,1.21-1.05,2.42-1.57,3.63-.22.51-.46,1.07-.69,1.61-.63,1.49-1.26,3.01-1.87,4.54-.45,1.1-.89,2.2-1.33,3.34-.41,1.03-.81,2.07-1.21,3.14-.21.54-.41,1.06-.61,1.61-.41,1.09-.82,2.2-1.23,3.32s-.8,2.24-1.19,3.33c-.2.55-.38,1.07-.57,1.62-.38,1.07-.74,2.12-1.09,3.18-.39,1.15-.76,2.28-1.13,3.41-.51,1.56-1.01,3.13-1.49,4.68-.17.56-.35,1.14-.51,1.67-.38,1.26-.76,2.52-1.13,3.79-.03.1-.05.17-.07.24-.38,1.29-.74,2.56-1.09,3.83-.53,1.88-1.02,3.74-1.51,5.61-.26.98-.5,1.97-.76,2.95-.21.89-.42,1.76-.63,2.62-.9,3.71-1.69,7.35-2.42,10.98-.29,1.45-.57,2.88-.83,4.3-.03.07-.03.15-.05.22-.27,1.46-.52,2.9-.77,4.35-.25,1.47-.48,2.92-.7,4.37,0,.05,0,.08-.02.13-.18,1.25-.37,2.5-.54,3.76-.06.49-.14.97-.19,1.46-.14,1.08-.28,2.13-.4,3.19-.17,1.42-.32,2.82-.46,4.19-.09.94-.18,1.87-.26,2.78-.06.57-.11,1.14-.14,1.7-.1,1.25-.2,2.48-.28,3.72-.1,1.47-.18,2.92-.24,4.38l-1.75,4.8c-.04-.79-.06-1.61-.09-2.43v-.02c0-.95-.03-1.9-.04-2.87-.02-1.3,0-2.61,0-3.95.02-1.34.07-2.72.13-4.1,0-.62.04-1.22.07-1.86.25-5.31.74-10.81,1.47-16.46.1-.88.23-1.77.36-2.67.87-6.27,2.03-12.71,3.47-19.32.19-.87.39-1.77.6-2.63.83-3.65,1.75-7.35,2.77-11.1.27-1.03.55-2.03.85-3.08.58-2.07,1.2-4.16,1.83-6.25.17-.56.35-1.11.51-1.64.19-.63.4-1.28.6-1.91.63-1.98,1.28-3.95,1.95-5.91.31-.91.62-1.82.95-2.72.41-1.19.84-2.41,1.28-3.62Z"/>
        </g>
      </g>
      <g>
        <path class="cls-6" d="m99.06,222.88l-.51,4.19-7.79,63.2c-.19,1.61-1.55,2.83-3.16,2.83h-55.54c-1.63,0-3-1.22-3.18-2.83l-.8-6.55-6.93-56.65-.51-4.19h78.42Z"/>
        <path class="cls-6" d="m108.1,209.61v10.07c0,1.78-1.44,3.2-3.22,3.2H14.82c-1.78,0-3.22-1.42-3.22-3.2v-10.07c0-1.78,1.44-3.22,3.22-3.22h90.06c.15,0,.32.02.47.04,1.55.22,2.75,1.55,2.75,3.18Z"/>
        <polygon class="cls-7" points="99.06 222.88 98.55 227.07 21.15 227.07 20.64 222.88 99.06 222.88"/>
        <path class="cls-1" d="m108.1,209.61v10.07c0,1.78-1.44,3.2-3.22,3.2h-5.82l-.51,4.19-7.79,63.2c-.19,1.61-1.55,2.83-3.16,2.83h-55.54c-1.63,0-3-1.22-3.18-2.83l-.8-6.55,56.63-56.65,4.19-4.19,16.45-16.45c1.55.22,2.75,1.55,2.75,3.18Z"/>
      </g>
    </g>
  </g>
</svg>