<?xml version="1.0" encoding="UTF-8"?>
<svg id="Layer_2" data-name="Layer 2" xmlns="http://www.w3.org/2000/svg" viewBox="0 0 51.55 86.3">
  <defs>
    <style>
      .cls-1 {
        fill: #0e0d0d;
        opacity: .1;
      }

      .cls-1, .cls-2, .cls-3, .cls-4, .cls-5, .cls-6 {
        stroke-width: 0px;
      }

      .cls-2 {
        fill: #6ebe44;
      }

      .cls-3 {
        fill: #188140;
      }

      .cls-4 {
        fill: #134d26;
      }

      .cls-5 {
        fill: #996239;
      }

      .cls-6 {
        fill: #664126;
      }
    </style>
  </defs>
  <g id="Rum">
    <g id="Plante_2" data-name="Plante 2">
      <g>
        <g>
          <path class="cls-2" d="m34.87,27.9c0,10.39-3.29,20.02-8.87,27.9,0,0,0-.02-.02-.02-5.6-7.88-8.89-17.49-8.89-27.88S20.38,7.9,25.97.02c.02,0,.02-.02.02-.02,5.6,7.88,8.87,17.49,8.87,27.9Z"/>
          <path class="cls-3" d="m34.87,27.9c0,10.39-3.29,20.02-8.87,27.9,0,0,0-.02-.02-.02-5.6-7.88-8.89-17.49-8.89-27.88S20.38,7.9,25.97.02c.02,0,.02-.02.02-.02,5.6,7.88,8.87,17.49,8.87,27.9Z"/>
          <path class="cls-4" d="m34.87,27.9c0,10.39-3.29,20.02-8.87,27.9,0,0,0-.02-.02-.02V.02s.02-.02.02-.02c5.6,7.88,8.87,17.49,8.87,27.9Z"/>
        </g>
        <g>
          <path class="cls-2" d="m45.53,37.34c-4.56,8.22-11.4,14.4-19.28,18.19,0,0,.01-.02,0-.03-.97-8.7.64-17.75,5.21-25.97,4.57-8.24,11.39-14.38,19.28-18.16.02.01.03,0,.03,0,.97,8.7-.66,17.74-5.23,25.98Z"/>
          <path class="cls-3" d="m45.53,37.34c-4.56,8.22-11.4,14.4-19.28,18.19,0,0,.01-.02,0-.03-.97-8.7.64-17.75,5.21-25.97,4.57-8.24,11.39-14.38,19.28-18.16.02.01.03,0,.03,0,.97,8.7-.66,17.74-5.23,25.98Z"/>
          <path class="cls-4" d="m45.53,37.34c-4.56,8.22-11.4,14.4-19.28,18.19,0,0,.01-.02,0-.03L50.74,11.37s.03,0,.03,0c.97,8.7-.66,17.74-5.23,25.98Z"/>
        </g>
        <g>
          <path class="cls-2" d="m20.68,29.47c4.67,8.17,6.4,17.22,5.56,25.91,0,0-.01-.02-.03,0-7.94-3.68-14.84-9.75-19.51-17.92C2.03,29.27.31,20.26,1.17,11.55c.02-.01,0-.03,0-.03,7.94,3.68,14.83,9.76,19.5,17.95Z"/>
          <path class="cls-3" d="m20.68,29.47c4.67,8.17,6.4,17.22,5.56,25.91,0,0-.01-.02-.03,0-7.94-3.68-14.84-9.75-19.51-17.92C2.03,29.27.31,20.26,1.17,11.55c.02-.01,0-.03,0-.03,7.94,3.68,14.83,9.76,19.5,17.95Z"/>
          <path class="cls-4" d="m20.68,29.47c4.67,8.17,6.4,17.22,5.56,25.91,0,0-.01-.02-.03,0L1.17,11.55s0-.03,0-.03c7.94,3.68,14.83,9.76,19.5,17.95Z"/>
        </g>
      </g>
      <g>
        <path class="cls-5" d="m46.72,48.79l-.27,2.24-4.16,33.76c-.1.86-.83,1.51-1.69,1.51H10.93c-.87,0-1.6-.65-1.7-1.51l-.43-3.5-3.7-30.26-.27-2.24h41.89Z"/>
        <path class="cls-5" d="m51.55,41.7v5.38c0,.95-.77,1.71-1.72,1.71H1.72c-.95,0-1.72-.76-1.72-1.71v-5.38c0-.95.77-1.72,1.72-1.72h48.11c.08,0,.17.01.25.02.83.12,1.47.83,1.47,1.7Z"/>
        <polygon class="cls-6" points="46.72 48.79 46.45 51.03 5.1 51.03 4.83 48.79 46.72 48.79"/>
        <path class="cls-1" d="m51.55,41.7v5.38c0,.95-.77,1.71-1.72,1.71h-3.11l-.27,2.24-4.16,33.76c-.1.86-.83,1.51-1.69,1.51H10.93c-.87,0-1.6-.65-1.7-1.51l-.43-3.5,30.25-30.26,2.24-2.24,8.79-8.79c.83.12,1.47.83,1.47,1.7Z"/>
      </g>
    </g>
  </g>
</svg>