<?xml version="1.0" encoding="UTF-8"?>
<svg id="Layer_2" data-name="Layer 2" xmlns="http://www.w3.org/2000/svg" xmlns:xlink="http://www.w3.org/1999/xlink" viewBox="0 0 502.29 740">
  <defs>
    <style>
      .cls-1 {
        letter-spacing: 0em;
      }

      .cls-2 {
        font-size: 21.33px;
      }

      .cls-2, .cls-3, .cls-4, .cls-5, .cls-6, .cls-7, .cls-8, .cls-9, .cls-10, .cls-11, .cls-12, .cls-13, .cls-14 {
        fill: #0e0d0d;
      }

      .cls-2, .cls-3, .cls-4, .cls-8, .cls-9, .cls-10, .cls-11, .cls-12, .cls-13, .cls-14 {
        font-family: Poppins-Bold, Poppins;
        font-weight: 700;
      }

      .cls-2, .cls-4, .cls-6, .cls-15, .cls-8, .cls-16, .cls-17, .cls-18, .cls-19, .cls-20, .cls-9, .cls-10, .cls-11, .cls-12, .cls-13, .cls-14 {
        stroke-miterlimit: 10;
      }

      .cls-2, .cls-4, .cls-9, .cls-10, .cls-11, .cls-12, .cls-14 {
        stroke: #fff;
        stroke-width: .41px;
      }

      .cls-21 {
        letter-spacing: 0em;
      }

      .cls-22 {
        letter-spacing: 0em;
      }

      .cls-23 {
        fill: none;
      }

      .cls-23, .cls-24, .cls-25, .cls-26, .cls-27, .cls-28, .cls-29, .cls-30, .cls-31, .cls-32, .cls-33, .cls-34, .cls-35, .cls-36, .cls-37, .cls-38, .cls-39, .cls-40, .cls-41, .cls-42, .cls-43, .cls-44, .cls-45, .cls-46, .cls-47, .cls-48, .cls-49, .cls-50, .cls-51, .cls-52, .cls-53, .cls-54 {
        stroke-width: 0px;
      }

      .cls-3 {
        font-size: 13.94px;
      }

      .cls-4 {
        font-size: 21.33px;
      }

      .cls-5 {
        font-size: 19.01px;
      }

      .cls-5, .cls-7 {
        font-family: CooperBlack, 'Cooper Black';
      }

      .cls-6 {
        stroke-width: .82px;
      }

      .cls-6, .cls-8, .cls-13 {
        stroke: #f2eaea;
      }

      .cls-7 {
        font-size: 22.81px;
      }

      .cls-15, .cls-16 {
        stroke: #000;
        stroke-width: .25px;
      }

      .cls-15, .cls-48 {
        fill: #fff;
      }

      .cls-8 {
        font-size: 82.03px;
      }

      .cls-8, .cls-13 {
        stroke-width: .82px;
      }

      .cls-16, .cls-29 {
        fill: #2b2727;
      }

      .cls-17, .cls-18, .cls-19, .cls-20 {
        stroke: #6d6e71;
        stroke-width: .5px;
      }

      .cls-17, .cls-28 {
        fill: #62ccf2;
      }

      .cls-18, .cls-41 {
        fill: #97ca3d;
      }

      .cls-19, .cls-49 {
        fill: #f05050;
      }

      .cls-20, .cls-45 {
        fill: #fee54c;
      }

      .cls-24 {
        fill: #e8692b;
      }

      .cls-24, .cls-55 {
        opacity: .9;
      }

      .cls-56 {
        letter-spacing: 0em;
      }

      .cls-57 {
        letter-spacing: 0em;
      }

      .cls-9 {
        font-size: 21.33px;
      }

      .cls-58 {
        letter-spacing: 0em;
      }

      .cls-25 {
        fill: #a7a9ac;
        opacity: .5;
      }

      .cls-10 {
        font-size: 21.33px;
      }

      .cls-11 {
        font-size: 21.33px;
      }

      .cls-59 {
        letter-spacing: -.03em;
      }

      .cls-60 {
        letter-spacing: -.02em;
      }

      .cls-61 {
        letter-spacing: .01em;
      }

      .cls-12 {
        font-size: 21.33px;
      }

      .cls-62 {
        letter-spacing: 0em;
      }

      .cls-63 {
        letter-spacing: 0em;
      }

      .cls-27 {
        fill: #82b066;
      }

      .cls-30 {
        fill: #2a6e40;
      }

      .cls-31 {
        fill: #58a253;
      }

      .cls-32 {
        fill: #6d6e71;
      }

      .cls-33 {
        fill: #58595b;
      }

      .cls-34 {
        fill: #35884f;
      }

      .cls-35 {
        fill: #144e8c;
      }

      .cls-36 {
        fill: #cc342a;
      }

      .cls-37 {
        fill: #b22625;
      }

      .cls-38 {
        fill: #af7e66;
      }

      .cls-39 {
        fill: #b37573;
      }

      .cls-40 {
        fill: #8c182d;
      }

      .cls-42 {
        fill: #7d7747;
      }

      .cls-43 {
        fill: #00a651;
      }

      .cls-44 {
        fill: #81ad5a;
      }

      .cls-46 {
        fill: #fffdf3;
      }

      .cls-47 {
        fill: #fff200;
      }

      .cls-50 {
        fill: #ed1c24;
      }

      .cls-51 {
        fill: #e7af63;
      }

      .cls-52 {
        fill: #fbf396;
      }

      .cls-53 {
        fill: #fefbe2;
      }

      .cls-54 {
        fill: #00aeef;
      }

      .cls-13 {
        font-size: 31.17px;
      }

      .cls-14 {
        font-size: 21.33px;
      }
    </style>
  </defs>
  <g id="Rum">
    <g>
      <g id="Plakat_hvilket_spil_er_du_" data-name="Plakat &amp;quot;hvilket spil er du?&amp;quot;">
        <line class="cls-23" x1="269.64" y1="328.24" x2="261.83" y2="343.25"/>
        <polygon class="cls-37" points="2.57 66.68 87.64 336.13 144.79 365.85 312.55 312.88 213.77 0 2.57 66.68"/>
        <polygon id="Hjørne" class="cls-39" points="145.31 367.5 131.6 324.06 88.16 337.77 145.31 367.5"/>
        <g>
          <text class="cls-13" transform="translate(111.52 253.95) rotate(-17.52)"><tspan x="0" y="0">HVILKET </tspan><tspan x="-23.94" y="28.71">SPIL ER DU?</tspan></text>
          <text class="cls-3" transform="translate(119.67 306.33) rotate(-17.52)"><tspan x="0" y="0">TAG TESTEN OG FIND </tspan><tspan x="36.44" y="16.73">UD AF DET</tspan></text>
          <text class="cls-2" transform="translate(93.54 107.91) rotate(-30.93)"><tspan x="0" y="0">?</tspan></text>
          <text class="cls-4" transform="translate(181.32 186.41) rotate(-5.13)"><tspan x="0" y="0">?</tspan></text>
          <text class="cls-9" transform="translate(198.32 89.04) rotate(4.2)"><tspan x="0" y="0">?</tspan></text>
          <text class="cls-11" transform="translate(97.92 164.59) rotate(-13.37)"><tspan x="0" y="0">?</tspan></text>
          <text class="cls-12" transform="translate(52.7 144.42) rotate(-8.76)"><tspan x="0" y="0">?</tspan></text>
          <text class="cls-2" transform="translate(231.51 171.31) rotate(-30.93)"><tspan x="0" y="0">?</tspan></text>
          <text class="cls-14" transform="translate(153.28 77.62) rotate(-17.52)"><tspan x="0" y="0">?</tspan></text>
          <text class="cls-10" transform="translate(81.52 214.25) rotate(-1)"><tspan x="0" y="0">?</tspan></text>
          <text class="cls-10" transform="translate(192.64 137.53) rotate(-1)"><tspan x="0" y="0">?</tspan></text>
          <text class="cls-8" transform="translate(131.26 179.51) rotate(-17.52)"><tspan x="0" y="0">?</tspan></text>
          <path class="cls-6" d="m148.64,115.1c4.28,1.86,7.27,5.45,8.95,10.77,1.55,4.9,1.15,9.23-1.19,12.98-2.34,3.75-6.14,6.49-11.39,8.2l1.46,5.99-11.73,3.7-4.98-14.42,4.69-1.48c4.01-1.27,6.92-2.73,8.72-4.39,1.8-1.66,2.29-3.79,1.46-6.4-.58-1.82-1.53-3.1-2.84-3.83-1.32-.73-2.87-.82-4.64-.26-1.88.59-3.17,1.59-3.87,2.99-.71,1.4-.77,3.01-.2,4.84l-12.59,3.98c-1.11-3.15-1.35-6.23-.72-9.24.63-3.01,2.12-5.71,4.5-8.09,2.37-2.38,5.56-4.21,9.58-5.48,5.58-1.76,10.51-1.71,14.8.14Zm-7.87,59.82c-1.92-.91-3.2-2.39-3.84-4.42-.66-2.09-.47-4.07.57-5.95,1.04-1.88,2.73-3.19,5.08-3.93,2.29-.72,4.41-.62,6.34.32,1.93.94,3.23,2.45,3.88,4.54.64,2.03.44,3.98-.61,5.83-1.05,1.85-2.72,3.14-5.02,3.86-2.35.74-4.48.66-6.4-.26Z"/>
        </g>
        <circle class="cls-33" cx="206.7" cy="17.65" r="4.46"/>
        <circle class="cls-33" cx="299.58" cy="306.29" r="4.46"/>
        <image class="cls-55" width="1500" height="1135" transform="translate(9.06 71.46) rotate(-17.52) scale(.03)" xlink:href="../../Downloads/SC-logo-2023-transparant-BG+Small+Crop.png"/>
        <path id="tape" class="cls-25" d="m11.31,113.97l-11.31-6.11c10.46-19.35,20.92-38.69,31.38-58.04,3.77,2.04,7.54,4.07,11.31,6.11-10.46,19.35-20.92,38.69-31.38,58.04Z"/>
      </g>
      <g id="Plakat_hvis_du_spiller_partners_" data-name="Plakat &amp;quot;hvis du spiller partners&amp;quot;">
        <rect id="Baggrund" class="cls-46" x="91.92" y="339.46" width="342.14" height="359.65" transform="translate(150.11 -51.75) rotate(15.68)"/>
        <g id="Ludo">
          <g id="Baggrund-2" data-name="Baggrund">
            <rect class="cls-53" x="277.03" y="593.47" width="107.11" height="107.11" transform="translate(-319.36 971.83) rotate(-89.49)"/>
            <path class="cls-32" d="m383.91,701.31h-.25s-107.36-.96-107.36-.96v-.25s.96-107.36.96-107.36h.25s107.36.96,107.36.96v.25s-.96,107.36-.96,107.36Zm-107.1-1.46l106.6.95.95-106.6-106.6-.95-.95,106.6Z"/>
          </g>
          <g id="Linjer">
            <rect class="cls-32" x="337.76" y="611.39" width=".5" height="7.14" transform="translate(-279.93 947.5) rotate(-89.49)"/>
            <rect class="cls-32" x="323.48" y="611.26" width=".5" height="7.14" transform="translate(-294.06 932.88) rotate(-89.47)"/>
            <rect class="cls-32" x="323.55" y="604.12" width=".5" height="7.14" transform="translate(-286.75 926.08) rotate(-89.49)"/>
            <rect class="cls-32" x="323.61" y="596.98" width=".5" height="7.14" transform="translate(-279.55 919.07) rotate(-89.49)"/>
            <rect class="cls-32" x="337.12" y="682.8" width=".5" height="7.14" transform="translate(-351.96 1017.63) rotate(-89.49)"/>
            <rect class="cls-32" x="337.7" y="618.53" width=".5" height="7.14" transform="translate(-287.13 954.51) rotate(-89.49)"/>
            <rect class="cls-32" x="323.42" y="618.4" width=".5" height="7.14" transform="translate(-301.16 940.11) rotate(-89.49)"/>
            <rect class="cls-32" x="337.63" y="625.67" width=".5" height="7.14" transform="translate(-294.45 961.3) rotate(-89.47)"/>
            <rect class="cls-32" x="323.35" y="625.54" width=".5" height="7.14" transform="translate(-308.36 947.12) rotate(-89.49)"/>
            <rect class="cls-32" x="337.06" y="689.93" width=".5" height="7.14" transform="translate(-359.16 1024.64) rotate(-89.49)"/>
            <rect class="cls-32" x="380.42" y="640.27" width=".5" height="7.27" transform="translate(-266.66 1018.73) rotate(-89.48)"/>
            <polygon class="cls-32" points="284.2 643.3 276.93 643.23 276.93 642.73 277.06 642.73 284.21 642.79 284.2 643.3"/>
            <rect class="cls-32" x="380.35" y="647.41" width=".5" height="7.27" transform="translate(-273.86 1025.74) rotate(-89.48)"/>
            <polygon class="cls-32" points="284.14 650.43 276.86 650.37 276.87 649.87 277 649.87 284.15 649.93 284.14 650.43"/>
            <rect class="cls-32" x="323.04" y="661.25" width=".5" height="7.14" transform="translate(-344.38 982.19) rotate(-89.49)"/>
            <rect class="cls-32" x="337.32" y="661.38" width=".5" height="7.14" transform="translate(-330.35 996.59) rotate(-89.49)"/>
            <rect class="cls-32" x="322.97" y="668.38" width=".5" height="7.14" transform="translate(-351.58 989.2) rotate(-89.49)"/>
            <rect class="cls-32" x="337.25" y="668.51" width=".5" height="7.14" transform="translate(-337.55 1003.6) rotate(-89.49)"/>
            <rect class="cls-32" x="322.91" y="675.52" width=".5" height="7.14" transform="translate(-358.78 996.21) rotate(-89.49)"/>
            <rect class="cls-32" x="337.19" y="675.65" width=".5" height="7.14" transform="translate(-344.75 1010.61) rotate(-89.49)"/>
            <polygon class="cls-32" points="298.61 657.46 298.11 657.45 298.11 657.13 298.17 650.31 298.67 650.31 298.61 657.46"/>
            <rect class="cls-32" x="294.95" y="639.35" width="7.14" height=".5" transform="translate(-343.95 931.9) rotate(-89.44)"/>
            <rect class="cls-32" x="287.68" y="653.57" width="7.14" height=".5" transform="translate(-365.36 938.71) rotate(-89.44)"/>
            <rect class="cls-32" x="280.54" y="653.5" width="7.14" height=".5" transform="translate(-372.37 931.5) rotate(-89.44)"/>
            <rect class="cls-32" x="366.35" y="639.99" width="7.14" height=".5" transform="translate(-273.88 1003.93) rotate(-89.44)"/>
            <rect class="cls-32" x="301.96" y="653.69" width="7.14" height=".5" transform="translate(-351.35 953.11) rotate(-89.44)"/>
            <rect class="cls-32" x="302.09" y="639.41" width="7.14" height=".5" transform="translate(-336.94 939.1) rotate(-89.44)"/>
            <rect class="cls-32" x="309.1" y="653.76" width="7.14" height=".5" transform="translate(-344.34 960.32) rotate(-89.44)"/>
            <rect class="cls-32" x="309.23" y="639.48" width="7.14" height=".5" transform="translate(-329.94 946.31) rotate(-89.44)"/>
            <rect class="cls-32" x="373.49" y="640.05" width="7.14" height=".5" transform="translate(-266.87 1011.13) rotate(-89.44)"/>
            <rect class="cls-32" x="323.89" y="596.76" width="7.14" height=".5" transform="translate(-272.7 918.67) rotate(-89.44)"/>
            <rect class="cls-32" x="322.86" y="696.86" width="7.41" height=".5" transform="translate(-373.68 1016.9) rotate(-89.44)"/>
            <rect class="cls-32" x="331.03" y="596.83" width="7.14" height=".5" transform="translate(-265.69 925.87) rotate(-89.44)"/>
            <rect class="cls-32" x="330" y="696.93" width="7.41" height=".5" transform="translate(-366.67 1024.1) rotate(-89.44)"/>
            <polygon class="cls-32" points="348.59 657.9 348.09 657.89 348.09 657.57 348.15 650.75 348.66 650.76 348.59 657.9"/>
            <rect class="cls-32" x="344.93" y="639.8" width="7.14" height=".5" transform="translate(-294.9 982.32) rotate(-89.44)"/>
            <rect class="cls-32" x="351.95" y="654.14" width="7.14" height=".5" transform="translate(-302.3 1003.54) rotate(-89.44)"/>
            <rect class="cls-32" x="352.07" y="639.86" width="7.14" height=".5" transform="translate(-287.89 989.52) rotate(-89.44)"/>
            <rect class="cls-32" x="359.08" y="654.2" width="7.14" height=".5" transform="translate(-295.29 1010.74) rotate(-89.44)"/>
            <rect class="cls-32" x="359.21" y="639.92" width="7.14" height=".5" transform="translate(-280.89 996.72) rotate(-89.44)"/>
          </g>
          <g id="Gul">
            <g>
              <rect class="cls-45" x="298.46" y="643.2" width="7.14" height="7.14" transform="translate(-347.42 943.01) rotate(-89.49)"/>
              <path class="cls-32" d="m305.81,650.63l-7.64-.07.07-7.64,7.64.07-.07,7.64Zm-7.14-.57l6.64.06.06-6.63-6.64-.06-.06,6.63Z"/>
            </g>
            <g>
              <rect class="cls-45" x="305.6" y="643.27" width="7.14" height="7.14" transform="translate(-340.4 950.22) rotate(-89.49)"/>
              <path class="cls-32" d="m312.95,650.69l-7.64-.07.07-7.64,7.65.07-.07,7.64Zm-7.14-.57l6.64.06.06-6.63-6.64-.06-.06,6.63Z"/>
            </g>
            <g>
              <polygon class="cls-45" points="319.97 636.23 330.59 647.02 319.78 657.64 319.97 636.23"/>
              <path class="cls-32" d="m319.52,658.24l.2-22.62,11.22,11.4-11.42,11.22Zm.69-21.41l-.18,20.2,10.2-10.02-10.02-10.18Z"/>
            </g>
            <g>
              <rect class="cls-45" x="312.74" y="643.33" width="7.14" height="7.14" transform="translate(-333.39 957.42) rotate(-89.49)"/>
              <path class="cls-32" d="m320.09,650.75l-7.64-.07.07-7.64,7.64.07-.07,7.64Zm-7.13-.57l6.64.06.06-6.63-6.63-.06-.06,6.63Z"/>
            </g>
            <path class="cls-20" d="m277.13,635.84l42.84.38.38-42.84-42.84-.38-.38,42.84Zm36.02-35.38l-.25,28.56-28.56-.25.25-28.56,28.56.25Z"/>
            <g>
              <rect class="cls-45" x="300.76" y="616.73" width="7.14" height="7.14" transform="translate(-318.66 919.08) rotate(-89.49)"/>
              <path class="cls-32" d="m308.12,624.15l-7.65-.07.07-7.64,7.64.07-.07,7.64Zm-7.14-.57l6.64.06.06-6.64-6.64-.06-.06,6.64Z"/>
            </g>
            <g>
              <rect class="cls-45" x="300.86" y="605.45" width="7.14" height="7.14" transform="translate(-307.29 908) rotate(-89.49)"/>
              <path class="cls-32" d="m308.22,612.88l-7.64-.07.07-7.65,7.64.07-.07,7.65Zm-7.14-.57l6.64.06.06-6.64-6.64-.06-.06,6.64Z"/>
            </g>
            <g>
              <rect class="cls-45" x="289.58" y="605.35" width="7.14" height="7.14" transform="translate(-318.36 896.63) rotate(-89.49)"/>
              <path class="cls-32" d="m296.94,612.78l-7.64-.07.07-7.64,7.64.07-.07,7.64Zm-7.13-.57l6.64.06.06-6.64-6.64-.06-.06,6.64Z"/>
            </g>
            <g>
              <rect class="cls-45" x="289.48" y="616.63" width="7.14" height="7.14" transform="translate(-329.73 907.71) rotate(-89.49)"/>
              <path class="cls-32" d="m296.84,624.05l-7.64-.07.07-7.65,7.64.07-.07,7.65Zm-7.13-.57l6.63.06.06-6.64-6.64-.06-.06,6.64Z"/>
            </g>
            <g>
              <rect class="cls-45" x="284.24" y="635.94" width="7.14" height="7.14" transform="translate(-354.24 921.6) rotate(-89.49)"/>
              <path class="cls-32" d="m291.6,643.36l-7.64-.07.07-7.64,7.64.07-.07,7.65Zm-7.14-.57l6.64.06.06-6.64-6.64-.06-.06,6.64Z"/>
            </g>
            <g>
              <rect class="cls-45" x="284.18" y="643.08" width="7.14" height="7.14" transform="translate(-361.44 928.61) rotate(-89.49)"/>
              <path class="cls-32" d="m291.53,650.5l-7.64-.07.07-7.64,7.64.07-.07,7.64Zm-7.14-.57l6.64.06.06-6.63-6.64-.06-.06,6.64Z"/>
            </g>
            <g>
              <rect class="cls-45" x="291.32" y="643.14" width="7.14" height="7.14" transform="translate(-354.43 935.81) rotate(-89.49)"/>
              <path class="cls-32" d="m298.67,650.56l-7.64-.07.07-7.64,7.64.07-.07,7.64Zm-7.13-.57l6.64.06.06-6.63-6.64-.06-.06,6.63Z"/>
            </g>
          </g>
          <g id="Grøn">
            <g>
              <rect class="cls-41" x="326.76" y="672.02" width="7.14" height="7.14" transform="translate(-348.18 999.88) rotate(-89.49)"/>
              <path class="cls-32" d="m334.12,679.44l-7.64-.07.07-7.64,7.64.07-.07,7.64Zm-7.14-.57l6.64.06.06-6.64-6.64-.06-.06,6.64Z"/>
            </g>
            <g>
              <rect class="cls-41" x="326.83" y="664.88" width="7.14" height="7.14" transform="translate(-340.97 992.87) rotate(-89.49)"/>
              <path class="cls-32" d="m334.18,672.3l-7.64-.07.07-7.64,7.64.07-.07,7.64Zm-7.14-.57l6.64.06.06-6.63-6.64-.06-.06,6.64Z"/>
            </g>
            <g>
              <polygon class="cls-41" points="330.59 647.03 341.2 657.83 319.78 657.64 330.59 647.03"/>
              <path class="cls-32" d="m341.81,658.09l-22.64-.2,11.42-11.22,11.22,11.42Zm-21.42-.69l20.22.18-10.02-10.2-10.2,10.02Z"/>
            </g>
            <g>
              <rect class="cls-41" x="319.49" y="686.24" width="7.14" height="7.14" transform="translate(-369.6 1006.7) rotate(-89.49)"/>
              <path class="cls-32" d="m326.85,693.66l-7.65-.07.07-7.64,7.65.07-.07,7.64Zm-7.14-.57l6.64.06.06-6.63-6.64-.06-.06,6.63Z"/>
            </g>
            <g>
              <rect class="cls-41" x="326.64" y="686.3" width="7.14" height="7.14" transform="translate(-362.58 1013.91) rotate(-89.49)"/>
              <path class="cls-32" d="m333.99,693.72l-7.64-.07.07-7.64,7.64.07-.07,7.64Zm-7.14-.57l6.64.06.06-6.63-6.64-.06-.06,6.63Z"/>
            </g>
            <path class="cls-18" d="m276.55,700.1l42.84.38.38-42.84-42.84-.38-.38,42.84Zm36.02-35.38l-.25,28.56-28.56-.25.25-28.56,28.56.25Z"/>
            <g>
              <rect class="cls-41" x="300.21" y="681.4" width="7.14" height="7.14" transform="translate(-383.88 982.63) rotate(-89.49)"/>
              <path class="cls-32" d="m307.57,688.83l-7.65-.07.07-7.64,7.65.07-.07,7.65Zm-7.14-.57l6.64.06.06-6.64-6.64-.06-.06,6.64Z"/>
            </g>
            <g>
              <rect class="cls-41" x="300.81" y="669.72" width="7.14" height="7.14" transform="translate(-371.59 971.66) rotate(-89.49)"/>
              <path class="cls-32" d="m308.17,677.15l-7.64-.07.07-7.64,7.64.07-.07,7.64Zm-7.14-.57l6.64.06.06-6.64-6.64-.06-.06,6.64Z"/>
            </g>
            <g>
              <rect class="cls-41" x="288.73" y="669.36" width="7.14" height="7.14" transform="translate(-383.22 959.21) rotate(-89.49)"/>
              <path class="cls-32" d="m296.08,676.79l-7.64-.07.07-7.64,7.64.07-.07,7.64Zm-7.13-.57l6.63.06.06-6.64-6.64-.06-.06,6.64Z"/>
            </g>
            <g>
              <rect class="cls-41" x="288.62" y="681.39" width="7.14" height="7.14" transform="translate(-395.35 971.03) rotate(-89.49)"/>
              <path class="cls-32" d="m295.98,688.82l-7.64-.07.07-7.64,7.64.07-.07,7.64Zm-7.13-.57l6.63.06.06-6.64-6.64-.06-.06,6.64Z"/>
            </g>
            <g>
              <rect class="cls-41" x="326.7" y="679.16" width="7.14" height="7.14" transform="translate(-355.38 1006.89) rotate(-89.49)"/>
              <path class="cls-32" d="m334.06,686.59l-7.64-.07.07-7.65,7.64.07-.07,7.65Zm-7.14-.57l6.64.06.06-6.64-6.64-.06-.06,6.64Z"/>
            </g>
            <g>
              <rect class="cls-41" x="326.89" y="657.74" width="7.14" height="7.14" transform="translate(-333.77 985.86) rotate(-89.49)"/>
              <path class="cls-32" d="m334.25,665.17l-7.64-.07.07-7.64,7.65.07-.07,7.65Zm-7.14-.57l6.64.06.06-6.64-6.64-.06-.06,6.64Z"/>
            </g>
          </g>
          <g id="Blå">
            <g>
              <polygon class="cls-28" points="319.96 636.23 341.4 636.42 330.59 647.03 319.96 636.23"/>
              <path class="cls-32" d="m330.58,647.38l-11.22-11.41,22.65.2-11.42,11.21Zm-10.02-10.9l10.02,10.19,10.2-10.01-20.23-.18Z"/>
            </g>
            <path class="cls-17" d="m341.39,636.41l42.98.38.38-42.84-42.98-.38-.38,42.84Zm7.21-7.08l.25-28.56,28.56.25-.25,28.56-28.56-.25Z"/>
            <g>
              <rect class="cls-28" x="353.91" y="605.99" width="7.14" height="7.14" transform="translate(-255.24 961.58) rotate(-89.49)"/>
              <path class="cls-32" d="m361.26,613.41l-7.64-.07.07-7.64,7.64.07-.07,7.64Zm-7.13-.57l6.63.06.06-6.64-6.63-.06-.06,6.64Z"/>
            </g>
            <g>
              <rect class="cls-28" x="365.06" y="606.09" width="7.14" height="7.14" transform="translate(-244.29 972.83) rotate(-89.49)"/>
              <path class="cls-32" d="m372.42,613.51l-7.64-.07.07-7.64,7.64.07-.07,7.64Zm-7.14-.57l6.64.06.06-6.64-6.64-.06-.06,6.64Z"/>
            </g>
            <g>
              <rect class="cls-28" x="334.54" y="600.68" width="7.14" height="7.14" transform="translate(-269.13 936.95) rotate(-89.49)"/>
              <path class="cls-32" d="m341.9,608.1l-7.64-.07.07-7.64,7.64.07-.07,7.64Zm-7.13-.57l6.64.06.06-6.63-6.64-.06-.06,6.63Z"/>
            </g>
            <g>
              <rect class="cls-28" x="327.4" y="600.62" width="7.14" height="7.14" transform="translate(-276.15 929.75) rotate(-89.49)"/>
              <path class="cls-32" d="m334.76,608.04l-7.64-.07.07-7.64,7.64.07-.07,7.64Zm-7.14-.57l6.64.06.06-6.63-6.64-.06-.06,6.63Z"/>
            </g>
            <g>
              <rect class="cls-28" x="364.96" y="617.24" width="7.14" height="7.14" transform="translate(-255.54 983.79) rotate(-89.49)"/>
              <path class="cls-32" d="m372.32,624.67l-7.64-.07.07-7.64,7.64.07-.07,7.64Zm-7.14-.57l6.64.06.06-6.64-6.64-.06-.06,6.64Z"/>
            </g>
            <g>
              <rect class="cls-28" x="327.33" y="607.75" width="7.14" height="7.14" transform="translate(-283.35 936.76) rotate(-89.49)"/>
              <path class="cls-32" d="m334.69,615.18l-7.64-.07.07-7.65,7.64.07-.07,7.65Zm-7.14-.57l6.64.06.06-6.64-6.64-.06-.06,6.64Z"/>
            </g>
            <g>
              <rect class="cls-28" x="327.27" y="614.9" width="7.14" height="7.14" transform="translate(-290.55 943.78) rotate(-89.49)"/>
              <path class="cls-32" d="m334.63,622.32l-7.64-.07.07-7.64,7.64.07-.07,7.64Zm-7.14-.57l6.64.06.06-6.64-6.64-.06-.06,6.64Z"/>
            </g>
            <g>
              <rect class="cls-28" x="327.21" y="622.04" width="7.14" height="7.14" transform="translate(-297.76 950.79) rotate(-89.49)"/>
              <path class="cls-32" d="m334.57,629.46l-7.64-.07.07-7.64,7.64.07-.07,7.64Zm-7.14-.57l6.64.06.06-6.63-6.64-.06-.06,6.63Z"/>
            </g>
            <g>
              <rect class="cls-28" x="327.14" y="629.18" width="7.14" height="7.14" transform="translate(-304.96 957.8) rotate(-89.49)"/>
              <path class="cls-32" d="m334.5,636.6l-7.65-.07.07-7.65,7.64.07-.07,7.65Zm-7.14-.57l6.64.06.06-6.64-6.64-.06-.06,6.64Z"/>
            </g>
            <g>
              <rect class="cls-28" x="353.81" y="617.14" width="7.14" height="7.14" transform="translate(-266.5 972.54) rotate(-89.49)"/>
              <path class="cls-32" d="m361.16,624.57l-7.64-.07.07-7.64,7.64.07-.07,7.64Zm-7.13-.57l6.63.06.06-6.64-6.63-.06-.06,6.64Z"/>
            </g>
          </g>
          <g id="Rød">
            <path class="cls-19" d="m340.82,700.68l42.98.38.38-42.84-42.98-.38-.38,42.84Zm7.21-7.08l.25-28.56,28.56.25-.25,28.56-28.56-.25Z"/>
            <g>
              <rect class="cls-49" x="364.39" y="681.5" width="7.14" height="7.14" transform="translate(-320.37 1046.9) rotate(-89.49)"/>
              <path class="cls-32" d="m371.74,688.93l-7.64-.07.07-7.65,7.64.07-.07,7.64Zm-7.14-.57l6.64.06.06-6.64-6.64-.06-.06,6.64Z"/>
            </g>
            <g>
              <rect class="cls-49" x="348.44" y="643.65" width="7.14" height="7.14" transform="translate(-298.33 993.44) rotate(-89.49)"/>
              <path class="cls-32" d="m355.8,651.07l-7.65-.07.07-7.64,7.64.07-.07,7.64Zm-7.14-.57l6.64.06.06-6.63-6.64-.06-.06,6.63Z"/>
            </g>
            <g>
              <rect class="cls-49" x="341.3" y="643.58" width="7.14" height="7.14" transform="translate(-305.34 986.23) rotate(-89.49)"/>
              <path class="cls-32" d="m348.65,651.01l-7.64-.07.07-7.64,7.65.07-.07,7.64Zm-7.14-.57l6.64.06.06-6.63-6.64-.06-.06,6.64Z"/>
            </g>
            <g>
              <rect class="cls-49" x="353.33" y="670.25" width="7.14" height="7.14" transform="translate(-320.07 1024.7) rotate(-89.49)"/>
              <path class="cls-32" d="m360.69,677.68l-7.64-.07.07-7.64,7.64.07-.07,7.64Zm-7.13-.57l6.64.06.06-6.64-6.63-.06-.06,6.64Z"/>
            </g>
            <g>
              <rect class="cls-49" x="364.49" y="670.35" width="7.14" height="7.14" transform="translate(-309.12 1035.95) rotate(-89.49)"/>
              <path class="cls-32" d="m371.84,677.78l-7.65-.07.07-7.65,7.64.07-.07,7.65Zm-7.14-.57l6.64.06.06-6.64-6.64-.06-.06,6.64Z"/>
            </g>
            <g>
              <rect class="cls-49" x="369.79" y="650.98" width="7.14" height="7.14" transform="translate(-284.49 1022.06) rotate(-89.49)"/>
              <path class="cls-32" d="m377.15,658.41l-7.64-.07.07-7.65,7.64.07-.07,7.65Zm-7.14-.57l6.64.06.06-6.64-6.64-.06-.06,6.64Z"/>
            </g>
            <g>
              <rect class="cls-49" x="369.86" y="643.84" width="7.14" height="7.14" transform="translate(-277.29 1015.05) rotate(-89.49)"/>
              <path class="cls-32" d="m377.22,651.26l-7.64-.07.07-7.64,7.64.07-.07,7.64Zm-7.14-.57l6.64.06.06-6.63-6.64-.06-.06,6.63Z"/>
            </g>
            <g>
              <rect class="cls-49" x="362.72" y="643.78" width="7.14" height="7.14" transform="translate(-284.3 1007.84) rotate(-89.49)"/>
              <path class="cls-32" d="m370.08,651.2l-7.65-.07.07-7.64,7.65.07-.07,7.64Zm-7.14-.57l6.64.06.06-6.63-6.64-.06-.06,6.63Z"/>
            </g>
            <g>
              <rect class="cls-49" x="353.23" y="681.41" width="7.14" height="7.14" transform="translate(-331.33 1035.65) rotate(-89.49)"/>
              <path class="cls-32" d="m360.59,688.83l-7.64-.07.07-7.64,7.64.07-.07,7.64Zm-7.13-.57l6.63.06.06-6.64-6.63-.06-.06,6.64Z"/>
            </g>
            <g>
              <rect class="cls-49" x="355.58" y="643.71" width="7.14" height="7.14" transform="translate(-291.31 1000.64) rotate(-89.49)"/>
              <path class="cls-32" d="m362.93,651.14l-7.64-.07.07-7.64,7.64.07-.07,7.64Zm-7.13-.57l6.63.06.06-6.63-6.63-.06-.06,6.63Z"/>
            </g>
            <g>
              <polygon class="cls-49" points="341.39 636.42 341.2 657.82 330.59 647.02 341.39 636.42"/>
              <path class="cls-32" d="m341.45,658.43l-11.21-11.41.18-.18,11.23-11.02-.2,22.61Zm-10.51-11.41l10.01,10.19.18-20.19-10.19,10Z"/>
            </g>
          </g>
        </g>
        <g id="Catan">
          <rect class="cls-40" x="121.57" y="408.45" width="101.87" height="101.87" transform="translate(-291.68 618.51) rotate(-88.34)"/>
          <circle class="cls-52" cx="172.24" cy="468.45" r="27.5"/>
          <polygon class="cls-51" points="136.07 470.7 121.23 470.27 121.75 452.51 121.85 452.39 128.96 461.55 130.98 464.15 135.12 469.48 135.85 470.42 136.07 470.7"/>
          <polygon class="cls-38" points="138.9 457.08 145.79 463.99 152.67 470.91 138.51 470.5 124.35 470.08 131.62 463.58 138.9 457.08"/>
          <polygon class="cls-51" points="223.34 463.37 223.06 473.22 199.22 472.53 199.47 472.33 199.74 472.1 200.61 471.38 207.32 465.81 208.2 465.07 217.18 457.62 223.34 463.37"/>
          <polygon class="cls-38" points="204.84 463.75 210.12 468.15 215.4 472.55 204.6 472.24 193.79 471.93 199.31 467.84 204.84 463.75"/>
          <rect class="cls-42" x="151.73" y="439.49" width="39.75" height="101.87" transform="translate(-323.59 647.76) rotate(-88.34)"/>
        </g>
        <g id="Det_dårlige_selskab" data-name="Det dårlige selskab">
          <g>
            <rect class="cls-48" x="104.43" y="537.79" width="110.15" height="110.15" transform="translate(-425.73 407.29) rotate(-57.35)"/>
            <polygon class="cls-24" points="153.96 523.9 135.73 527.89 140.75 520.05 146.12 518.88 153.96 523.9"/>
            <polygon class="cls-24" points="182.43 659.17 177.4 667.01 174.22 667.71 166.37 662.68 182.43 659.17"/>
            <polygon class="cls-24" points="192.48 643.49 187.45 651.33 158.54 657.66 150.7 652.64 192.48 643.49"/>
            <polygon class="cls-24" points="202.52 627.82 197.5 635.66 142.86 647.62 135.03 642.59 202.52 627.82"/>
            <polygon class="cls-24" points="212.56 612.15 207.55 619.97 127.18 637.57 119.35 632.55 212.56 612.15"/>
            <polygon class="cls-24" points="222.61 596.47 217.59 604.3 111.51 627.52 103.68 622.51 222.61 596.47"/>
            <polygon class="cls-24" points="232.66 580.79 227.64 588.63 95.83 617.48 88 612.46 232.66 580.79"/>
            <polygon class="cls-24" points="232.33 574.12 85.51 606.26 90.53 598.43 224.5 569.1 232.33 574.12"/>
            <polygon class="cls-24" points="216.66 564.08 95.55 590.59 100.58 582.74 208.81 559.05 216.66 564.08"/>
            <polygon class="cls-24" points="200.99 554.04 105.59 574.92 110.62 567.07 193.14 549.01 200.99 554.04"/>
            <polygon class="cls-24" points="185.31 543.99 115.64 559.25 120.67 551.4 177.46 538.96 185.31 543.99"/>
            <polygon class="cls-24" points="169.63 533.94 125.68 543.57 130.71 535.72 161.79 528.92 169.63 533.94"/>
          </g>
          <g>
            <circle class="cls-48" cx="159.5" cy="592.87" r="27.14"/>
            <circle class="cls-29" cx="159.5" cy="592.87" r="22.61"/>
          </g>
        </g>
        <g id="Spilkort">
          <g id="Spar">
            <g>
              <rect class="cls-15" x="245.96" y="387.5" width="30.06" height="44.99" rx=".56" ry=".56" transform="translate(-224.15 439.25) rotate(-60.97)"/>
              <path class="cls-16" d="m273.15,433.94c-.1,0-.21-.02-.31-.08l-38.37-21.29c-.31-.17-.42-.57-.25-.88l14.05-25.31c.17-.31.56-.42.88-.25l38.36,21.29c.31.17.42.57.25.88l-14.05,25.31c-.12.21-.34.33-.57.33Zm-24.32-47.71c-.16,0-.32.09-.41.24l-14.05,25.31c-.06.11-.07.23-.04.35s.11.22.22.28l38.37,21.29c.11.06.24.07.35.04.12-.03.22-.11.28-.22l14.05-25.31c.06-.11.07-.23.04-.35s-.11-.22-.22-.28l-38.36-21.29c-.07-.04-.15-.06-.23-.06Z"/>
            </g>
            <path class="cls-16" d="m271.36,427.91c-.1,0-.21-.02-.3-.08l-30.52-16.94c-.15-.08-.25-.21-.3-.38-.04-.16-.02-.33.06-.48l9.78-17.63c.17-.3.55-.41.86-.24l30.52,16.94c.15.08.25.21.3.38.05.16.03.33-.06.48l-9.78,17.63c-.11.21-.33.32-.55.32Zm-20.73-35.64c-.16,0-.31.08-.4.23l-9.78,17.63c-.12.22-.04.49.18.61l30.52,16.94c.11.06.23.07.34.04.12-.03.21-.11.27-.21l9.78-17.63c.06-.1.07-.23.04-.34-.03-.12-.11-.21-.21-.27l-30.52-16.94c-.07-.04-.14-.06-.22-.06Z"/>
            <path class="cls-29" d="m264.71,406.14c1.08.75,1.49,2.19.97,3.39-.38.88-1.14,1.45-1.99,1.62.99.28,1.73.34,2.46.29.82-.06,1.48-.24,1.92-.4l-2.44,4.4c-.1-.45-.29-1.11-.67-1.84-.34-.64-.79-1.23-1.55-1.93.3.81.22,1.75-.32,2.54-.74,1.08-2.19,1.5-3.39.98-.39-.17-.72-.41-.98-.71-.03-.03-.05-.06-.05-.06,0,0-.03-.03-.06-.07-.04-.05-.26-.52-.54-1.18l-1.15-2.52-1.77-3.88,4.23-.55c.87-.11,1.74-.23,2.61-.34.31-.04,1.2-.16,1.5-.19,0,0,.12-.02.12-.02.38.07.77.21,1.12.46Z"/>
            <path class="cls-29" d="m238.95,410.48c.3.21.42.62.27.95-.11.25-.32.41-.56.45.28.08.49.1.69.08.23-.02.42-.07.54-.11l-.69,1.24c-.03-.13-.08-.31-.19-.52-.1-.18-.22-.35-.43-.54.08.23.06.49-.09.71-.21.3-.61.42-.95.27-.11-.05-.2-.12-.28-.2,0,0-.02-.02-.02-.02,0,0,0,0-.02-.02-.01-.01-.07-.15-.15-.33l-.32-.71-.5-1.09,1.19-.15c.24-.03.49-.06.73-.1.09-.01.34-.04.42-.05,0,0,.03,0,.03,0,.11.02.22.06.31.13Z"/>
            <path class="cls-29" d="m285.11,407.35c.3.21.42.62.27.95-.11.25-.32.41-.56.45.28.08.49.1.69.08.23-.02.42-.07.54-.11l-.69,1.24c-.03-.13-.08-.31-.19-.52-.1-.18-.22-.35-.43-.54.08.23.06.49-.09.71-.21.3-.61.42-.95.27-.11-.05-.2-.12-.28-.2,0,0-.02-.02-.02-.02,0,0,0,0-.02-.02-.01-.01-.07-.15-.15-.33l-.32-.71-.5-1.09,1.19-.15c.24-.03.49-.06.73-.1.09-.01.34-.04.42-.05,0,0,.03,0,.03,0,.11.02.22.06.31.13Z"/>
          </g>
          <g id="Hjerter">
            <g>
              <rect class="cls-15" x="255.75" y="415.86" width="30.06" height="44.99" rx=".56" ry=".56" transform="translate(85.67 919.2) rotate(-127.24)"/>
              <path class="cls-16" d="m262.08,463.8c-.2,0-.39-.09-.52-.26l-17.51-23.04c-.1-.14-.15-.3-.13-.48.02-.17.11-.32.25-.43l34.93-26.55c.13-.1.3-.15.48-.13.17.02.32.11.43.25l17.52,23.04c.21.29.16.69-.12.91l-34.93,26.55c-.11.09-.25.13-.39.13Zm17.41-50.71c-.1,0-.2.03-.28.1l-34.93,26.55c-.1.08-.16.19-.18.31-.01.12.02.25.09.35l17.51,23.04c.16.2.45.24.66.09l34.93-26.55c.2-.16.24-.45.09-.66l-17.52-23.04c-.08-.1-.19-.16-.31-.18-.02,0-.04,0-.06,0Z"/>
            </g>
            <path class="cls-16" d="m262.99,457.57c-.19,0-.38-.09-.5-.25l-12.2-16.05c-.21-.28-.16-.67.12-.88l27.79-21.12c.28-.21.67-.16.88.12l12.2,16.05c.21.28.16.67-.12.88l-27.79,21.12c-.11.09-.25.13-.38.13Zm15.58-38.25c-.1,0-.19.03-.27.09l-27.79,21.12c-.2.15-.23.43-.09.63l12.2,16.05c.15.2.43.23.63.09l27.79-21.12c.2-.15.23-.43.09-.63l-12.2-16.05c-.09-.11-.22-.18-.36-.18Z"/>
            <path class="cls-36" d="m265.43,435.92c.31-.29.67-.49,1.04-.61,0,0,.12,0,.12,0,.31,0,1.21-.02,1.52-.02.88-.01,1.75-.03,2.63-.04l4.26-.06-1.2,4.09-.78,2.66c-.18.69-.33,1.19-.36,1.24-.02.04-.05.08-.05.08,0,0-.02.03-.05.07-.22.33-.5.62-.87.84-1.12.69-2.61.48-3.5-.48-.78-.84-.93-2-.53-2.96-1.03.13-2.11-.33-2.71-1.3-.69-1.11-.49-2.6.47-3.5Z"/>
            <path class="cls-36" d="m260.93,459.55c.1-.09.21-.16.33-.2,0,0,.04,0,.04,0,.1,0,.39,0,.49,0,.28,0,.56,0,.84-.01l1.36-.02-.38,1.31-.25.85c-.06.22-.11.38-.12.4,0,.01-.01.02-.01.02,0,0,0,.01-.01.02-.07.1-.16.2-.28.27-.36.22-.83.15-1.12-.15-.25-.27-.3-.64-.17-.95-.33.04-.67-.11-.87-.42-.22-.36-.16-.83.15-1.12Z"/>
            <path class="cls-36" d="m277.22,415.6c.1-.09.21-.16.33-.2,0,0,.04,0,.04,0,.1,0,.39,0,.49,0,.28,0,.56,0,.84-.01l1.36-.02-.38,1.31-.25.85c-.06.22-.11.38-.12.4,0,.01-.01.02-.01.02,0,0,0,.01-.01.02-.07.1-.16.2-.28.27-.36.22-.83.15-1.12-.15-.25-.27-.3-.64-.17-.95-.33.04-.67-.11-.87-.42-.22-.36-.16-.83.15-1.12Z"/>
          </g>
          <g id="Ruder">
            <g>
              <g>
                <rect class="cls-48" x="312.31" y="428.59" width="30.06" height="44.99" rx=".56" ry=".56" transform="translate(583.28 -44.01) rotate(63.3)"/>
                <path class="cls-26" d="m314.24,474.55c-.25,0-.49-.14-.61-.38l-13-25.86c-.17-.33-.03-.74.3-.91l39.2-19.71c.33-.17.74-.04.91.3l13,25.86c.08.16.1.35.04.52-.06.17-.18.31-.34.4l-39.2,19.71c-.1.05-.2.07-.3.07Zm-13.39-26.35l13,25.86c.1.21.37.3.58.19l39.2-19.71c.1-.05.18-.14.21-.25s.03-.23-.02-.33l-13-25.86c-.11-.22-.37-.3-.58-.19l-39.2,19.71c-.21.11-.3.37-.19.58h0Z"/>
              </g>
              <g>
                <path class="cls-29" d="m314.24,474.52c-.24,0-.47-.13-.58-.35l-13-25.86c-.16-.32-.03-.71.29-.87l39.2-19.71c.3-.16.7-.03.87.29l13,25.86c.08.15.09.33.04.49-.06.16-.17.3-.32.37l-39.2,19.71c-.09.05-.19.07-.29.07Zm-13.42-26.29l13,25.86c.12.23.4.32.63.2l39.2-19.71c.11-.06.19-.15.23-.27.04-.12.03-.25-.03-.36l-13-25.86c-.06-.11-.15-.19-.27-.23-.12-.04-.25-.03-.35.03l-39.2,19.71c-.23.11-.32.4-.21.63h0Z"/>
                <path class="cls-26" d="m314.24,474.64c-.29,0-.56-.16-.69-.42l-13-25.86c-.19-.38-.03-.84.34-1.03l39.2-19.71c.17-.09.38-.11.58-.04.2.06.36.2.46.39l13,25.86c.09.18.11.39.04.59-.07.2-.2.35-.39.45l-39.2,19.71c-.11.05-.22.08-.34.08Zm-13.31-26.48l13,25.86c.08.17.29.23.46.15l39.2-19.71c.08-.04.14-.11.17-.2.03-.09.02-.18-.02-.26l-13-25.86c-.04-.08-.11-.14-.2-.17-.09-.04-.18-.02-.25.02l-39.21,19.72c-.08.04-.14.11-.17.2s-.02.18.02.26h0Z"/>
              </g>
            </g>
            <g>
              <path class="cls-29" d="m316.28,468.56c-.07,0-.13,0-.2-.03-.16-.05-.29-.16-.37-.31l-9.06-18.01c-.08-.15-.09-.32-.03-.48.05-.16.16-.29.31-.37l31.18-15.68c.15-.08.32-.09.48-.03.16.05.29.17.37.32l9.06,18.01c.08.15.09.32.03.48-.05.16-.17.29-.32.37l-31.18,15.68c-.09.04-.18.07-.28.07Zm22.13-34.77c-.07,0-.14.02-.2.05l-31.18,15.68c-.1.05-.19.15-.22.26-.04.11-.03.24.03.34h0s9.06,18.01,9.06,18.01c.05.1.15.19.26.22.11.04.23.03.34-.03l31.18-15.68c.22-.11.31-.38.2-.61l-9.06-18.01c-.05-.11-.15-.19-.26-.23-.05-.01-.1-.02-.14-.02Z"/>
              <path class="cls-26" d="m316.28,468.68c-.08,0-.17-.01-.24-.04-.19-.06-.34-.19-.44-.37l-9.06-18.01c-.09-.18-.1-.39-.04-.58.06-.19.2-.35.38-.44l31.18-15.68c.18-.09.39-.11.58-.04.19.06.35.2.44.38l9.06,18.01c.09.18.1.39.04.58-.06.19-.2.35-.38.44l-31.18,15.68c-.1.05-.22.08-.34.08Zm-9.33-18.59l9.04,17.98c.04.08.1.13.19.16.09.02.17.02.24-.02l31.19-15.68c.08-.04.13-.1.16-.19.03-.09.02-.18-.02-.25l-9.06-18.01c-.04-.08-.1-.14-.19-.17-.08-.03-.17-.02-.25.02l-31.18,15.68c-.08.04-.13.1-.16.19-.02.08-.02.17.02.25v.03Z"/>
            </g>
            <polygon class="cls-36" points="339.38 432.6 336.7 432.31 338.07 429.99 340.74 430.26 339.38 432.6"/>
            <polygon class="cls-36" points="329.4 455.21 320.94 454.3 325.28 446.96 333.72 447.83 329.4 455.21"/>
            <polygon class="cls-36" points="316.6 472.18 313.92 471.89 315.3 469.57 317.97 469.85 316.6 472.18"/>
          </g>
          <g id="Kløver">
            <g>
              <rect class="cls-15" x="285.35" y="415.23" width="30.06" height="44.99" rx=".56" ry=".56" transform="translate(12.8 -8.51) rotate(1.66)"/>
              <path class="cls-16" d="m314.21,460.73h-.02l-28.93-.84c-.36-.01-.64-.31-.63-.67l1.27-43.86c0-.17.08-.33.2-.45.12-.11.28-.18.44-.18h.02l28.93.84c.17,0,.33.08.45.2s.18.29.18.46l-1.27,43.86c0,.17-.08.33-.2.45-.12.11-.28.18-.44.18Zm-28.95-1.02l28.93.84h.01c.12,0,.23-.04.32-.13.09-.09.14-.2.14-.33l1.27-43.86c0-.12-.04-.24-.13-.34-.09-.09-.2-.14-.33-.14l-28.93-.84h-.01c-.12,0-.23.04-.32.13-.09.09-.14.2-.14.33l-1.27,43.86c0,.12.04.24.12.33s.2.14.33.15h0Z"/>
            </g>
            <path class="cls-16" d="m309.95,456.1h-.02l-20.15-.58c-.17,0-.32-.08-.44-.2-.12-.12-.18-.28-.17-.45l1.01-34.89c0-.17.08-.33.2-.44.12-.11.27-.17.43-.17h.02l20.15.58c.17,0,.32.08.44.2.11.12.18.28.17.45l-1.01,34.89c0,.17-.08.32-.2.44-.12.11-.27.17-.43.17Zm-20.16-.76l20.15.58h.01c.11,0,.22-.04.31-.12.09-.08.14-.2.14-.31l1.01-34.89c0-.12-.04-.24-.12-.32s-.2-.14-.31-.14l-20.15-.58c-.12,0-.24.04-.32.12-.09.08-.14.19-.14.31l-1.01,34.89c0,.12.04.23.12.32s.2.14.31.14h0Z"/>
            <path class="cls-29" d="m305.58,438.6c-.03,1.2-1.03,2.14-2.23,2.11-.11,0-.22-.01-.32-.03-.26-.05-.49-.13-.71-.26-.03-.02-.06-.04-.09-.06l-1.19-.73-.16-.1c.07.23.15.46.23.7.44,1.22.95,2.12,1.35,2.73l-4.57-.13c.43-.56,1-1.42,1.51-2.61.09-.22.18-.44.26-.65l-.05.03-1.23.66s-.06.03-.09.05c-.22.11-.46.18-.72.22-.11.01-.21.02-.32.01-1.2-.03-2.14-1.03-2.11-2.24s1.03-2.14,2.24-2.11c.11,0,.22.01.32.03.26.05.49.14.71.26l.26.16-.3-.56s-.04-.07-.06-.1c-.12-.24-.2-.5-.23-.78-.01-.11-.02-.23-.02-.35.04-1.3,1.12-2.32,2.42-2.28s2.32,1.12,2.28,2.42c0,.12-.02.23-.04.35-.05.27-.14.53-.28.76l-.45.73.43-.23c.22-.11.46-.18.72-.22.11-.01.21-.02.32-.01,1.2.03,2.14,1.04,2.11,2.24Z"/>
            <path class="cls-29" d="m290.33,417.91c-.01.45-.39.8-.83.79-.04,0-.08,0-.12-.01-.1-.02-.18-.05-.26-.1-.01,0-.02-.01-.03-.02l-.44-.27-.06-.04c.03.08.05.17.09.26.16.45.35.79.5,1.02l-1.7-.05c.16-.21.37-.53.56-.97.04-.08.07-.16.1-.24h-.02s-.46.26-.46.26c-.01,0-.02.01-.04.02-.08.04-.17.07-.27.08-.04,0-.08,0-.12,0-.45-.01-.8-.39-.79-.83s.39-.8.83-.79c.04,0,.08,0,.12.01.1.02.18.05.26.1l.1.06-.11-.21s-.01-.03-.02-.04c-.04-.09-.07-.19-.09-.29,0-.04,0-.09,0-.13.01-.48.42-.86.9-.85s.86.42.85.9c0,.04,0,.09-.01.13-.02.1-.05.2-.1.28l-.17.27.16-.09c.08-.04.17-.07.27-.08.04,0,.08,0,.12,0,.45.01.8.39.79.83Z"/>
            <path class="cls-29" d="m314.3,458.19c-.01.45-.39.8-.83.79-.04,0-.08,0-.12-.01-.1-.02-.18-.05-.26-.1-.01,0-.02-.01-.03-.02l-.44-.27-.06-.04c.03.08.05.17.09.26.16.45.35.79.5,1.02l-1.7-.05c.16-.21.37-.53.56-.97.04-.08.07-.16.1-.24h-.02s-.46.26-.46.26c-.01,0-.02.01-.04.02-.08.04-.17.07-.27.08-.04,0-.08,0-.12,0-.45-.01-.8-.39-.79-.83.01-.45.39-.8.83-.79.04,0,.08,0,.12.01.1.02.18.05.26.1l.1.06-.11-.21s-.01-.03-.02-.04c-.04-.09-.07-.19-.09-.29,0-.04,0-.09,0-.13.01-.48.42-.86.9-.85s.86.42.85.9c0,.04,0,.09-.01.13-.02.1-.05.2-.1.28l-.17.27.16-.09c.08-.04.17-.07.27-.08.04,0,.08,0,.12,0,.45.01.8.39.79.83Z"/>
          </g>
        </g>
        <g id="Sequence">
          <path class="cls-34" d="m414.24,529.9c-1.16,1.87-2.45,3.61-3.86,5.22l-24.86,39.88-68.59-42.76,56.57-90.74,68.59,42.76-24.86,39.88c-.83,1.97-1.82,3.89-2.99,5.76Z"/>
          <path class="cls-44" d="m414.24,529.9c-1.16,1.87-2.45,3.61-3.86,5.22l-19.4,31.12c-6.05,1.18-12.29,1.41-18.48.64l-42.11-26.26c-3.55-5.43-6.14-11.36-7.73-17.57l45.13-72.39c6.26-1.3,12.73-1.58,19.16-.79l42.14,26.28c3.41,5.22,5.94,10.92,7.54,16.87l-19.4,31.12c-.83,1.97-1.82,3.89-2.99,5.76Z"/>
          <path class="cls-31" d="m414.24,529.9c-1.16,1.87-2.45,3.61-3.86,5.22l-11.88,19.06c-14.21,5.81-30.92,4.95-44.95-3.8-14.3-8.91-22.47-23.94-23.25-39.58l29.85-47.87c14.39-6.19,31.47-5.46,45.77,3.46s22.16,23.37,23.2,38.69l-11.88,19.06c-.83,1.97-1.82,3.89-2.99,5.76Z"/>
          <path class="cls-34" d="m414.24,529.9c-1.16,1.87-2.45,3.61-3.86,5.22-1.29,1.49-2.68,2.87-4.15,4.12-.34.3-.69.59-1.05.87-13.09,10.51-31.91,12.17-46.97,2.78-15.06-9.39-21.85-27.02-18.18-43.4.09-.45.2-.89.32-1.33,1-3.9,2.62-7.71,4.86-11.3,2.24-3.6,4.96-6.72,8.01-9.34.34-.3.69-.59,1.05-.87,13.09-10.51,31.91-12.17,46.97-2.78,15.06,9.39,21.85,27.02,18.18,43.4-.09.45-.2.88-.32,1.32-.48,1.88-1.11,3.73-1.88,5.55-.83,1.97-1.82,3.89-2.99,5.76Z"/>
          <circle class="cls-27" cx="379.73" cy="508.38" r="28.61"/>
          <circle class="cls-31" cx="379.73" cy="508.38" r="19.09"/>
          <path class="cls-48" d="m414.24,529.9c-1.16,1.87-2.45,3.61-3.86,5.22l-3.7,5.93-68.59-42.76,14.24-22.84,68.59,42.76-3.7,5.93c-.83,1.97-1.82,3.89-2.99,5.76Z"/>
          <path class="cls-30" d="m414.24,529.9c-1.16,1.87-2.45,3.61-3.86,5.22l-3.01,4.83-68.59-42.76,12.87-20.65,68.59,42.76-3.02,4.84c-.83,1.97-1.82,3.89-2.99,5.76Z"/>
        </g>
        <text class="cls-7" transform="translate(155.61 342.73) rotate(15.68)"><tspan x="0" y="0">“</tspan><tspan class="cls-57" x="12.75" y="0">K</tspan><tspan x="31.82" y="0">an lide </tspan><tspan class="cls-60" x="114.85" y="0">P</tspan><tspan x="130" y="0">a</tspan><tspan class="cls-61" x="142.94" y="0">r</tspan><tspan x="155.46" y="0">tne</tspan><tspan class="cls-62" x="193.42" y="0">r</tspan><tspan x="205.39" y="0">s” typen</tspan></text>
        <text class="cls-5" transform="translate(112.37 477.02) rotate(15.68)"><tspan x="0" y="0">“Ca</tspan><tspan class="cls-21" x="35.08" y="0">t</tspan><tspan x="43.98" y="0">an”</tspan></text>
        <text class="cls-5" transform="translate(331 634.23) rotate(15.68)"><tspan x="0" y="0">“</tspan><tspan class="cls-1" x="10.63" y="0">L</tspan><tspan x="22.48" y="0">udo”</tspan></text>
        <text class="cls-5" transform="translate(327.85 485.47) rotate(15.68)"><tspan x="0" y="0">“Se</tspan><tspan class="cls-56" x="32.97" y="0">q</tspan><tspan x="45.13" y="0">uence”</tspan></text>
        <text class="cls-5" transform="translate(100.1 620.9) rotate(15.68)"><tspan x="0" y="0">“D</tspan><tspan class="cls-63" x="25.88" y="0">e</tspan><tspan x="35.83" y="0">t då</tspan><tspan class="cls-59" x="72.52" y="0">r</tspan><tspan x="82.12" y="0">li</tspan><tspan class="cls-22" x="95.84" y="0">g</tspan><tspan x="106.72" y="0">e </tspan><tspan x="17.1" y="17.49">sels</tspan><tspan class="cls-58" x="52.23" y="17.49">k</tspan><tspan x="66.28" y="17.49">ab”</tspan></text>
        <text class="cls-5" transform="translate(287.62 411.8) rotate(15.68)"><tspan x="0" y="0">“500”</tspan></text>
        <g id="Partners">
          <rect id="Baggrund-3" data-name="Baggrund" class="cls-35" x="189.48" y="477.54" width="141.73" height="141.73" transform="translate(157.88 -49.95) rotate(15.68)"/>
          <g>
            <path class="cls-45" d="m210.69,588.92l.03.06,24.8-20.28,24.8-20.28-60.45,21.25.03.06c-.36.15-.72.32-1.06.52-5.33,3-7.22,9.75-4.23,15.08,3,5.33,9.74,7.23,15.08,4.23.34-.19.68-.41.99-.64Z"/>
            <path class="cls-41" d="m239.01,488l.06-.03,10.63,30.23,10.63,30.22-20.28-24.8-20.28-24.8.06-.03c-.23-.32-.44-.65-.64-1-2.99-5.33-1.1-12.08,4.24-15.07s12.08-1.1,15.07,4.23c.2.35.37.71.52,1.07Z"/>
            <path class="cls-28" d="m320.74,527.1l.03.06-60.45,21.25,24.81-20.27,24.8-20.28.03.06c.33-.23.68-.46,1.05-.66,5.33-3,12.08-1.1,15.07,4.22,3,5.33,1.1,12.08-4.23,15.08-.37.21-.74.39-1.11.55Z"/>
            <path class="cls-49" d="m301.17,598.54c-.09-.17-.2-.34-.3-.51-.03-.05-.07-.11-.11-.15l-1.49-1.82-18.67-22.84-20.28-24.8,10.63,30.23,9.78,27.82.79,2.22c.02.06.05.12.08.17.09.17.18.35.27.52,2.99,5.33,9.74,7.23,15.08,4.23,5.33-2.99,7.22-9.75,4.22-15.07Z"/>
          </g>
          <g id="Ring">
            <path class="cls-49" d="m232.59,557.46l-18.48,6.02c-.13-.39-.25-.78-.37-1.17,0-.02-.01-.04-.02-.06-.02-.08-.05-.17-.07-.25-.04-.15-.09-.29-.13-.44-.03-.15-.08-.29-.11-.44-.15-.54-.28-1.07-.41-1.6-.13-.53-.24-1.08-.36-1.61-.04-.17-.06-.35-.1-.53-.03-.17-.06-.34-.09-.51-.07-.38-.13-.77-.19-1.15-.03-.19-.06-.39-.09-.58-.02-.19-.05-.39-.07-.57-.03-.13-.04-.27-.05-.4l19.3-2.31c.23,1.91.64,3.78,1.24,5.59Z"/>
            <path class="cls-28" d="m231.36,551.87l-19.31,2.31c-.04-.33-.07-.65-.11-.98-.03-.32-.06-.64-.09-.98-.03-.41-.06-.81-.07-1.21-.03-.36-.03-.71-.05-1.07,0-.05,0-.11,0-.16,0-.3-.01-.61-.01-.91,0-.04,0-.06,0-.09,0-.54,0-1.09.02-1.62,0-.19,0-.38.01-.57.01-.2.02-.39.03-.57.02-.45.05-.9.08-1.35l19.39,1.5c-.16,1.92-.12,3.83.11,5.71Z"/>
            <path class="cls-41" d="m246.05,522.95c-1.67.94-3.24,2.03-4.69,3.28l-12.64-14.77c.11-.1.23-.2.34-.29.14-.11.27-.24.42-.35.08-.05.15-.11.21-.18.23-.19.47-.38.71-.56.1-.08.19-.16.3-.23.13-.1.26-.2.38-.3.19-.14.36-.27.54-.4.06-.04.12-.07.18-.11.01,0,.03-.02.04-.03.23-.17.48-.33.72-.51.01,0,.02-.02.04-.02.02-.04.06-.07.11-.09,0,0,.02-.02.03-.03.33-.23.65-.45.98-.65.27-.18.55-.36.83-.52.05-.04.11-.08.17-.11.1-.07.22-.14.33-.2.22-.14.44-.27.67-.41.24-.13.48-.28.72-.41.05-.02.09-.04.11-.06l9.52,16.96Z"/>
            <path class="cls-54" d="m231.9,508.95c.21-.15.42-.3.63-.44-.24.17-.49.34-.71.51-.07.04-.14.09-.22.14.1-.08.2-.15.3-.21Z"/>
            <path class="cls-54" d="m235.69,506.48c.24-.15.48-.28.72-.41-.46.26-.93.53-1.39.82.22-.14.45-.28.67-.41Z"/>
            <path class="cls-45" d="m251.29,520.66c-1.82.59-3.57,1.36-5.23,2.29l-9.52-16.96.19-.1c.29-.17.61-.34.91-.51.4-.2.78-.39,1.16-.59.32-.15.65-.3.96-.45.1-.06.21-.09.3-.14.27-.13.55-.24.8-.36.06-.03.11-.04.17-.08l.05-.02c.15-.07.3-.13.46-.19.01,0,.03-.01.04-.02.13-.06.28-.11.42-.16.17-.07.32-.13.48-.19,0,0,.01,0,.01,0,.11-.03.21-.08.32-.12.27-.12.55-.22.82-.31.26-.11.55-.21.82-.29.27-.1.55-.2.83-.28l6.02,18.48Z"/>
            <path class="cls-41" d="m231.25,546.15l-19.39-1.5c.05-.7.12-1.4.2-2.1.02-.07.02-.14.03-.22.09-.74.2-1.47.33-2.21,0-.03,0-.06.02-.09.01-.08.02-.15.04-.23.06-.32.12-.65.19-.97.06-.33.13-.66.21-1,.02-.06.02-.12.04-.18s.03-.12.04-.18c.08-.34.17-.68.24-1.02.09-.33.18-.67.27-1.02l.05-.17,18.73,5.26c-.53,1.87-.85,3.76-1,5.63Z"/>
            <path class="cls-50" d="m213.48,535.44c-.1.34-.18.67-.27,1.02.01-.09.04-.18.06-.27l.21-.75Z"/>
            <path class="cls-50" d="m213.2,536.45c-.1.4-.19.79-.29,1.19.02-.11.05-.21.06-.31.07-.29.14-.58.22-.88Z"/>
            <path class="cls-50" d="m212.92,537.64c-.18.79-.34,1.59-.48,2.38.02-.14.04-.26.06-.4.07-.38.14-.77.23-1.15.07-.28.12-.56.19-.84Z"/>
            <path class="cls-50" d="m212.44,540.03c-.27,1.54-.46,3.09-.57,4.62h-.01c0-.14.02-.29.04-.44.02-.27.03-.54.07-.81.03-.3.06-.6.09-.89.03-.29.08-.57.11-.86.05-.35.1-.7.16-1.04.03-.19.06-.4.11-.59Z"/>
            <path class="cls-45" d="m234.33,535.19c-.85,1.67-1.55,3.45-2.08,5.33l-18.73-5.26.06-.21c.09-.33.19-.66.29-.98.06-.17.12-.35.18-.52.07-.21.13-.42.2-.64l.02-.09c.09-.24.17-.48.26-.73.03-.09.07-.17.1-.26.03-.12.07-.22.11-.32,0-.03.01-.05.03-.08.07-.21.15-.43.24-.63.01-.04.02-.08.04-.12.01-.05.04-.12.06-.17.06-.16.12-.33.2-.48.07-.16.13-.32.2-.48.22-.51.44-1,.68-1.5.02-.08.06-.14.1-.23.22-.49.46-.96.7-1.45l17.34,8.81Z"/>
            <path class="cls-49" d="m237.39,530.36c-1.16,1.48-2.2,3.09-3.07,4.83l-17.34-8.81s.02-.06.03-.09c0,0,.02-.03.02-.04.02-.05.05-.09.07-.14s.04-.08.07-.13c.02-.03.04-.06.05-.09.11-.21.22-.42.34-.63.02-.02.02-.05.04-.06l.39-.72c.05-.1.11-.21.17-.31.02-.03.02-.05.04-.06l.13-.22c.14-.25.29-.49.44-.73.07-.12.13-.22.2-.33.17-.28.35-.57.54-.85.21-.32.42-.65.64-.97.23-.33.45-.65.68-.97.22-.31.46-.64.7-.94.05-.08.12-.16.17-.24.06-.08.12-.15.18-.23.07-.11.15-.2.23-.3l15.28,12.01Z"/>
            <path class="cls-47" d="m216.98,526.38s.04-.08.07-.12c-.02.04-.05.08-.06.13h-.01Z"/>
            <path class="cls-47" d="m217.57,525.26s.02-.04.04-.06c-.19.35-.38.7-.56,1.05.04-.1.09-.19.14-.27.12-.24.24-.49.38-.72Z"/>
            <path class="cls-47" d="m218.43,523.72c.11-.18.22-.38.35-.57-.4.67-.8,1.36-1.17,2.05.12-.25.26-.49.39-.72.14-.26.28-.5.43-.76Z"/>
            <path class="cls-28" d="m241.36,526.24c-1.45,1.23-2.77,2.61-3.95,4.13h0s-15.28-12.03-15.28-12.03c.02-.03.04-.05.06-.08.03-.02.05-.05.06-.08.2-.26.4-.51.61-.76.2-.25.42-.5.62-.74.09-.1.17-.21.26-.3.23-.26.48-.53.72-.8.07-.09.14-.17.22-.25.09-.1.2-.21.3-.32.09-.11.2-.22.29-.32.05-.04.09-.09.13-.13.03-.04.08-.07.12-.12.2-.21.4-.42.61-.63.05-.04.09-.08.13-.12.18-.18.36-.34.54-.52.19-.17.36-.33.55-.51.07-.06.13-.12.2-.19.37-.34.77-.69,1.16-1.02l12.64,14.77Z"/>
            <line class="cls-23" x1="222.12" y1="518.35" x2="222.12" y2="518.34"/>
            <path class="cls-41" d="m302.75,524.58l-16.94,9.52c-.94-1.66-2.03-3.23-3.28-4.67h0s14.77-12.64,14.77-12.64c.25.29.5.59.75.89.14.18.28.34.42.52.1.12.21.26.32.39.04.05.09.11.12.17.12.16.24.32.36.48.16.23.33.44.49.67.23.31.47.64.68.97.17.24.33.49.5.73.06.08.11.16.17.25,0,.01.01.03.01.03.11.18.22.35.33.53.15.23.29.47.44.71.15.23.29.48.43.73.14.24.28.49.42.73Z"/>
            <path class="cls-45" d="m306.57,533.32l-18.47,6.03c-.59-1.82-1.36-3.58-2.3-5.25l16.94-9.52c.29.52.56,1.03.83,1.54.26.52.51,1.03.75,1.53.29.6.56,1.21.81,1.83.21.47.4.95.59,1.44,0,.02,0,.04.02.07.26.71.52,1.41.75,2.12.01.04.02.07.04.1.01.04.02.07.02.1Z"/>
            <path class="cls-49" d="m256.88,519.41c-1.91.23-3.78.65-5.59,1.25l-6.02-18.48c.13-.05.27-.09.41-.14.14-.05.28-.09.42-.13.19-.05.36-.12.55-.18.1-.02.2-.05.3-.08.41-.12.83-.23,1.25-.34.06-.02.11-.03.16-.05.09-.03.18-.04.26-.06.33-.09.67-.16,1-.24.07-.02.12-.03.19-.04.28-.07.57-.13.86-.17.04-.02.08-.02.12-.03.07-.01.14-.02.21-.05.04,0,.08-.01.12-.02.28-.05.56-.11.85-.15.16-.03.31-.05.47-.08.13-.02.27-.04.4-.06.58-.09,1.15-.18,1.73-.24l2.3,19.29Z"/>
            <path class="cls-43" d="m252.05,500.48c.26-.05.53-.09.79-.12-.58.09-1.16.19-1.72.3-.11.02-.23.04-.34.06.06-.02.14-.03.21-.05.35-.06.7-.12,1.05-.19Z"/>
            <path class="cls-28" d="m262.59,519.3c-1.92-.16-3.84-.11-5.72.12l-2.3-19.29v-.02c.14-.02.28-.04.43-.05,0,0,.02,0,.04,0,.16-.02.32-.04.48-.05.3-.03.58-.06.87-.08.07-.01.13-.02.2-.03.03,0,.06,0,.1,0,.39-.02.78-.04,1.17-.07.19,0,.39-.02.59-.03.19,0,.39-.02.59-.02.13,0,.26-.01.39-.02.06,0,.12,0,.18,0,.15,0,.29,0,.43,0,.24,0,.49,0,.74,0,.09,0,.2,0,.3,0,.3,0,.58.02.87.03h0c.09,0,.18,0,.28,0,.1,0,.21,0,.31.01,0,0,.02,0,.03,0h.16c.14,0,.26.02.39.03.11.01.23.02.34.03.06,0,.13,0,.19.01.15,0,.29.02.44.04l-1.51,19.38Z"/>
            <path class="cls-43" d="m254.37,500.13c.07,0,.14-.02.21-.02h0c-.58.07-1.16.16-1.73.25.51-.09,1.02-.16,1.52-.23Z"/>
            <path class="cls-43" d="m262.85,499.82c.11,0,.2,0,.29.02-.38-.02-.78-.04-1.17-.04.3,0,.58,0,.88.02Z"/>
            <path class="cls-43" d="m264.1,499.91h0c-.15,0-.29-.02-.44-.03.14,0,.29.01.44.03Z"/>
            <path class="cls-49" d="m290.42,510.17v.02s-12.02,15.27-12.02,15.27c-1.49-1.17-3.1-2.21-4.83-3.08l8.8-17.33s.07.03.1.04c.04.01.07.03.09.06.03,0,.05.01.07.03.44.23.87.46,1.29.69.52.28,1.02.58,1.52.87.24.15.5.3.74.45.05.02.09.06.14.08.03.02.04.02.05.02,0,0,0,0,0,.01.03.03.07.06.1.08.24.15.49.32.74.48.09.05.19.11.28.17.28.2.59.4.89.61.1.08.2.14.31.21.21.15.42.31.63.46.25.18.5.37.75.56.05.05.12.09.18.15.06.04.1.08.17.12Z"/>
            <path class="cls-47" d="m282.46,505.09s-.07-.02-.1-.04h0s.06.02.09.04Z"/>
            <path class="cls-28" d="m297.28,516.78l-14.76,12.64c-1.23-1.44-2.61-2.77-4.13-3.96l12.01-15.27c.45.35.91.72,1.35,1.1.45.37.88.76,1.32,1.14.24.23.48.44.73.67.06.05.12.11.17.16.21.21.43.41.63.61.08.08.16.16.24.24.26.25.5.51.75.77.09.09.18.19.27.28.02.03.04.04.06.07.12.12.23.24.34.36,0,.01.02.02.02.03.02.03.06.06.08.1.02.03.07.06.09.09.19.21.37.41.54.62.05.06.1.11.14.17.05.06.09.12.14.18Z"/>
            <path class="cls-47" d="m291.16,510.77c.2.16.4.34.6.51-.44-.37-.89-.75-1.35-1.1h0c.25.19.5.39.75.59Z"/>
            <path class="cls-47" d="m292.95,512.31c.28.26.58.53.86.8-.25-.22-.48-.44-.73-.67-.44-.4-.87-.78-1.31-1.15.11.08.2.16.3.25.3.25.59.51.89.77Z"/>
            <path class="cls-47" d="m296.29,515.63c-.24-.25-.47-.5-.71-.74-.25-.26-.5-.52-.75-.77-.08-.08-.16-.16-.24-.23-.2-.21-.42-.41-.62-.61.19.17.38.34.55.52.24.25.49.49.74.74.19.21.39.42.59.63.15.15.28.3.43.46Z"/>
            <path class="cls-41" d="m273.48,501.59l-5.25,18.71c-1.88-.53-3.77-.86-5.64-1l1.51-19.38h0c.15.01.29.02.45.03.42.03.83.08,1.24.12.28.04.57.06.85.11.31.03.63.08.93.13.12.01.24.02.35.04.06,0,.11.02.17.03.02,0,.04.01.06,0,.2.04.41.07.63.11h0s.07.01.1.02c.16.03.31.06.47.09.04,0,.08.01.12.01.05.01.1.03.16.03.03,0,.07,0,.11.02s.08.01.13.03c.07.02.14.04.21.05.55.11,1.1.24,1.66.37l.17.05c.52.12,1.04.26,1.55.4Z"/>
            <path class="cls-50" d="m268.6,500.47c.07,0,.11.02.18.04-.24-.04-.46-.08-.69-.12.16.02.34.05.51.08Z"/>
            <path class="cls-50" d="m271.76,501.14s.07.02.11.03c-.04,0-.07-.02-.11-.03Z"/>
            <path class="cls-50" d="m271.02,500.95c.25.06.5.13.75.19-.55-.13-1.11-.26-1.67-.37-.11-.02-.22-.05-.34-.07.07,0,.13.03.22.04.35.07.69.15,1.04.22Z"/>
            <path class="cls-45" d="m282.37,505.04h0s-8.8,17.34-8.8,17.34c-1.67-.85-3.45-1.55-5.33-2.08h0s5.25-18.71,5.25-18.71c.56.16,1.12.33,1.68.5.56.18,1.11.36,1.66.56.08.02.16.06.24.08,0,.01.02.02.04.02.03,0,.07,0,.1.03.04.01.08.02.12.04,0,0,.03.02.05.02.05.01.11.03.15.05.08.03.15.06.23.09.02.02.03.02.05.02.13.05.25.09.37.15.07.02.14.05.21.08.13.06.28.11.4.17.1.04.19.08.29.11h.03s0,.01.02.01c.15.07.31.14.47.21.16.07.32.14.49.22.3.13.6.26.91.4.09.03.18.08.26.13.12.04.22.09.33.15.13.07.27.14.41.21.12.07.26.13.38.19Z"/>
            <path class="cls-50" d="m278.68,503.35c.14.05.28.11.41.18-.11-.04-.21-.08-.31-.12-.27-.11-.54-.22-.81-.32-.06-.03-.11-.06-.18-.07-.32-.13-.64-.24-.97-.35-1.1-.39-2.21-.75-3.33-1.07-.52-.15-1.04-.28-1.56-.4.46.1.93.21,1.37.34.37.11.75.22,1.13.33s.74.23,1.11.35c.38.13.74.25,1.11.38.37.13.73.26,1.1.4.31.12.62.25.93.37Z"/>
            <path class="cls-50" d="m280.98,504.36c-.3-.14-.6-.28-.91-.41-.33-.15-.65-.29-.98-.43.18.06.36.15.55.23.26.12.53.23.79.35.19.09.37.16.54.26Z"/>
            <path class="cls-41" d="m238.17,567.39l-14.77,12.63h-.01s-.08-.09-.12-.14c-.41-.48-.82-.99-1.22-1.5-.13-.15-.25-.31-.37-.46s-.24-.32-.36-.47c-.08-.11-.16-.2-.23-.32-.19-.26-.38-.52-.58-.79-.03-.04-.08-.11-.11-.16-.22-.33-.44-.64-.64-.97-.08-.1-.14-.21-.22-.32-.19-.31-.39-.61-.58-.93-.21-.32-.41-.66-.61-1.01-.14-.24-.28-.48-.41-.73h0s16.94-9.52,16.94-9.52c.94,1.67,2.03,3.23,3.28,4.68Z"/>
            <path class="cls-45" d="m234.9,562.7h0s-16.94,9.52-16.94,9.52h0s0,0,0,0c-.14-.25-.27-.51-.41-.76-.14-.26-.27-.51-.41-.77-.03-.05-.05-.11-.08-.16-.16-.33-.32-.66-.49-.99-.07-.14-.13-.26-.19-.38-.18-.36-.34-.72-.5-1.1h0s-.01-.04-.02-.06c-.04-.09-.09-.18-.12-.28-.02-.04-.03-.08-.05-.12-.11-.21-.2-.44-.28-.65-.15-.35-.28-.71-.42-1.06,0-.02-.02-.05-.02-.07-.15-.38-.29-.77-.43-1.15-.14-.39-.26-.77-.39-1.17l18.48-6.02c.59,1.82,1.36,3.57,2.3,5.24Z"/>
            <path class="cls-54" d="m215.86,568.06c-.06-.16-.13-.31-.19-.46.06.13.11.27.17.39,0,.03,0,.05.02.06Z"/>
            <path class="cls-49" d="m275.43,594.64c-.53.17-1.06.34-1.61.5-.58.16-1.16.32-1.76.46-.33.09-.66.16-1.01.25-.06.02-.12.02-.19.03-.28.07-.57.13-.86.18-.09.03-.21.05-.33.07-.04.01-.07.02-.11.02-.57.11-1.14.21-1.72.29-.35.07-.69.11-1.04.16-.22.03-.45.05-.68.08l-2.31-19.29c1.91-.23,3.78-.65,5.59-1.24l6.03,18.47Z"/>
            <path class="cls-28" d="m266.13,596.69h0c-.32.05-.64.07-.95.1-.25.03-.49.05-.73.07-.03,0-.05,0-.07,0-.07.01-.13.03-.19.03h0c-.05,0-.11,0-.17.01h-.02c-.11,0-.23,0-.34.02-.03,0-.06,0-.1,0-.21.02-.42.03-.63.05-.03,0-.06,0-.1,0-.19,0-.39.02-.58.02-.2,0-.39,0-.58.02-.1,0-.19,0-.29.01-.11,0-.2,0-.3,0-.06,0-.14,0-.21,0-.31,0-.64,0-.96,0-.04,0-.08,0-.14,0-.04,0-.1,0-.15,0-.09,0-.19-.01-.29,0-.05,0-.1,0-.16-.01-.02,0-.05,0-.07,0-.06,0-.13,0-.18,0-.03,0-.06,0-.08-.01-.03,0-.06,0-.09,0-.09,0-.17,0-.27,0h0c-.05,0-.12,0-.18-.01-.14,0-.29,0-.44-.02-.1,0-.19,0-.29-.02-.05,0-.1,0-.16-.01-.12-.01-.24-.01-.36-.03-.15,0-.29-.02-.44-.04l1.49-19.37c1.93.16,3.85.11,5.73-.11l2.31,19.29Z"/>
            <path class="cls-43" d="m256.6,596.89c.14.02.29.03.43.04-.14,0-.29-.01-.43-.03h0Z"/>
            <path class="cls-43" d="m259.9,597.04c.39,0,.78,0,1.16,0-.14,0-.28.02-.42.01-.25,0-.5,0-.75,0Z"/>
            <path class="cls-43" d="m263.98,596.91c.13,0,.25-.01.39-.03-.13.02-.25.04-.37.04-.12,0-.24.02-.36.02.11,0,.23,0,.34-.02Z"/>
            <path class="cls-43" d="m266.82,596.61c-.16.03-.32.05-.48.07-.07,0-.14.02-.21.02h0c.23-.04.46-.06.69-.09Z"/>
            <path class="cls-43" d="m269.58,596.15c-.32.07-.62.12-.94.18-.26.05-.52.09-.78.12.57-.09,1.15-.19,1.72-.3Z"/>
            <path class="cls-49" d="m247.12,574.44l-8.79,17.32s-.06-.03-.09-.03h0s-.07-.03-.09-.05c-.02,0-.04-.01-.06-.04-.47-.24-.94-.5-1.41-.76-.47-.26-.94-.53-1.4-.81-.22-.14-.43-.27-.65-.4-.07-.05-.15-.1-.23-.14-.05-.04-.09-.08-.16-.11-.12-.08-.24-.16-.36-.24-.13-.09-.25-.17-.37-.25-.07-.04-.13-.08-.21-.12h0s-.04-.02-.07-.04c0,0-.01-.03-.02-.03-.23-.16-.46-.31-.69-.47-.05-.04-.11-.07-.16-.11-.43-.3-.85-.61-1.26-.93-.05-.02-.08-.05-.12-.08-.02-.02-.04-.03-.06-.05-.15-.12-.3-.23-.43-.35-.06-.04-.11-.09-.17-.12h0s12-15.28,12-15.28c1.49,1.17,3.1,2.21,4.82,3.08Z"/>
            <path class="cls-47" d="m238.23,591.72s.07.02.1.04h0s-.06-.02-.09-.04Z"/>
            <path class="cls-28" d="m242.29,571.37l-12,15.27c-.46-.35-.91-.72-1.36-1.1s-.88-.77-1.31-1.15c-.13-.11-.25-.23-.39-.35-.11-.1-.22-.2-.35-.32,0-.01-.02-.02-.02-.03-.05-.04-.09-.09-.14-.14l-.28-.27c-.05-.05-.1-.09-.14-.14-.06-.07-.14-.14-.21-.21-.08-.08-.16-.15-.23-.23-.26-.25-.5-.51-.75-.77-.05-.04-.09-.08-.13-.13-.05-.05-.1-.09-.14-.15-.03-.03-.07-.07-.11-.1-.17-.18-.33-.37-.51-.55-.19-.21-.36-.41-.54-.62-.1-.11-.19-.22-.28-.32h0s14.77-12.65,14.77-12.65c1.23,1.45,2.61,2.78,4.11,3.97Z"/>
            <path class="cls-47" d="m226.1,582.93c.2.21.42.41.62.61-.18-.17-.38-.35-.55-.52-.24-.25-.49-.49-.73-.74-.11-.11-.22-.23-.33-.35.25.26.5.52.76.77.07.08.15.16.23.23Z"/>
            <path class="cls-47" d="m230.29,586.63h0c-.25-.19-.52-.39-.76-.59-.31-.25-.61-.5-.9-.75-.29-.26-.58-.52-.88-.78-.17-.15-.34-.31-.51-.47.13.12.25.24.39.35.86.79,1.75,1.55,2.67,2.26Z"/>
            <path class="cls-41" d="m256.59,596.89h0c-.57-.03-1.15-.09-1.73-.16-.34-.03-.68-.08-1.01-.12l-.24-.04c-.16-.02-.32-.05-.48-.06-.35-.05-.68-.11-1.02-.17h-.04c-.09-.04-.18-.05-.25-.06s-.12-.01-.18-.03h0c-.19-.05-.39-.07-.57-.11-.04-.01-.08-.01-.11-.02s-.06,0-.09-.02c-.09-.02-.17-.04-.25-.06-.29-.06-.57-.12-.85-.18-.14-.03-.27-.06-.4-.1-.13-.03-.25-.05-.38-.09l-.08-.02c-.13-.03-.26-.06-.39-.1-.44-.11-.87-.22-1.31-.35l5.25-18.7h0c1.87.53,3.76.86,5.63,1l-1.5,19.37Z"/>
            <path class="cls-45" d="m252.45,576.52l-5.25,18.7c-.56-.16-1.12-.32-1.68-.5-.22-.06-.44-.13-.66-.21-.05-.02-.11-.04-.16-.06-.04-.01-.08-.02-.13-.05-.23-.08-.45-.16-.69-.25-.07-.02-.13-.04-.18-.06h-.04c-.1-.04-.18-.07-.28-.11-.09-.03-.16-.06-.23-.09-.04-.02-.08-.03-.1-.05-.05-.01-.1-.03-.14-.05h-.03s-.1-.05-.14-.07c-.28-.1-.55-.21-.81-.32-.08-.03-.15-.05-.23-.09-.03,0-.06-.03-.09-.03-.07-.03-.13-.06-.2-.08-.02-.02-.03-.02-.05-.02t-.02-.02c-.06-.03-.12-.04-.17-.07-.04-.01-.08-.03-.11-.04-.14-.06-.29-.13-.43-.2-.13-.05-.25-.1-.37-.16-.12-.06-.24-.11-.35-.16-.11-.05-.24-.11-.36-.16-.03,0-.08-.02-.1-.05-.03,0-.06-.03-.08-.04-.29-.14-.58-.28-.86-.43l-.17-.08h-.02s0-.02,0-.02l8.79-17.32c1.67.85,3.45,1.55,5.33,2.08Z"/>
            <path class="cls-50" d="m238.51,591.86c.34.18.7.35,1.04.52-.03,0-.08-.02-.11-.04-.25-.12-.49-.24-.73-.36-.13-.07-.27-.14-.39-.21l.19.09Z"/>
            <path class="cls-50" d="m240.62,592.87c.24.1.48.2.71.31-.1-.04-.19-.08-.28-.11-.14-.06-.28-.13-.43-.19Z"/>
            <path class="cls-50" d="m242.9,593.8c.07.03.16.06.25.09-.07-.02-.14-.05-.21-.07-.31-.12-.62-.25-.93-.37-.14-.05-.28-.11-.41-.18.11.04.21.08.32.13.27.11.53.22.81.32.05.03.11.06.17.07Z"/>
            <path class="cls-50" d="m248.51,595.57c-.38-.09-.75-.17-1.11-.28s-.75-.22-1.12-.33-.76-.22-1.12-.35c-.37-.13-.74-.25-1.11-.38-.12-.04-.25-.08-.38-.14.06.03.14.05.22.07,1.09.4,2.2.75,3.32,1.06.43.12.87.23,1.3.34Z"/>
            <path class="cls-50" d="m248.51,595.57c.19.05.39.1.58.14-.19-.05-.39-.1-.58-.14Z"/>
            <path class="cls-50" d="m250.6,596.05c.11.03.22.05.34.07-.08-.01-.15-.03-.23-.04-.35-.07-.69-.15-1.04-.22-.19-.05-.39-.1-.59-.15.5.12,1.01.24,1.52.34Z"/>
            <path class="cls-50" d="m252.1,596.34c-.07,0-.12-.02-.19-.03-.1-.02-.19-.04-.29-.06.07.02.12.02.19.03.09.01.19.03.29.06Z"/>
            <path class="cls-49" d="m308.64,542.62l-19.3,2.31c-.23-1.91-.64-3.78-1.24-5.59l18.47-6.03c.04.12.08.25.12.36.08.22.14.45.21.68.02.06.03.09.04.13.23.8.45,1.58.64,2.37.09.37.18.75.27,1.14.08.37.16.76.24,1.13,0,.03,0,.05.02.09h0s.02.12.02.12l.14.83c.08.4.13.81.2,1.22.07.41.12.82.16,1.24Z"/>
            <path class="cls-28" d="m308.84,552.15l-19.39-1.5c.16-1.92.11-3.84-.12-5.71l19.3-2.31c.06.54.13,1.09.18,1.64,0,.03,0,.06,0,.11.04.46.07.93.1,1.39.02.52.04,1.02.06,1.53,0,.53.02,1.08,0,1.61,0,.15,0,.31,0,.47,0,.02,0,.04,0,.06-.01.12-.02.26-.02.39-.01.39-.02.78-.04,1.17-.02.38-.05.77-.07,1.16Z"/>
            <path class="cls-41" d="m291.97,585.34c-.09.09-.2.2-.31.28,0,0-.01,0-.02.02-.21.17-.41.34-.62.52-.11.09-.2.17-.3.24-.14.11-.27.21-.4.31l-.16.11c-.05.04-.11.08-.16.11-.06.06-.11.11-.18.15-.07.06-.13.1-.2.15-.27.21-.55.42-.83.62-.27.19-.55.39-.82.58-.32.23-.65.45-.97.65-.13.09-.27.18-.41.27-.31.19-.6.37-.9.57h-.01s-.01.01-.01.01c-.24.14-.48.29-.74.44-.25.14-.5.28-.76.44l-9.52-16.94c1.66-.93,3.24-2.02,4.7-3.27l12.63,14.75Z"/>
            <path class="cls-45" d="m284.16,590.81l-.18.1c-.3.17-.61.34-.92.51-.38.2-.76.39-1.15.59-.02,0-.04.02-.06.03-.04.01-.06.04-.1.05-.27.14-.54.25-.81.38-.05.03-.1.05-.15.08-.04.02-.09.04-.15.07-.27.13-.54.24-.8.36-.06.03-.11.06-.18.08-.16.07-.31.13-.47.21-.16.07-.32.13-.48.19-.54.21-1.09.43-1.62.63-.27.1-.55.21-.83.3-.27.09-.55.19-.83.28l-6.03-18.47c1.82-.59,3.57-1.37,5.24-2.3l9.52,16.94Z"/>
            <path class="cls-54" d="m284.16,590.81c.51-.28,1.01-.58,1.51-.88-.21.14-.44.28-.66.41-.29.17-.55.32-.85.47Z"/>
            <path class="cls-54" d="m286.99,589.09c-.32.22-.66.43-.99.64-.1.07-.22.14-.34.2.45-.28.88-.56,1.33-.84Z"/>
            <path class="cls-41" d="m307.17,561.55l-18.72-5.25c.53-1.88.86-3.77,1-5.64l19.39,1.5c0,.15-.02.29-.03.45-.02.13-.03.26-.04.39-.02.13-.02.27-.04.41-.03.29-.07.58-.1.85,0,.01,0,.02,0,.03-.04.29-.08.57-.11.86-.01.08-.02.15-.03.23-.04.26-.08.54-.13.8-.04.33-.11.65-.17.98-.02.16-.06.31-.09.47-.04.22-.08.45-.14.67-.07.29-.12.58-.19.86-.02.1-.04.19-.06.29-.07.28-.14.57-.22.85-.02.09-.04.19-.07.29-.08.31-.16.61-.25.93Z"/>
            <path class="cls-45" d="m307.17,561.55l-.06.2c-.09.33-.2.68-.3,1.01-.05.19-.1.36-.16.54-.07.22-.14.43-.21.65v.04c-.13.33-.25.67-.37,1.01-.02.05-.04.11-.05.15-.02.06-.04.1-.06.15,0,.03-.02.06-.03.09,0,.03-.02.06-.03.09-.03.09-.06.16-.09.24l-.02.07c-.05.13-.09.24-.13.35-.02.05-.04.1-.06.14v.03c-.08.16-.14.32-.21.48-.07.16-.13.31-.2.48-.1.23-.19.46-.29.68-.02.05-.05.09-.06.14l-.32.68s-.03.08-.04.12c-.02.04-.04.07-.06.12-.22.48-.46.96-.7,1.44l-17.34-8.81c.85-1.67,1.55-3.45,2.08-5.32l18.72,5.25Z"/>
            <path class="cls-49" d="m303.71,570.43c-.07.13-.14.27-.19.39-.03.06-.07.12-.09.18-.1.17-.2.36-.29.55,0,.03-.02.05-.04.06-.13.25-.26.49-.4.72-.07.15-.15.29-.24.42-.29.49-.58.98-.88,1.46-.3.48-.62.94-.93,1.42,0,.02-.02.05-.04.06,0,0,0,.02-.02.03-.02.03-.04.05-.05.07-.22.33-.45.65-.68.97-.19.26-.38.52-.57.78-.19.26-.38.5-.58.75-.04.06-.09.11-.13.17l-15.27-12c1.17-1.49,2.2-3.1,3.07-4.83l17.34,8.81Z"/>
            <path class="cls-28" d="m298.58,578.47c-.05.06-.08.1-.12.16-.24.3-.49.61-.73.91-.08.1-.17.21-.25.3-.08.1-.17.2-.26.29-.09.11-.17.21-.25.3-.22.25-.44.5-.67.75-.02.02-.03.03-.05.05-.09.08-.15.17-.24.24-.19.21-.39.43-.59.64-.04.04-.08.09-.14.14-.12.13-.24.25-.36.37-.12.13-.24.25-.37.36l-1.12,1.09-.14.12c-.2.18-.38.35-.57.53-.03.01-.05.04-.07.06-.22.19-.44.38-.67.57l-12.63-14.75c1.44-1.24,2.78-2.62,3.96-4.14h0s15.27,12.01,15.27,12.01Z"/>
            <path class="cls-47" d="m298.72,578.29c.2-.25.39-.5.58-.75-.04.06-.08.12-.12.17-.15.2-.3.39-.46.58Z"/>
            <path class="cls-47" d="m300.65,575.63c.63-.94,1.23-1.9,1.81-2.89-.06.11-.12.23-.19.34-.18.31-.36.6-.54.89-.17.28-.36.56-.53.85-.18.27-.36.54-.55.81Z"/>
            <path class="cls-47" d="m303.52,570.82c-.13.24-.26.49-.38.72,0,.02-.02.04-.04.06.15-.27.28-.53.42-.78Z"/>
          </g>
        </g>
        <path id="tape_lige" data-name="tape lige" class="cls-25" d="m502.29,450.14l-12.7,9.65c-20.87-27.46-41.74-54.91-62.61-82.37,4.23-3.22,8.46-6.43,12.7-9.65,20.87,27.46,41.74,54.91,62.61,82.37Z"/>
        <path id="tape_lige-2" data-name="tape lige" class="cls-25" d="m86.27,664.67l-15.05,5.28c-8.26-23.54-16.52-47.08-24.77-70.61,5.02-1.76,10.03-3.52,15.05-5.28,8.26,23.54,16.52,47.08,24.77,70.61Z"/>
        <path id="tape_lige-3" data-name="tape lige" class="cls-25" d="m203.93,288.24l7.16,14.25c-15.35,5.49-32.37,12.53-50.4,21.62-17.67,8.91-33.17,18.21-46.51,27.12-2.39-4.75-4.78-9.5-7.16-14.25,13.69-9,29.48-18.36,47.39-27.34,17.63-8.85,34.33-15.84,49.52-21.39Z"/>
        <g>
          <path class="cls-25" d="m356.72,739.94c2.56-7.77,5.11-15.53,7.67-23.29l-15.14-4.98c-1.98,6.01-3.95,12.02-5.93,18.03l13.41,10.24Z"/>
          <path class="cls-25" d="m398.76,712.26c-14,9.24-27.99,18.5-41.99,27.74l-13.4-10.24c15.53-10.26,31.06-20.54,46.59-30.8,2.92,4.44,5.87,8.88,8.8,13.31Z"/>
        </g>
      </g>
    </g>
  </g>
</svg>