<?xml version="1.0" encoding="UTF-8"?>
<svg id="Layer_2" data-name="Layer 2" xmlns="http://www.w3.org/2000/svg" viewBox="0 0 147.38 330.57">
  <defs>
    <style>
      .cls-1 {
        fill: #4d301c;
      }

      .cls-1, .cls-2, .cls-3, .cls-4, .cls-5, .cls-6, .cls-7, .cls-8, .cls-9, .cls-10, .cls-11 {
        stroke-width: 0px;
      }

      .cls-2 {
        fill: #77c043;
      }

      .cls-3 {
        fill: #4f2b7d;
      }

      .cls-4 {
        fill: #263b93;
      }

      .cls-5 {
        fill: #815230;
      }

      .cls-6 {
        fill: #191818;
      }

      .cls-7 {
        fill: #35c0c8;
      }

      .cls-8 {
        fill: #1b9948;
      }

      .cls-9 {
        fill: #c63192;
      }

      .cls-10 {
        fill: #b22725;
      }

      .cls-11 {
        fill: #ffd22d;
      }
    </style>
  </defs>
  <g id="Rum">
    <g id="Lykkehjul">
      <g>
        <rect class="cls-6" x="70.43" y="5.77" width="6.52" height="266.08"/>
        <rect class="cls-6" x="99.67" y="256.56" width="6.52" height="84.01" transform="translate(-180.97 160.23) rotate(-45)"/>
        <rect class="cls-6" x="41.18" y="256.56" width="6.52" height="84.01" transform="translate(-135.25 541.11) rotate(-135)"/>
        <rect class="cls-6" x="72.09" y="267.24" width="3.2" height="50.17" transform="translate(-218.63 366.01) rotate(-90)"/>
        <rect class="cls-6" x="70.43" y="269.72" width="6.52" height="54.34"/>
      </g>
      <g>
        <circle class="cls-1" cx="73.69" cy="77.1" r="73.69"/>
        <g>
          <path class="cls-2" d="m73.69,10.58v66.52L48.23,15.64c.18-.08.37-.16.55-.23.34-.14.69-.28,1.04-.41.38-.15.77-.29,1.15-.42.37-.14.75-.27,1.12-.4.45-.15.91-.3,1.35-.44.43-.14.88-.27,1.31-.4.51-.15,1.03-.3,1.54-.43.52-.14,1.04-.27,1.56-.4.51-.13,1.04-.25,1.56-.36.52-.11,1.05-.22,1.57-.32,1.04-.21,2.1-.38,3.15-.53.48-.07.97-.13,1.45-.19.15-.02.3-.04.45-.05.39-.05.8-.09,1.19-.13.09-.01.17-.02.26-.03.47-.04.94-.08,1.41-.11,1.59-.11,3.18-.17,4.78-.17Z"/>
          <path class="cls-10" d="m26.65,30.06l47.04,47.04L12.23,51.64c.07-.19.15-.38.23-.56.14-.34.29-.68.44-1.03.16-.38.33-.75.51-1.11.16-.36.33-.72.51-1.08.21-.43.43-.86.64-1.27.21-.41.43-.81.64-1.21.26-.47.51-.94.78-1.4.27-.47.54-.93.82-1.39.27-.46.56-.91.85-1.36.29-.45.58-.9.88-1.34.58-.88,1.21-1.75,1.85-2.61.29-.39.59-.78.89-1.16.09-.12.19-.24.29-.36.24-.31.5-.63.75-.93.06-.07.11-.14.16-.21.31-.36.61-.72.92-1.08,1.05-1.2,2.13-2.37,3.26-3.5Z"/>
          <path class="cls-11" d="m48.23,15.64l25.46,61.46L26.65,30.06c.14-.14.28-.29.42-.43.26-.26.53-.52.8-.78.3-.29.6-.56.9-.83.29-.27.58-.54.88-.8.36-.31.72-.63,1.08-.93.35-.3.71-.59,1.06-.87.42-.34.83-.67,1.26-.99.43-.33.85-.65,1.29-.97.42-.32.86-.63,1.3-.93.44-.3.88-.61,1.33-.9.88-.59,1.79-1.16,2.71-1.7.42-.25.84-.49,1.27-.73.13-.08.26-.15.4-.22.34-.2.7-.39,1.05-.58.08-.04.15-.08.23-.13.42-.22.84-.43,1.26-.64,1.43-.71,2.88-1.38,4.35-1.99Z"/>
          <path class="cls-3" d="m73.69,77.1h66.52c0-9.02-1.8-17.61-5.06-25.45l-61.46,25.45Z"/>
          <path class="cls-8" d="m73.69,10.58v66.52l25.46-61.46c-.18-.08-.37-.16-.55-.23-.34-.14-.69-.28-1.04-.41-.38-.15-.77-.29-1.15-.42-.37-.14-.75-.27-1.12-.4-.45-.15-.91-.3-1.35-.44-.43-.14-.88-.27-1.31-.4-.51-.15-1.03-.3-1.54-.43-.52-.14-1.04-.27-1.56-.4-.51-.13-1.04-.25-1.56-.36-.52-.11-1.05-.22-1.57-.32-1.04-.21-2.1-.38-3.15-.53-.48-.07-.97-.13-1.45-.19-.15-.02-.3-.04-.45-.05-.39-.05-.8-.09-1.19-.13-.09-.01-.17-.02-.26-.03-.47-.04-.94-.08-1.41-.11-1.59-.11-3.18-.17-4.78-.17Z"/>
          <path class="cls-4" d="m120.73,30.06l-47.04,47.04,61.46-25.46c-.07-.19-.15-.38-.23-.56-.14-.34-.29-.68-.44-1.03-.16-.38-.33-.75-.51-1.11-.16-.36-.33-.72-.51-1.08-.21-.43-.43-.86-.64-1.27-.21-.41-.43-.81-.64-1.21-.26-.47-.51-.94-.78-1.4-.27-.47-.54-.93-.82-1.39-.27-.46-.56-.91-.85-1.36-.29-.45-.58-.9-.88-1.34-.58-.88-1.21-1.75-1.85-2.61-.29-.39-.59-.78-.89-1.16-.09-.12-.19-.24-.29-.36-.24-.31-.5-.63-.75-.93-.06-.07-.11-.14-.16-.21-.31-.36-.61-.72-.92-1.08-1.05-1.2-2.13-2.37-3.26-3.5Z"/>
          <path class="cls-7" d="m99.15,15.64l-25.46,61.46,47.04-47.04c-.14-.14-.28-.29-.42-.43-.26-.26-.53-.52-.8-.78-.3-.29-.6-.56-.9-.83-.29-.27-.58-.54-.88-.8-.36-.31-.72-.63-1.08-.93-.35-.3-.71-.59-1.06-.87-.42-.34-.83-.67-1.26-.99-.43-.33-.85-.65-1.29-.97-.42-.32-.86-.63-1.3-.93-.44-.3-.88-.61-1.33-.9-.88-.59-1.79-1.16-2.71-1.7-.42-.25-.84-.49-1.27-.73-.13-.08-.26-.15-.4-.22-.34-.2-.7-.39-1.05-.58-.08-.04-.15-.08-.23-.13-.42-.22-.84-.43-1.26-.64-1.43-.71-2.88-1.38-4.35-1.99Z"/>
          <path class="cls-8" d="m73.69,143.63v-66.52l-25.46,61.46c.18.08.37.16.55.23.34.14.69.28,1.04.41.38.15.77.29,1.15.42.37.14.75.27,1.12.4.45.15.91.3,1.35.44.43.14.88.27,1.31.4.51.15,1.03.3,1.54.43.52.14,1.04.27,1.56.4.51.13,1.04.25,1.56.36.52.11,1.05.22,1.57.32,1.04.21,2.1.38,3.15.53.48.07.97.13,1.45.19.15.02.3.04.45.05.39.05.8.09,1.19.13.09.01.17.02.26.03.47.04.94.08,1.41.11,1.59.11,3.18.17,4.78.17Z"/>
          <path class="cls-9" d="m73.69,77.1h66.52c0,9.02-1.8,17.61-5.06,25.45l-61.46-25.45Z"/>
          <path class="cls-7" d="m73.69,143.63v-66.52l25.46,61.46c-.18.08-.37.16-.55.23-.34.14-.69.28-1.04.41-.38.15-.77.29-1.15.42-.37.14-.75.27-1.12.4-.45.15-.91.3-1.35.44-.43.14-.88.27-1.31.4-.51.15-1.03.3-1.54.43-.52.14-1.04.27-1.56.4-.51.13-1.04.25-1.56.36-.52.11-1.05.22-1.57.32-1.04.21-2.1.38-3.15.53-.48.07-.97.13-1.45.19-.15.02-.3.04-.45.05-.39.05-.8.09-1.19.13-.09.01-.17.02-.26.03-.47.04-.94.08-1.41.11-1.59.11-3.18.17-4.78.17Z"/>
          <path class="cls-10" d="m120.73,124.14l-47.04-47.04,61.46,25.46c-.07.19-.15.38-.23.56-.14.34-.29.68-.44,1.03-.16.38-.33.75-.51,1.11-.16.36-.33.72-.51,1.08-.21.43-.43.86-.64,1.27-.21.41-.43.81-.64,1.21-.26.47-.51.94-.78,1.4-.27.47-.54.93-.82,1.39-.27.46-.56.91-.85,1.36-.29.45-.58.9-.88,1.34-.58.88-1.21,1.75-1.85,2.61-.29.39-.59.78-.89,1.16-.09.12-.19.24-.29.36-.24.31-.5.63-.75.93-.06.07-.11.14-.16.21-.31.36-.61.72-.92,1.08-1.05,1.2-2.13,2.37-3.26,3.5Z"/>
          <path class="cls-11" d="m99.15,138.56l-25.46-61.46,47.04,47.04c-.14.14-.28.29-.42.43-.26.26-.53.52-.8.78-.3.29-.6.56-.9.83-.29.27-.58.54-.88.8-.36.31-.72.63-1.08.93-.35.3-.71.59-1.06.87-.42.34-.83.67-1.26.99-.43.33-.85.65-1.29.97-.42.32-.86.63-1.3.93-.44.3-.88.61-1.33.9-.88.59-1.79,1.16-2.71,1.7-.42.25-.84.49-1.27.73-.13.08-.26.15-.4.22-.34.2-.7.39-1.05.58-.08.04-.15.08-.23.13-.42.22-.84.43-1.26.64-1.43.71-2.88,1.38-4.35,1.99Z"/>
          <path class="cls-2" d="m73.69,143.63v-66.52l25.46,61.46c-.18.08-.37.16-.55.23-.34.14-.69.28-1.04.41-.38.15-.77.29-1.15.42-.37.14-.75.27-1.12.4-.45.15-.91.3-1.35.44-.43.14-.88.27-1.31.4-.51.15-1.03.3-1.54.43-.52.14-1.04.27-1.56.4-.51.13-1.04.25-1.56.36-.52.11-1.05.22-1.57.32-1.04.21-2.1.38-3.15.53-.48.07-.97.13-1.45.19-.15.02-.3.04-.45.05-.39.05-.8.09-1.19.13-.09.01-.17.02-.26.03-.47.04-.94.08-1.41.11-1.59.11-3.18.17-4.78.17Z"/>
          <path class="cls-3" d="m73.69,77.1H7.16c0,9.02,1.8,17.61,5.06,25.45l61.46-25.45Z"/>
          <path class="cls-8" d="m73.69,143.63v-66.52l-25.46,61.46c.18.08.37.16.55.23.34.14.69.28,1.04.41.38.15.77.29,1.15.42.37.14.75.27,1.12.4.45.15.91.3,1.35.44.43.14.88.27,1.31.4.51.15,1.03.3,1.54.43.52.14,1.04.27,1.56.4.51.13,1.04.25,1.56.36.52.11,1.05.22,1.57.32,1.04.21,2.1.38,3.15.53.48.07.97.13,1.45.19.15.02.3.04.45.05.39.05.8.09,1.19.13.09.01.17.02.26.03.47.04.94.08,1.41.11,1.59.11,3.18.17,4.78.17Z"/>
          <path class="cls-4" d="m26.65,124.14l47.04-47.04-61.46,25.46c.07.19.15.38.23.56.14.34.29.68.44,1.03.16.38.33.75.51,1.11.16.36.33.72.51,1.08.21.43.43.86.64,1.27.21.41.43.81.64,1.21.26.47.51.94.78,1.4.27.47.54.93.82,1.39.27.46.56.91.85,1.36.29.45.58.9.88,1.34.58.88,1.21,1.75,1.85,2.61.29.39.59.78.89,1.16.09.12.19.24.29.36.24.31.5.63.75.93.06.07.11.14.16.21.31.36.61.72.92,1.08,1.05,1.2,2.13,2.37,3.26,3.5Z"/>
          <path class="cls-7" d="m48.23,138.56l25.46-61.46-47.04,47.04c.14.14.28.29.42.43.26.26.53.52.8.78.3.29.6.56.9.83.29.27.58.54.88.8.36.31.72.63,1.08.93.35.3.71.59,1.06.87.42.34.83.67,1.26.99.43.33.85.65,1.29.97.42.32.86.63,1.3.93.44.3.88.61,1.33.9.88.59,1.79,1.16,2.71,1.7.42.25.84.49,1.27.73.13.08.26.15.4.22.34.2.7.39,1.05.58.08.04.15.08.23.13.42.22.84.43,1.26.64,1.43.71,2.88,1.38,4.35,1.99Z"/>
          <path class="cls-9" d="m73.69,77.1H7.16c0-9.02,1.8-17.61,5.06-25.45l61.46,25.45Z"/>
        </g>
        <circle class="cls-1" cx="73.69" cy="77.1" r="12.37"/>
        <polygon class="cls-5" points="73.69 0 79.13 0 76.41 11.94 73.69 23.89 70.97 11.94 68.25 0 73.69 0"/>
      </g>
    </g>
  </g>
</svg>